Rubik-BlackItalic.ufo
<glyph name="quotedbl" format="1">
  <advance width="517"/>
  <unicode hex="0022"/>
  <outline>
    <contour>
      <point x="141" y="710" type="line" name="hr00" smooth="yes"/>
      <point x="122" y="710"/>
      <point x="109" y="696"/>
      <point x="107" y="674" type="curve" smooth="yes"/>
      <point x="84" y="440" type="line" smooth="yes"/>
      <point x="82" y="424"/>
      <point x="86" y="408"/>
      <point x="112" y="408" type="curve" smooth="yes"/>
      <point x="194" y="408" type="line" smooth="yes"/>
      <point x="220" y="408"/>
      <point x="231" y="424"/>
      <point x="236" y="440" type="curve" smooth="yes"/>
      <point x="313" y="674" type="line" smooth="yes"/>
      <point x="320" y="696"/>
      <point x="312" y="710"/>
      <point x="293" y="710" type="curve" smooth="yes"/>
    </contour>
    <contour>
      <point x="396" y="710" type="line" smooth="yes"/>
      <point x="377" y="710"/>
      <point x="364" y="696"/>
      <point x="362" y="674" type="curve" smooth="yes"/>
      <point x="339" y="440" type="line" smooth="yes"/>
      <point x="337" y="424"/>
      <point x="341" y="408"/>
      <point x="367" y="408" type="curve" smooth="yes"/>
      <point x="449" y="408" type="line" smooth="yes"/>
      <point x="475" y="408"/>
      <point x="486" y="424"/>
      <point x="491" y="440" type="curve" smooth="yes"/>
      <point x="568" y="674" type="line" smooth="yes"/>
      <point x="575" y="696"/>
      <point x="567" y="710"/>
      <point x="548" y="710" type="curve" smooth="yes"/>
    </contour>
  </outline>
</glyph>
<glyph name="numbersign" format="1">
  <advance width="678"/>
  <unicode hex="0023"/>
  <outline>
    <contour>
      <point x="588" y="304" type="curve" name="hr00"/>
      <point x="529" y="304" type="line"/>
      <point x="560" y="390" type="line"/>
      <point x="632" y="390" type="line"/>
      <point x="646" y="390"/>
      <point x="660" y="401"/>
      <point x="663" y="415" type="curve"/>
      <point x="688" y="533" type="line"/>
      <point x="691" y="547"/>
      <point x="682" y="558"/>
      <point x="668" y="558" type="curve"/>
      <point x="621" y="558" type="line"/>
      <point x="648" y="633" type="line"/>
      <point x="652" y="645"/>
      <point x="643" y="655"/>
      <point x="631" y="655" type="curve"/>
      <point x="515" y="655" type="line"/>
      <point x="502" y="655"/>
      <point x="491" y="645"/>
      <point x="486" y="634" type="curve"/>
      <point x="458" y="558" type="line"/>
      <point x="394" y="558" type="line"/>
      <point x="421" y="633" type="line" smooth="yes"/>
      <point x="425" y="645"/>
      <point x="416" y="655"/>
      <point x="404" y="655" type="curve"/>
      <point x="288" y="655" type="line"/>
      <point x="275" y="655"/>
      <point x="264" y="645"/>
      <point x="259" y="634" type="curve"/>
      <point x="231" y="558" type="line"/>
      <point x="147" y="558" type="line"/>
      <point x="133" y="558"/>
      <point x="120" y="547"/>
      <point x="117" y="533" type="curve"/>
      <point x="92" y="415" type="line"/>
      <point x="89" y="401"/>
      <point x="97" y="390"/>
      <point x="111" y="390" type="curve"/>
      <point x="170" y="390" type="line"/>
      <point x="139" y="304" type="line"/>
      <point x="67" y="304" type="line"/>
      <point x="53" y="304"/>
      <point x="40" y="293"/>
      <point x="37" y="279" type="curve"/>
      <point x="12" y="161" type="line"/>
      <point x="9" y="147"/>
      <point x="17" y="136"/>
      <point x="31" y="136" type="curve"/>
      <point x="78" y="136" type="line"/>
      <point x="51" y="61" type="line" smooth="yes"/>
      <point x="47" y="50"/>
      <point x="57" y="39"/>
      <point x="69" y="39" type="curve"/>
      <point x="185" y="39" type="line"/>
      <point x="198" y="39"/>
      <point x="210" y="48"/>
      <point x="214" y="60" type="curve"/>
      <point x="241" y="136" type="line"/>
      <point x="305" y="136" type="line"/>
      <point x="278" y="61" type="line"/>
      <point x="274" y="50"/>
      <point x="284" y="39"/>
      <point x="296" y="39" type="curve"/>
      <point x="412" y="39" type="line"/>
      <point x="425" y="39"/>
      <point x="437" y="48"/>
      <point x="441" y="60" type="curve"/>
      <point x="468" y="136" type="line"/>
      <point x="552" y="136" type="line"/>
      <point x="566" y="136"/>
      <point x="580" y="147"/>
      <point x="583" y="161" type="curve"/>
      <point x="608" y="279" type="line"/>
      <point x="611" y="293"/>
      <point x="602" y="304"/>
    </contour>
    <contour>
      <point x="333" y="390" type="line"/>
      <point x="397" y="390" type="line"/>
      <point x="366" y="304" type="line"/>
      <point x="302" y="304" type="line"/>
    </contour>
  </outline>
</glyph>
<glyph name="percent" format="1">
  <advance width="885"/>
  <unicode hex="0025"/>
  <outline>
    <contour>
      <point x="410" y="569" type="curve" smooth="yes"/>
      <point x="422" y="650"/>
      <point x="354" y="705"/>
      <point x="266" y="705" type="curve" smooth="yes"/>
      <point x="158" y="705"/>
      <point x="110" y="658"/>
      <point x="88" y="577" type="curve" smooth="yes"/>
      <point x="78" y="540"/>
      <point x="71" y="514"/>
      <point x="67" y="480" type="curve" smooth="yes"/>
      <point x="56" y="400"/>
      <point x="126" y="345"/>
      <point x="209" y="345" type="curve" smooth="yes"/>
      <point x="312" y="345"/>
      <point x="366" y="392"/>
      <point x="389" y="472" type="curve" smooth="yes"/>
      <point x="399" y="506"/>
      <point x="404" y="532"/>
    </contour>
    <contour>
      <point x="204" y="483" type="curve"/>
      <point x="207" y="510"/>
      <point x="214" y="541"/>
      <point x="221" y="566" type="curve" smooth="yes"/>
      <point x="226" y="583"/>
      <point x="236" y="596"/>
      <point x="253" y="596" type="curve" smooth="yes"/>
      <point x="270" y="596"/>
      <point x="274" y="583"/>
      <point x="271" y="566" type="curve"/>
      <point x="268" y="541"/>
      <point x="261" y="510"/>
      <point x="254" y="483" type="curve" smooth="yes"/>
      <point x="249" y="466"/>
      <point x="239" y="453"/>
      <point x="222" y="453" type="curve" smooth="yes"/>
      <point x="205" y="453"/>
      <point x="201" y="466"/>
    </contour>
    <contour>
      <point x="841" y="219" type="curve" smooth="yes"/>
      <point x="853" y="300"/>
      <point x="785" y="355"/>
      <point x="697" y="355" type="curve" name="hr01" smooth="yes"/>
      <point x="589" y="355"/>
      <point x="541" y="308"/>
      <point x="519" y="227" type="curve" smooth="yes"/>
      <point x="509" y="190"/>
      <point x="502" y="164"/>
      <point x="498" y="130" type="curve" smooth="yes"/>
      <point x="487" y="50"/>
      <point x="557" y="-5"/>
      <point x="640" y="-5" type="curve" smooth="yes"/>
      <point x="743" y="-5"/>
      <point x="797" y="42"/>
      <point x="820" y="122" type="curve" smooth="yes"/>
      <point x="830" y="156"/>
      <point x="835" y="182"/>
    </contour>
    <contour>
      <point x="635" y="133" type="curve"/>
      <point x="638" y="160"/>
      <point x="645" y="191"/>
      <point x="652" y="216" type="curve" smooth="yes"/>
      <point x="657" y="233"/>
      <point x="667" y="246"/>
      <point x="684" y="246" type="curve" smooth="yes"/>
      <point x="701" y="246"/>
      <point x="705" y="233"/>
      <point x="702" y="216" type="curve"/>
      <point x="699" y="191"/>
      <point x="692" y="160"/>
      <point x="685" y="133" type="curve" smooth="yes"/>
      <point x="680" y="116"/>
      <point x="670" y="103"/>
      <point x="653" y="103" type="curve" smooth="yes"/>
      <point x="636" y="103"/>
      <point x="632" y="116"/>
    </contour>
    <contour>
      <point x="55" y="31" type="line" smooth="yes"/>
      <point x="41" y="17"/>
      <point x="49" y="0"/>
      <point x="69" y="0" type="curve" name="hr02" smooth="yes"/>
      <point x="177" y="0" type="line" smooth="yes"/>
      <point x="196" y="0"/>
      <point x="205" y="7"/>
      <point x="217" y="19" type="curve" smooth="yes"/>
      <point x="849" y="669" type="line" smooth="yes"/>
      <point x="863" y="683"/>
      <point x="855" y="700"/>
      <point x="835" y="700" type="curve" smooth="yes"/>
      <point x="727" y="700" type="line" smooth="yes"/>
      <point x="708" y="700"/>
      <point x="699" y="693"/>
      <point x="687" y="681" type="curve" smooth="yes"/>
    </contour>
  </outline>
</glyph>
<glyph name="ampersand" format="1">
  <advance width="773"/>
  <unicode hex="0026"/>
  <outline>
    <contour>
      <point x="413" y="710" type="curve" smooth="yes"/>
      <point x="555" y="710"/>
      <point x="638" y="610"/>
      <point x="619" y="518" type="curve" smooth="yes"/>
      <point x="603" y="443"/>
      <point x="560" y="394"/>
      <point x="465" y="345" type="curve"/>
      <point x="516" y="274" type="line"/>
      <point x="516" y="274"/>
      <point x="546" y="300"/>
      <point x="582" y="356" type="curve" smooth="yes"/>
      <point x="585" y="361"/>
      <point x="593" y="366"/>
      <point x="604" y="366" type="curve" smooth="yes"/>
      <point x="755" y="366" type="line" smooth="yes"/>
      <point x="765" y="366"/>
      <point x="772" y="358"/>
      <point x="769" y="348" type="curve"/>
      <point x="760" y="305"/>
      <point x="664" y="185"/>
      <point x="609" y="146" type="curve"/>
      <point x="692" y="31" type="line" smooth="yes"/>
      <point x="702" y="18"/>
      <point x="689" y="0"/>
      <point x="674" y="0" type="curve" smooth="yes"/>
      <point x="490" y="0" type="line" smooth="yes"/>
      <point x="476" y="0"/>
      <point x="470" y="5"/>
      <point x="467" y="10" type="curve" smooth="yes"/>
      <point x="450" y="34" type="line"/>
      <point x="397" y="2"/>
      <point x="350" y="-10"/>
      <point x="262" y="-10" type="curve" smooth="yes"/>
      <point x="100" y="-10"/>
      <point x="-18" y="69"/>
      <point x="11" y="206" type="curve" smooth="yes"/>
      <point x="28" y="287"/>
      <point x="94" y="343"/>
      <point x="191" y="391" type="curve"/>
      <point x="158" y="436"/>
      <point x="144" y="489"/>
      <point x="153" y="531" type="curve" name="hr01" smooth="yes"/>
      <point x="173" y="628"/>
      <point x="252" y="710"/>
    </contour>
    <contour>
      <point x="278" y="157" type="curve" smooth="yes"/>
      <point x="304" y="157"/>
      <point x="336" y="161"/>
      <point x="352" y="170" type="curve"/>
      <point x="292" y="253" type="line"/>
      <point x="273" y="245"/>
      <point x="235" y="224"/>
      <point x="231" y="204" type="curve" smooth="yes"/>
      <point x="224" y="172"/>
      <point x="250" y="157"/>
    </contour>
    <contour>
      <point x="400" y="557" type="curve" smooth="yes"/>
      <point x="381" y="557"/>
      <point x="360" y="542"/>
      <point x="355" y="520" type="curve" smooth="yes"/>
      <point x="352" y="506"/>
      <point x="358" y="488"/>
      <point x="372" y="472" type="curve"/>
      <point x="404" y="485"/>
      <point x="425" y="500"/>
      <point x="429" y="521" type="curve" smooth="yes"/>
      <point x="434" y="542"/>
      <point x="422" y="557"/>
    </contour>
  </outline>
</glyph>
<glyph name="quotesingle" format="1">
  <advance width="262"/>
  <unicode hex="0027"/>
  <outline>
    <contour>
      <point x="141" y="710" type="line" name="hr00" smooth="yes"/>
      <point x="122" y="710"/>
      <point x="109" y="696"/>
      <point x="107" y="674" type="curve" smooth="yes"/>
      <point x="84" y="440" type="line" smooth="yes"/>
      <point x="82" y="424"/>
      <point x="86" y="408"/>
      <point x="112" y="408" type="curve" smooth="yes"/>
      <point x="194" y="408" type="line" smooth="yes"/>
      <point x="220" y="408"/>
      <point x="231" y="424"/>
      <point x="236" y="440" type="curve" smooth="yes"/>
      <point x="313" y="674" type="line" smooth="yes"/>
      <point x="320" y="696"/>
      <point x="312" y="710"/>
      <point x="293" y="710" type="curve" smooth="yes"/>
    </contour>
  </outline>
</glyph>
<glyph name="parenleft" format="1">
  <advance width="423"/>
  <unicode hex="0028"/>
  <outline>
    <contour>
      <point x="32" y="309" type="curve" name="hr00" smooth="yes"/>
      <point x="-40" y="-31"/>
      <point x="136" y="-159"/>
      <point x="278" y="-159" type="curve" smooth="yes"/>
      <point x="293" y="-159"/>
      <point x="307" y="-147"/>
      <point x="310" y="-132" type="curve" smooth="yes"/>
      <point x="337" y="-5" type="line" smooth="yes"/>
      <point x="341" y="10"/>
      <point x="331" y="21"/>
      <point x="316" y="22" type="curve" smooth="yes"/>
      <point x="210" y="32"/>
      <point x="213" y="165"/>
      <point x="243" y="309" type="curve" smooth="yes"/>
      <point x="274" y="453"/>
      <point x="328" y="585"/>
      <point x="438" y="595" type="curve" smooth="yes"/>
      <point x="453" y="596"/>
      <point x="468" y="607"/>
      <point x="471" y="622" type="curve" smooth="yes"/>
      <point x="498" y="749" type="line" smooth="yes"/>
      <point x="501" y="764"/>
      <point x="491" y="776"/>
      <point x="476" y="776" type="curve" smooth="yes"/>
      <point x="234" y="776"/>
      <point x="104" y="649"/>
    </contour>
  </outline>
</glyph>
<glyph name="parenright" format="1">
  <advance width="422"/>
  <unicode hex="0029"/>
  <outline>
    <contour>
      <point x="396" y="309" type="curve" name="hr00" smooth="yes"/>
      <point x="468" y="649"/>
      <point x="292" y="776"/>
      <point x="150" y="776" type="curve" smooth="yes"/>
      <point x="135" y="776"/>
      <point x="121" y="764"/>
      <point x="118" y="749" type="curve" smooth="yes"/>
      <point x="91" y="622" type="line" smooth="yes"/>
      <point x="88" y="607"/>
      <point x="97" y="596"/>
      <point x="112" y="595" type="curve" smooth="yes"/>
      <point x="218" y="585"/>
      <point x="216" y="453"/>
      <point x="185" y="309" type="curve" smooth="yes"/>
      <point x="155" y="165"/>
      <point x="100" y="32"/>
      <point x="-10" y="22" type="curve" smooth="yes"/>
      <point x="-25" y="21"/>
      <point x="-39" y="10"/>
      <point x="-43" y="-5" type="curve" smooth="yes"/>
      <point x="-70" y="-132" type="line" smooth="yes"/>
      <point x="-72" y="-147"/>
      <point x="-63" y="-159"/>
      <point x="-48" y="-159" type="curve" smooth="yes"/>
      <point x="214" y="-159"/>
      <point x="324" y="-31"/>
    </contour>
  </outline>
</glyph>
<glyph name="asterisk" format="1">
  <advance width="444"/>
  <unicode hex="002A"/>
  <outline>
    <contour>
      <point x="388" y="700" type="line" name="hr00"/>
      <point x="394" y="712"/>
      <point x="391" y="730"/>
      <point x="374" y="730" type="curve" smooth="yes"/>
      <point x="254" y="730" type="line" smooth="yes"/>
      <point x="238" y="730"/>
      <point x="225" y="714"/>
      <point x="226" y="700" type="curve"/>
      <point x="232" y="631" type="line"/>
      <point x="181" y="672" type="line" smooth="yes"/>
      <point x="171" y="680"/>
      <point x="151" y="675"/>
      <point x="144" y="661" type="curve" smooth="yes"/>
      <point x="82" y="547" type="line"/>
      <point x="74" y="532"/>
      <point x="83" y="517"/>
      <point x="97" y="517" type="curve"/>
      <point x="170" y="515" type="line"/>
      <point x="103" y="471" type="line" smooth="yes"/>
      <point x="91" y="463"/>
      <point x="83" y="446"/>
      <point x="95" y="435" type="curve"/>
      <point x="176" y="363" type="line"/>
      <point x="189" y="352"/>
      <point x="208" y="364"/>
      <point x="214" y="375" type="curve"/>
      <point x="253" y="444" type="line"/>
      <point x="262" y="375" type="line" smooth="yes"/>
      <point x="264" y="357"/>
      <point x="284" y="355"/>
      <point x="296" y="363" type="curve"/>
      <point x="407" y="435" type="line"/>
      <point x="421" y="444"/>
      <point x="425" y="462"/>
      <point x="415" y="471" type="curve" smooth="yes"/>
      <point x="366" y="515" type="line"/>
      <point x="439" y="517" type="line"/>
      <point x="454" y="517"/>
      <point x="470" y="531"/>
      <point x="468" y="547" type="curve" smooth="yes"/>
      <point x="454" y="661" type="line" smooth="yes"/>
      <point x="452" y="678"/>
      <point x="433" y="679"/>
      <point x="421" y="672" type="curve" smooth="yes"/>
      <point x="353" y="631" type="line"/>
    </contour>
  </outline>
</glyph>
<glyph name="plus" format="1">
  <advance width="591"/>
  <unicode hex="002B"/>
  <outline>
    <contour>
      <point x="158" y="60" type="line" name="hr00" smooth="yes"/>
      <point x="155" y="45"/>
      <point x="165" y="33"/>
      <point x="180" y="33" type="curve" smooth="yes"/>
      <point x="302" y="33" type="line" smooth="yes"/>
      <point x="317" y="33"/>
      <point x="331" y="45"/>
      <point x="334" y="60" type="curve" smooth="yes"/>
      <point x="368" y="221" type="line"/>
      <point x="521" y="221" type="line" smooth="yes"/>
      <point x="536" y="221"/>
      <point x="551" y="233"/>
      <point x="554" y="248" type="curve" smooth="yes"/>
      <point x="577" y="357" type="line" smooth="yes"/>
      <point x="581" y="372"/>
      <point x="571" y="384"/>
      <point x="556" y="384" type="curve" smooth="yes"/>
      <point x="403" y="384" type="line"/>
      <point x="436" y="540" type="line" smooth="yes"/>
      <point x="439" y="555"/>
      <point x="430" y="567"/>
      <point x="415" y="567" type="curve" smooth="yes"/>
      <point x="293" y="567" type="line" smooth="yes"/>
      <point x="278" y="567"/>
      <point x="263" y="555"/>
      <point x="260" y="540" type="curve" smooth="yes"/>
      <point x="227" y="384" type="line"/>
      <point x="72" y="384" type="line" smooth="yes"/>
      <point x="57" y="384"/>
      <point x="43" y="372"/>
      <point x="39" y="357" type="curve" smooth="yes"/>
      <point x="16" y="248" type="line" smooth="yes"/>
      <point x="13" y="233"/>
      <point x="22" y="221"/>
      <point x="37" y="221" type="curve" smooth="yes"/>
      <point x="192" y="221" type="line"/>
    </contour>
  </outline>
</glyph>
<glyph name="hyphen" format="1">
  <advance width="469"/>
  <unicode hex="002D"/>
  <outline>
    <contour>
      <point x="93" y="398" type="line" name="hr00" smooth="yes"/>
      <point x="78" y="398"/>
      <point x="64" y="386"/>
      <point x="60" y="371" type="curve" smooth="yes"/>
      <point x="30" y="229" type="line" smooth="yes"/>
      <point x="27" y="214"/>
      <point x="36" y="202"/>
      <point x="51" y="202" type="curve" smooth="yes"/>
      <point x="376" y="202" type="line" smooth="yes"/>
      <point x="391" y="202"/>
      <point x="406" y="214"/>
      <point x="409" y="229" type="curve" smooth="yes"/>
      <point x="439" y="371" type="line" smooth="yes"/>
      <point x="443" y="386"/>
      <point x="433" y="398"/>
      <point x="418" y="398" type="curve" smooth="yes"/>
    </contour>
  </outline>
</glyph>
<glyph name="period" format="1">
  <advance width="310"/>
  <unicode hex="002E"/>
  <outline>
    <contour>
      <point x="55" y="228" type="line" name="hr00" smooth="yes"/>
      <point x="40" y="228"/>
      <point x="25" y="216"/>
      <point x="22" y="201" type="curve" smooth="yes"/>
      <point x="-15" y="27" type="line" smooth="yes"/>
      <point x="-18" y="12"/>
      <point x="-8" y="0"/>
      <point x="7" y="0" type="curve" smooth="yes"/>
      <point x="181" y="0" type="line" smooth="yes"/>
      <point x="196" y="0"/>
      <point x="210" y="12"/>
      <point x="213" y="27" type="curve" smooth="yes"/>
      <point x="250" y="201" type="line" smooth="yes"/>
      <point x="253" y="216"/>
      <point x="244" y="228"/>
      <point x="229" y="228" type="curve" smooth="yes"/>
    </contour>
  </outline>
</glyph>
<glyph name="slash" format="1">
  <advance width="584"/>
  <unicode hex="002F"/>
  <outline>
    <contour>
      <point x="-50" y="-53" type="line" name="hr00" smooth="yes"/>
      <point x="-59" y="-67"/>
      <point x="-52" y="-84"/>
      <point x="-36" y="-84" type="curve" smooth="yes"/>
      <point x="98" y="-84" type="line" smooth="yes"/>
      <point x="125" y="-84"/>
      <point x="140" y="-67"/>
      <point x="148" y="-54" type="curve" smooth="yes"/>
      <point x="658" y="755" type="line" smooth="yes"/>
      <point x="666" y="768"/>
      <point x="666" y="786"/>
      <point x="645" y="786" type="curve" smooth="yes"/>
      <point x="508" y="786" type="line" smooth="yes"/>
      <point x="483" y="786"/>
      <point x="466" y="770"/>
      <point x="457" y="756" type="curve" smooth="yes"/>
    </contour>
  </outline>
</glyph>
<glyph name="one" format="1">
  <advance width="554"/>
  <unicode hex="0031"/>
  <outline>
    <contour>
      <point x="579" y="673" type="line" name="hr00" smooth="yes"/>
      <point x="582" y="688"/>
      <point x="572" y="700"/>
      <point x="557" y="700" type="curve" smooth="yes"/>
      <point x="368" y="700" type="line" smooth="yes"/>
      <point x="359" y="700"/>
      <point x="353" y="698"/>
      <point x="345" y="693" type="curve" smooth="yes"/>
      <point x="64" y="506" type="line"/>
      <point x="49" y="498"/>
      <point x="43" y="480"/>
      <point x="47" y="467" type="curve"/>
      <point x="116" y="344" type="line" smooth="yes"/>
      <point x="123" y="331"/>
      <point x="137" y="326"/>
      <point x="152" y="336" type="curve" smooth="yes"/>
      <point x="275" y="417" type="line"/>
      <point x="191" y="27" type="line" smooth="yes"/>
      <point x="188" y="12"/>
      <point x="198" y="0"/>
      <point x="213" y="0" type="curve" smooth="yes"/>
      <point x="409" y="0" type="line" smooth="yes"/>
      <point x="424" y="0"/>
      <point x="438" y="12"/>
      <point x="441" y="27" type="curve" smooth="yes"/>
    </contour>
  </outline>
</glyph>
<glyph name="two" format="1">
  <advance width="703"/>
  <unicode hex="0032"/>
  <outline>
    <contour>
      <point x="408" y="206" type="line" name="hr00"/>
      <point x="561" y="297"/>
      <point x="668" y="377"/>
      <point x="692" y="490" type="curve" smooth="yes"/>
      <point x="722" y="632"/>
      <point x="592" y="714"/>
      <point x="420" y="714" type="curve" smooth="yes"/>
      <point x="238" y="714"/>
      <point x="118" y="616"/>
      <point x="83" y="465" type="curve" smooth="yes"/>
      <point x="81" y="453"/>
      <point x="89" y="443"/>
      <point x="101" y="443" type="curve" smooth="yes"/>
      <point x="289" y="443" type="line" smooth="yes"/>
      <point x="307" y="443"/>
      <point x="323" y="447"/>
      <point x="334" y="466" type="curve" smooth="yes"/>
      <point x="343" y="482"/>
      <point x="358" y="517"/>
      <point x="399" y="517" type="curve" smooth="yes"/>
      <point x="434" y="517"/>
      <point x="431" y="496"/>
      <point x="427" y="477" type="curve" smooth="yes"/>
      <point x="414" y="417"/>
      <point x="286" y="341"/>
      <point x="37" y="185" type="curve" smooth="yes"/>
      <point x="8" y="167"/>
      <point x="2" y="139"/>
      <point x="0" y="131" type="curve" smooth="yes"/>
      <point x="-22" y="27" type="line" smooth="yes"/>
      <point x="-25" y="12"/>
      <point x="-15" y="0"/>
      <point x="0" y="0" type="curve" smooth="yes"/>
      <point x="576" y="0" type="line" smooth="yes"/>
      <point x="591" y="0"/>
      <point x="605" y="12"/>
      <point x="608" y="27" type="curve" smooth="yes"/>
      <point x="641" y="179" type="line" smooth="yes"/>
      <point x="644" y="194"/>
      <point x="634" y="206"/>
      <point x="619" y="206" type="curve" smooth="yes"/>
    </contour>
  </outline>
</glyph>
<glyph name="three" format="1">
  <advance width="706"/>
  <unicode hex="0033"/>
  <outline>
    <contour>
      <point x="654" y="506" type="line" smooth="yes"/>
      <point x="666" y="513"/>
      <point x="679" y="527"/>
      <point x="683" y="546" type="curve" smooth="yes"/>
      <point x="710" y="673" type="line" smooth="yes"/>
      <point x="713" y="688"/>
      <point x="703" y="700"/>
      <point x="688" y="700" type="curve" smooth="yes"/>
      <point x="176" y="700" type="line" smooth="yes"/>
      <point x="161" y="700"/>
      <point x="147" y="688"/>
      <point x="144" y="673" type="curve" smooth="yes"/>
      <point x="114" y="532" type="line" smooth="yes"/>
      <point x="110" y="517"/>
      <point x="120" y="505"/>
      <point x="135" y="505" type="curve" smooth="yes"/>
      <point x="388" y="505" type="line"/>
      <point x="243" y="429" type="line" smooth="yes"/>
      <point x="231" y="423"/>
      <point x="218" y="409"/>
      <point x="214" y="389" type="curve" smooth="yes"/>
      <point x="197" y="308" type="line" smooth="yes"/>
      <point x="194" y="293"/>
      <point x="203" y="281"/>
      <point x="218" y="281" type="curve" smooth="yes"/>
      <point x="343" y="281" type="line" smooth="yes"/>
      <point x="387" y="281"/>
      <point x="406" y="267"/>
      <point x="400" y="237" type="curve" smooth="yes"/>
      <point x="394" y="208"/>
      <point x="370" y="184"/>
      <point x="323" y="184" type="curve" smooth="yes"/>
      <point x="281" y="184"/>
      <point x="267" y="193"/>
      <point x="258" y="204" type="curve" smooth="yes"/>
      <point x="251" y="213"/>
      <point x="245" y="220"/>
      <point x="227" y="220" type="curve" name="hr01" smooth="yes"/>
      <point x="26" y="220" type="line" smooth="yes"/>
      <point x="14" y="220"/>
      <point x="2" y="210"/>
      <point x="0" y="198" type="curve" smooth="yes"/>
      <point x="-14" y="119"/>
      <point x="69" y="-10"/>
      <point x="300" y="-10" type="curve" smooth="yes"/>
      <point x="499" y="-10"/>
      <point x="624" y="70"/>
      <point x="653" y="209" type="curve" smooth="yes"/>
      <point x="680" y="335"/>
      <point x="615" y="401"/>
      <point x="520" y="426" type="curve"/>
    </contour>
  </outline>
</glyph>
<glyph name="four" format="1">
  <advance width="754"/>
  <unicode hex="0034"/>
  <outline>
    <contour>
      <point x="616" y="315" type="line" name="hr00"/>
      <point x="693" y="673" type="line" smooth="yes"/>
      <point x="696" y="688"/>
      <point x="686" y="700"/>
      <point x="671" y="700" type="curve" smooth="yes"/>
      <point x="443" y="700" type="line" smooth="yes"/>
      <point x="427" y="700"/>
      <point x="413" y="693"/>
      <point x="403" y="683" type="curve" smooth="yes"/>
      <point x="41" y="313" type="line" smooth="yes"/>
      <point x="36" y="308"/>
      <point x="27" y="299"/>
      <point x="23" y="282" type="curve" smooth="yes"/>
      <point x="-7" y="139" type="line" smooth="yes"/>
      <point x="-10" y="124"/>
      <point x="-1" y="112"/>
      <point x="14" y="112" type="curve" smooth="yes"/>
      <point x="333" y="112" type="line"/>
      <point x="315" y="27" type="line" smooth="yes"/>
      <point x="312" y="12"/>
      <point x="322" y="0"/>
      <point x="337" y="0" type="curve" smooth="yes"/>
      <point x="523" y="0" type="line" smooth="yes"/>
      <point x="538" y="0"/>
      <point x="552" y="12"/>
      <point x="555" y="27" type="curve" smooth="yes"/>
      <point x="573" y="112" type="line"/>
      <point x="661" y="112" type="line" smooth="yes"/>
      <point x="676" y="112"/>
      <point x="691" y="124"/>
      <point x="694" y="139" type="curve" smooth="yes"/>
      <point x="726" y="288" type="line" smooth="yes"/>
      <point x="729" y="302"/>
      <point x="720" y="315"/>
      <point x="703" y="315" type="curve" smooth="yes"/>
    </contour>
    <contour>
      <point x="276" y="304" type="line"/>
      <point x="412" y="448" type="line"/>
      <point x="381" y="304" type="line"/>
    </contour>
  </outline>
</glyph>
<glyph name="five" format="1">
  <advance width="690"/>
  <unicode hex="0035"/>
  <outline>
    <contour>
      <point x="263" y="218" type="curve" smooth="yes"/>
      <point x="260" y="223"/>
      <point x="251" y="234"/>
      <point x="230" y="234" type="curve" smooth="yes"/>
      <point x="28" y="234" type="line" smooth="yes"/>
      <point x="16" y="234"/>
      <point x="4" y="224"/>
      <point x="2" y="212" type="curve" smooth="yes"/>
      <point x="-21" y="92"/>
      <point x="93" y="-12"/>
      <point x="295" y="-12" type="curve" smooth="yes"/>
      <point x="517" y="-12"/>
      <point x="619" y="93"/>
      <point x="647" y="226" type="curve" smooth="yes"/>
      <point x="675" y="359"/>
      <point x="576" y="468"/>
      <point x="453" y="468" type="curve" smooth="yes"/>
      <point x="387" y="468"/>
      <point x="354" y="459"/>
      <point x="312" y="434" type="curve"/>
      <point x="335" y="505" type="line"/>
      <point x="627" y="505" type="line" smooth="yes"/>
      <point x="642" y="505"/>
      <point x="656" y="517"/>
      <point x="660" y="532" type="curve" smooth="yes"/>
      <point x="690" y="673" type="line" smooth="yes"/>
      <point x="693" y="688"/>
      <point x="683" y="700"/>
      <point x="668" y="700" type="curve" smooth="yes"/>
      <point x="221" y="700" type="line" smooth="yes"/>
      <point x="202" y="700"/>
      <point x="183" y="689"/>
      <point x="175" y="666" type="curve" smooth="yes"/>
      <point x="59" y="309" type="line" smooth="yes"/>
      <point x="55" y="296"/>
      <point x="60" y="282"/>
      <point x="75" y="282" type="curve" smooth="yes"/>
      <point x="274" y="282" type="line" smooth="yes"/>
      <point x="291" y="282"/>
      <point x="302" y="306"/>
      <point x="344" y="306" type="curve" smooth="yes"/>
      <point x="383" y="306"/>
      <point x="398" y="276"/>
      <point x="392" y="245" type="curve" smooth="yes"/>
      <point x="383" y="204"/>
      <point x="349" y="183"/>
      <point x="317" y="183" type="curve" name="hr01" smooth="yes"/>
      <point x="284" y="183"/>
      <point x="276" y="195"/>
    </contour>
  </outline>
</glyph>
<glyph name="six" format="1">
  <advance width="694"/>
  <unicode hex="0036"/>
  <outline>
    <contour>
      <point x="618" y="665" type="line" name="hr00" smooth="yes"/>
      <point x="620" y="668"/>
      <point x="623" y="672"/>
      <point x="625" y="678" type="curve" smooth="yes"/>
      <point x="627" y="690"/>
      <point x="619" y="700"/>
      <point x="607" y="700" type="curve" smooth="yes"/>
      <point x="406" y="700" type="line" smooth="yes"/>
      <point x="384" y="700"/>
      <point x="370" y="687"/>
      <point x="363" y="680" type="curve" smooth="yes"/>
      <point x="155" y="467" type="line" smooth="yes"/>
      <point x="120" y="432"/>
      <point x="31" y="345"/>
      <point x="12" y="259" type="curve" smooth="yes"/>
      <point x="-23" y="94"/>
      <point x="128" y="-10"/>
      <point x="306" y="-10" type="curve" smooth="yes"/>
      <point x="504" y="-10"/>
      <point x="631" y="89"/>
      <point x="663" y="240" type="curve" smooth="yes"/>
      <point x="697" y="400"/>
      <point x="549" y="485"/>
      <point x="456" y="498" type="curve"/>
    </contour>
    <contour>
      <point x="408" y="250" type="curve" smooth="yes"/>
      <point x="399" y="208"/>
      <point x="363" y="185"/>
      <point x="325" y="185" type="curve" smooth="yes"/>
      <point x="287" y="185"/>
      <point x="261" y="208"/>
      <point x="270" y="250" type="curve" smooth="yes"/>
      <point x="279" y="292"/>
      <point x="313" y="315"/>
      <point x="352" y="315" type="curve" smooth="yes"/>
      <point x="391" y="315"/>
      <point x="417" y="292"/>
    </contour>
  </outline>
</glyph>
<glyph name="seven" format="1">
  <advance width="624"/>
  <unicode hex="0037"/>
  <outline>
    <contour>
      <point x="139" y="700" type="line" name="hr00" smooth="yes"/>
      <point x="124" y="700"/>
      <point x="110" y="688"/>
      <point x="107" y="673" type="curve" smooth="yes"/>
      <point x="74" y="522" type="line" smooth="yes"/>
      <point x="71" y="507"/>
      <point x="81" y="495"/>
      <point x="96" y="495" type="curve" smooth="yes"/>
      <point x="361" y="495" type="line"/>
      <point x="46" y="31" type="line"/>
      <point x="36" y="13"/>
      <point x="41" y="0"/>
      <point x="60" y="0" type="curve" smooth="yes"/>
      <point x="263" y="0" type="line" smooth="yes"/>
      <point x="288" y="0"/>
      <point x="303" y="16"/>
      <point x="308" y="23" type="curve" smooth="yes"/>
      <point x="626" y="490" type="line" smooth="yes"/>
      <point x="634" y="503"/>
      <point x="645" y="518"/>
      <point x="649" y="541" type="curve"/>
      <point x="678" y="673" type="line" smooth="yes"/>
      <point x="681" y="688"/>
      <point x="672" y="700"/>
      <point x="656" y="700" type="curve" smooth="yes"/>
    </contour>
  </outline>
</glyph>
<glyph name="nine" format="1">
  <advance width="678"/>
  <unicode hex="0039"/>
  <outline>
    <contour>
      <point x="82" y="35" type="line" name="hr00" smooth="yes"/>
      <point x="79" y="32"/>
      <point x="76" y="28"/>
      <point x="75" y="22" type="curve" smooth="yes"/>
      <point x="73" y="10"/>
      <point x="81" y="0"/>
      <point x="93" y="0" type="curve" smooth="yes"/>
      <point x="294" y="0" type="line" smooth="yes"/>
      <point x="316" y="0"/>
      <point x="330" y="13"/>
      <point x="337" y="20" type="curve" smooth="yes"/>
      <point x="506" y="196" type="line"/>
      <point x="588" y="285"/>
      <point x="671" y="352"/>
      <point x="692" y="451" type="curve" smooth="yes"/>
      <point x="724" y="600"/>
      <point x="600" y="710"/>
      <point x="402" y="710" type="curve" smooth="yes"/>
      <point x="204" y="710"/>
      <point x="85" y="595"/>
      <point x="56" y="459" type="curve" smooth="yes"/>
      <point x="22" y="299"/>
      <point x="161" y="226"/>
      <point x="250" y="210" type="curve"/>
    </contour>
    <contour>
      <point x="306" y="450" type="curve" smooth="yes"/>
      <point x="315" y="492"/>
      <point x="346" y="515"/>
      <point x="384" y="515" type="curve" smooth="yes"/>
      <point x="422" y="515"/>
      <point x="443" y="492"/>
      <point x="434" y="450" type="curve" smooth="yes"/>
      <point x="425" y="408"/>
      <point x="395" y="385"/>
      <point x="356" y="385" type="curve" smooth="yes"/>
      <point x="317" y="385"/>
      <point x="297" y="408"/>
    </contour>
  </outline>
</glyph>
<glyph name="colon" format="1">
  <advance width="322"/>
  <unicode hex="003A"/>
  <outline>
    <contour>
      <point x="58" y="218" type="line" name="hr00" smooth="yes"/>
      <point x="43" y="218"/>
      <point x="28" y="206"/>
      <point x="25" y="191" type="curve" smooth="yes"/>
      <point x="-10" y="27" type="line" smooth="yes"/>
      <point x="-13" y="12"/>
      <point x="-3" y="0"/>
      <point x="12" y="0" type="curve" smooth="yes"/>
      <point x="186" y="0" type="line" smooth="yes"/>
      <point x="201" y="0"/>
      <point x="215" y="12"/>
      <point x="218" y="27" type="curve" smooth="yes"/>
      <point x="253" y="191" type="line" smooth="yes"/>
      <point x="256" y="206"/>
      <point x="247" y="218"/>
      <point x="232" y="218" type="curve" smooth="yes"/>
    </contour>
    <contour>
      <point x="132" y="568" type="line" smooth="yes"/>
      <point x="117" y="568"/>
      <point x="103" y="556"/>
      <point x="99" y="541" type="curve" smooth="yes"/>
      <point x="65" y="377" type="line" smooth="yes"/>
      <point x="61" y="362"/>
      <point x="71" y="350"/>
      <point x="86" y="350" type="curve" smooth="yes"/>
      <point x="260" y="350" type="line" smooth="yes"/>
      <point x="275" y="350"/>
      <point x="289" y="362"/>
      <point x="293" y="377" type="curve" smooth="yes"/>
      <point x="327" y="541" type="line" smooth="yes"/>
      <point x="331" y="556"/>
      <point x="321" y="568"/>
      <point x="306" y="568" type="curve" smooth="yes"/>
    </contour>
  </outline>
</glyph>
<glyph name="semicolon" format="1">
  <advance width="331"/>
  <unicode hex="003B"/>
  <outline>
    <contour>
      <point x="146" y="568" type="line" name="hr00" smooth="yes"/>
      <point x="131" y="568"/>
      <point x="117" y="556"/>
      <point x="113" y="541" type="curve"/>
      <point x="79" y="377" type="line"/>
      <point x="75" y="362"/>
      <point x="85" y="350"/>
      <point x="100" y="350" type="curve" smooth="yes"/>
      <point x="274" y="350" type="line" smooth="yes"/>
      <point x="289" y="350"/>
      <point x="303" y="362"/>
      <point x="307" y="377" type="curve"/>
      <point x="341" y="541" type="line"/>
      <point x="345" y="556"/>
      <point x="335" y="568"/>
      <point x="320" y="568" type="curve" smooth="yes"/>
    </contour>
    <contour>
      <point x="-54" y="-51" type="line" smooth="yes"/>
      <point x="-58" y="-63"/>
      <point x="-48" y="-75"/>
      <point x="-37" y="-75" type="curve" smooth="yes"/>
      <point x="74" y="-75" type="line" smooth="yes"/>
      <point x="100" y="-75"/>
      <point x="115" y="-56"/>
      <point x="123" y="-43" type="curve" smooth="yes"/>
      <point x="270" y="199" type="line" smooth="yes"/>
      <point x="277" y="211"/>
      <point x="272" y="228"/>
      <point x="255" y="228" type="curve" smooth="yes"/>
      <point x="85" y="228" type="line" smooth="yes"/>
      <point x="58" y="228"/>
      <point x="41" y="207"/>
      <point x="34" y="189" type="curve" smooth="yes"/>
    </contour>
  </outline>
</glyph>
<glyph name="less" format="1">
  <advance width="539"/>
  <unicode hex="003C"/>
  <outline>
    <contour>
      <point x="40" y="371" type="line" name="hr00" smooth="yes"/>
      <point x="45" y="392"/>
      <point x="58" y="401"/>
      <point x="78" y="413" type="curve" smooth="yes"/>
      <point x="536" y="683" type="line" smooth="yes"/>
      <point x="541" y="686"/>
      <point x="545" y="686"/>
      <point x="547" y="686" type="curve" smooth="yes"/>
      <point x="559" y="686"/>
      <point x="566" y="677"/>
      <point x="564" y="665" type="curve" smooth="yes"/>
      <point x="526" y="489" type="line" smooth="yes"/>
      <point x="522" y="469"/>
      <point x="498" y="453"/>
      <point x="485" y="445" type="curve" smooth="yes"/>
      <point x="292" y="333" type="line"/>
      <point x="438" y="217" type="line" smooth="yes"/>
      <point x="448" y="209"/>
      <point x="464" y="195"/>
      <point x="460" y="174" type="curve" smooth="yes"/>
      <point x="430" y="35" type="line" smooth="yes"/>
      <point x="427" y="23"/>
      <point x="420" y="14"/>
      <point x="408" y="14" type="curve" smooth="yes"/>
      <point x="404" y="14"/>
      <point x="398" y="14"/>
      <point x="394" y="17" type="curve" smooth="yes"/>
      <point x="52" y="287" type="line" smooth="yes"/>
      <point x="36" y="299"/>
      <point x="27" y="308"/>
      <point x="31" y="329" type="curve" smooth="yes"/>
    </contour>
  </outline>
</glyph>
<glyph name="question" format="1">
  <advance width="655"/>
  <unicode hex="003F"/>
  <outline>
    <contour>
      <point x="415" y="710" type="curve" name="hr00" smooth="yes"/>
      <point x="183" y="710"/>
      <point x="89" y="585"/>
      <point x="64" y="484" type="curve"/>
      <point x="61" y="469"/>
      <point x="67" y="453"/>
      <point x="83" y="453" type="curve" smooth="yes"/>
      <point x="269" y="453" type="line" smooth="yes"/>
      <point x="320" y="453"/>
      <point x="305" y="515"/>
      <point x="376" y="515" type="curve" smooth="yes"/>
      <point x="396" y="515"/>
      <point x="407" y="503"/>
      <point x="403" y="483" type="curve" smooth="yes"/>
      <point x="393" y="435"/>
      <point x="245" y="374"/>
      <point x="205" y="279" type="curve" smooth="yes"/>
      <point x="204" y="276"/>
      <point x="203" y="274"/>
      <point x="202" y="271" type="curve" smooth="yes"/>
      <point x="200" y="262"/>
      <point x="207" y="253"/>
      <point x="217" y="253" type="curve" smooth="yes"/>
      <point x="431" y="253" type="line" smooth="yes"/>
      <point x="448" y="253"/>
      <point x="455" y="262"/>
      <point x="473" y="282" type="curve" smooth="yes"/>
      <point x="534" y="348"/>
      <point x="651" y="399"/>
      <point x="676" y="514" type="curve" smooth="yes"/>
      <point x="689" y="578"/>
      <point x="636" y="710"/>
    </contour>
    <contour>
      <point x="219" y="213" type="line" smooth="yes"/>
      <point x="204" y="213"/>
      <point x="189" y="201"/>
      <point x="186" y="186" type="curve" smooth="yes"/>
      <point x="152" y="27" type="line" smooth="yes"/>
      <point x="149" y="12"/>
      <point x="159" y="0"/>
      <point x="174" y="0" type="curve" smooth="yes"/>
      <point x="357" y="0" type="line" smooth="yes"/>
      <point x="372" y="0"/>
      <point x="386" y="12"/>
      <point x="389" y="27" type="curve" smooth="yes"/>
      <point x="423" y="186" type="line" smooth="yes"/>
      <point x="426" y="201"/>
      <point x="417" y="213"/>
      <point x="402" y="213" type="curve" smooth="yes"/>
    </contour>
  </outline>
</glyph>
<glyph name="at" format="1">
  <advance width="868"/>
  <unicode hex="0040"/>
  <outline>
    <contour>
      <point x="811" y="234" type="curve" smooth="yes"/>
      <point x="821" y="270"/>
      <point x="833" y="322"/>
      <point x="837" y="356" type="curve" smooth="yes"/>
      <point x="860" y="532"/>
      <point x="779" y="684"/>
      <point x="486" y="684" type="curve" smooth="yes"/>
      <point x="224" y="684"/>
      <point x="99" y="512"/>
      <point x="53" y="356" type="curve" smooth="yes"/>
      <point x="43" y="321"/>
      <point x="22" y="222"/>
      <point x="17" y="185" type="curve" smooth="yes"/>
      <point x="-6" y="6"/>
      <point x="110" y="-141"/>
      <point x="371" y="-141" type="curve" smooth="yes"/>
      <point x="581" y="-141"/>
      <point x="653" y="-73"/>
      <point x="729" y="-5" type="curve"/>
      <point x="746" y="11"/>
      <point x="734" y="38"/>
      <point x="709" y="38" type="curve" smooth="yes"/>
      <point x="611" y="38" type="line" smooth="yes"/>
      <point x="597" y="38"/>
      <point x="589" y="34"/>
      <point x="572" y="23" type="curve" smooth="yes"/>
      <point x="531" y="-3"/>
      <point x="485" y="-20"/>
      <point x="376" y="-20" type="curve" name="hr01" smooth="yes"/>
      <point x="192" y="-20"/>
      <point x="130" y="59"/>
      <point x="144" y="190" type="curve" smooth="yes"/>
      <point x="148" y="228"/>
      <point x="167" y="316"/>
      <point x="178" y="351" type="curve" smooth="yes"/>
      <point x="218" y="471"/>
      <point x="306" y="563"/>
      <point x="480" y="563" type="curve" smooth="yes"/>
      <point x="685" y="563"/>
      <point x="736" y="499"/>
      <point x="711" y="351" type="curve" smooth="yes"/>
      <point x="706" y="317"/>
      <point x="698" y="285"/>
      <point x="690" y="249" type="curve" smooth="yes"/>
      <point x="684" y="219"/>
      <point x="667" y="200"/>
      <point x="637" y="200" type="curve" smooth="yes"/>
      <point x="608" y="200"/>
      <point x="597" y="218"/>
      <point x="604" y="250" type="curve" smooth="yes"/>
      <point x="645" y="443" type="line" smooth="yes"/>
      <point x="648" y="458"/>
      <point x="638" y="470"/>
      <point x="623" y="470" type="curve" smooth="yes"/>
      <point x="551" y="470" type="line" smooth="yes"/>
      <point x="536" y="470"/>
      <point x="522" y="458"/>
      <point x="519" y="443" type="curve" smooth="yes"/>
      <point x="517" y="434" type="line"/>
      <point x="501" y="463"/>
      <point x="477" y="478"/>
      <point x="417" y="478" type="curve" smooth="yes"/>
      <point x="318" y="478"/>
      <point x="256" y="395"/>
      <point x="231" y="273" type="curve" smooth="yes"/>
      <point x="205" y="151"/>
      <point x="265" y="69"/>
      <point x="355" y="69" type="curve" smooth="yes"/>
      <point x="438" y="69"/>
      <point x="470" y="101"/>
      <point x="489" y="125" type="curve"/>
      <point x="507" y="104"/>
      <point x="548" y="79"/>
      <point x="631" y="79" type="curve" smooth="yes"/>
      <point x="717" y="79"/>
      <point x="784" y="133"/>
    </contour>
    <contour>
      <point x="356" y="273" type="curve" smooth="yes"/>
      <point x="369" y="338"/>
      <point x="400" y="357"/>
      <point x="436" y="357" type="curve" smooth="yes"/>
      <point x="475" y="357"/>
      <point x="496" y="338"/>
      <point x="483" y="273" type="curve" smooth="yes"/>
      <point x="468" y="207"/>
      <point x="440" y="190"/>
      <point x="401" y="190" type="curve" smooth="yes"/>
      <point x="365" y="190"/>
      <point x="342" y="208"/>
    </contour>
  </outline>
</glyph>
<glyph name="B" format="1">
  <advance width="733"/>
  <unicode hex="0042"/>
  <outline>
    <contour>
      <point x="469" y="482" type="curve" name="hr00" smooth="yes"/>
      <point x="464" y="461"/>
      <point x="447" y="437"/>
      <point x="418" y="437" type="curve" smooth="yes"/>
      <point x="334" y="437" type="line"/>
      <point x="354" y="528" type="line"/>
      <point x="438" y="528" type="line" smooth="yes"/>
      <point x="467" y="528"/>
      <point x="473" y="503"/>
    </contour>
    <contour>
      <point x="299" y="270" type="line"/>
      <point x="392" y="270" type="line" smooth="yes"/>
      <point x="422" y="270"/>
      <point x="433" y="245"/>
      <point x="427" y="221" type="curve" smooth="yes"/>
      <point x="423" y="199"/>
      <point x="404" y="172"/>
      <point x="371" y="172" type="curve" smooth="yes"/>
      <point x="278" y="172" type="line"/>
    </contour>
    <contour>
      <point x="381" y="0" type="line" smooth="yes"/>
      <point x="561" y="0"/>
      <point x="657" y="70"/>
      <point x="689" y="220" type="curve" smooth="yes"/>
      <point x="703" y="286"/>
      <point x="672" y="344"/>
      <point x="625" y="365" type="curve"/>
      <point x="660" y="381"/>
      <point x="718" y="426"/>
      <point x="732" y="490" type="curve" smooth="yes"/>
      <point x="761" y="630"/>
      <point x="660" y="700"/>
      <point x="479" y="700" type="curve" smooth="yes"/>
      <point x="167" y="700" type="line" smooth="yes"/>
      <point x="152" y="700"/>
      <point x="138" y="688"/>
      <point x="135" y="673" type="curve" smooth="yes"/>
      <point x="-3" y="27" type="line" smooth="yes"/>
      <point x="-6" y="12"/>
      <point x="4" y="0"/>
      <point x="19" y="0" type="curve" smooth="yes"/>
    </contour>
  </outline>
</glyph>
<glyph name="D" format="1">
  <advance width="739"/>
  <unicode hex="0044"/>
  <outline>
    <contour>
      <point x="435" y="700" type="curve" name="hr00"/>
      <point x="167" y="700" type="line" smooth="yes"/>
      <point x="152" y="700"/>
      <point x="138" y="688"/>
      <point x="135" y="673" type="curve" smooth="yes"/>
      <point x="-3" y="27" type="line" smooth="yes"/>
      <point x="-6" y="12"/>
      <point x="4" y="0"/>
      <point x="19" y="0" type="curve" smooth="yes"/>
      <point x="332" y="0" type="line" smooth="yes"/>
      <point x="543" y="0"/>
      <point x="651" y="87"/>
      <point x="699" y="276" type="curve" smooth="yes"/>
      <point x="713" y="330"/>
      <point x="721" y="368"/>
      <point x="731" y="425" type="curve" smooth="yes"/>
      <point x="762" y="604"/>
      <point x="602" y="700"/>
    </contour>
    <contour>
      <point x="477" y="425" type="curve" smooth="yes"/>
      <point x="468" y="370"/>
      <point x="460" y="333"/>
      <point x="445" y="276" type="curve" smooth="yes"/>
      <point x="430" y="220"/>
      <point x="392" y="195"/>
      <point x="348" y="195" type="curve" smooth="yes"/>
      <point x="283" y="195" type="line"/>
      <point x="349" y="505" type="line"/>
      <point x="409" y="505" type="line" smooth="yes"/>
      <point x="454" y="505"/>
      <point x="486" y="481"/>
    </contour>
  </outline>
</glyph>
<glyph name="E" format="1">
  <advance width="666"/>
  <unicode hex="0045"/>
  <outline>
    <contour>
      <point x="581" y="195" type="line" name="hr00" smooth="yes"/>
      <point x="596" y="195"/>
      <point x="605" y="183"/>
      <point x="602" y="168" type="curve" smooth="yes"/>
      <point x="572" y="27" type="line" smooth="yes"/>
      <point x="569" y="12"/>
      <point x="555" y="0"/>
      <point x="540" y="0" type="curve" smooth="yes"/>
      <point x="19" y="0" type="line" smooth="yes"/>
      <point x="4" y="0"/>
      <point x="-6" y="12"/>
      <point x="-3" y="27" type="curve" smooth="yes"/>
      <point x="135" y="673" type="line" smooth="yes"/>
      <point x="138" y="688"/>
      <point x="152" y="700"/>
      <point x="167" y="700" type="curve" smooth="yes"/>
      <point x="680" y="700" type="line" smooth="yes"/>
      <point x="695" y="700"/>
      <point x="705" y="688"/>
      <point x="702" y="673" type="curve" smooth="yes"/>
      <point x="672" y="532" type="line" smooth="yes"/>
      <point x="668" y="517"/>
      <point x="654" y="505"/>
      <point x="639" y="505" type="curve" smooth="yes"/>
      <point x="339" y="505" type="line"/>
      <point x="325" y="442" type="line"/>
      <point x="603" y="442" type="line" smooth="yes"/>
      <point x="618" y="442"/>
      <point x="628" y="430"/>
      <point x="625" y="415" type="curve" smooth="yes"/>
      <point x="597" y="285" type="line" smooth="yes"/>
      <point x="594" y="270"/>
      <point x="579" y="258"/>
      <point x="564" y="258" type="curve" smooth="yes"/>
      <point x="286" y="258" type="line"/>
      <point x="273" y="195" type="line"/>
    </contour>
  </outline>
</glyph>
<glyph name="F" format="1">
  <advance width="646"/>
  <unicode hex="0046"/>
  <outline>
    <contour>
      <point x="167" y="700" type="line" name="hr00" smooth="yes"/>
      <point x="152" y="700"/>
      <point x="138" y="688"/>
      <point x="135" y="673" type="curve" smooth="yes"/>
      <point x="-3" y="27" type="line" smooth="yes"/>
      <point x="-6" y="12"/>
      <point x="4" y="0"/>
      <point x="19" y="0" type="curve" smooth="yes"/>
      <point x="210" y="0" type="line" smooth="yes"/>
      <point x="225" y="0"/>
      <point x="239" y="12"/>
      <point x="242" y="27" type="curve" smooth="yes"/>
      <point x="282" y="215" type="line"/>
      <point x="548" y="215" type="line" smooth="yes"/>
      <point x="563" y="215"/>
      <point x="578" y="227"/>
      <point x="581" y="242" type="curve" smooth="yes"/>
      <point x="613" y="393" type="line" smooth="yes"/>
      <point x="616" y="408"/>
      <point x="607" y="420"/>
      <point x="592" y="420" type="curve" smooth="yes"/>
      <point x="326" y="420" type="line"/>
      <point x="342" y="494" type="line"/>
      <point x="628" y="494" type="line" smooth="yes"/>
      <point x="643" y="494"/>
      <point x="657" y="506"/>
      <point x="660" y="521" type="curve" smooth="yes"/>
      <point x="693" y="673" type="line" smooth="yes"/>
      <point x="696" y="688"/>
      <point x="686" y="700"/>
      <point x="671" y="700" type="curve" smooth="yes"/>
    </contour>
  </outline>
</glyph>
<glyph name="G" format="1">
  <advance width="753"/>
  <unicode hex="0047"/>
  <outline>
    <contour>
      <point x="421" y="515" type="curve" smooth="yes"/>
      <point x="470" y="515"/>
      <point x="479" y="486"/>
      <point x="485" y="476" type="curve" smooth="yes"/>
      <point x="489" y="469"/>
      <point x="496" y="465"/>
      <point x="511" y="465" type="curve" name="hr01" smooth="yes"/>
      <point x="732" y="465" type="line" smooth="yes"/>
      <point x="744" y="465"/>
      <point x="756" y="475"/>
      <point x="759" y="487" type="curve" smooth="yes"/>
      <point x="782" y="608"/>
      <point x="633" y="710"/>
      <point x="442" y="710" type="curve" smooth="yes"/>
      <point x="225" y="710"/>
      <point x="114" y="622"/>
      <point x="69" y="445" type="curve"/>
      <point x="55" y="388"/>
      <point x="40" y="319"/>
      <point x="31" y="265" type="curve" smooth="yes"/>
      <point x="-1" y="79"/>
      <point x="147" y="-10"/>
      <point x="329" y="-10" type="curve" smooth="yes"/>
      <point x="551" y="-10"/>
      <point x="674" y="85"/>
      <point x="712" y="265" type="curve" smooth="yes"/>
      <point x="739" y="395" type="line" smooth="yes"/>
      <point x="743" y="410"/>
      <point x="733" y="422"/>
      <point x="718" y="422" type="curve" smooth="yes"/>
      <point x="443" y="422" type="line" smooth="yes"/>
      <point x="428" y="422"/>
      <point x="414" y="410"/>
      <point x="410" y="395" type="curve" smooth="yes"/>
      <point x="387" y="284" type="line" smooth="yes"/>
      <point x="384" y="269"/>
      <point x="393" y="257"/>
      <point x="408" y="257" type="curve" smooth="yes"/>
      <point x="455" y="257" type="line"/>
      <point x="444" y="205"/>
      <point x="405" y="185"/>
      <point x="355" y="185" type="curve" smooth="yes"/>
      <point x="306" y="185"/>
      <point x="281" y="210"/>
      <point x="292" y="270" type="curve"/>
      <point x="302" y="327"/>
      <point x="314" y="385"/>
      <point x="328" y="440" type="curve"/>
      <point x="341" y="490"/>
      <point x="372" y="515"/>
    </contour>
  </outline>
</glyph>
<glyph name="H" format="1">
  <advance width="771"/>
  <unicode hex="0048"/>
  <outline>
    <contour>
      <point x="579" y="700" type="line" name="hr00" smooth="yes"/>
      <point x="564" y="700"/>
      <point x="550" y="688"/>
      <point x="547" y="673" type="curve" smooth="yes"/>
      <point x="502" y="463" type="line"/>
      <point x="340" y="463" type="line"/>
      <point x="385" y="673" type="line" smooth="yes"/>
      <point x="388" y="688"/>
      <point x="378" y="700"/>
      <point x="363" y="700" type="curve" smooth="yes"/>
      <point x="167" y="700" type="line" smooth="yes"/>
      <point x="152" y="700"/>
      <point x="138" y="688"/>
      <point x="135" y="673" type="curve" smooth="yes"/>
      <point x="-3" y="27" type="line" smooth="yes"/>
      <point x="-6" y="11"/>
      <point x="4" y="0"/>
      <point x="19" y="0" type="curve" smooth="yes"/>
      <point x="215" y="0" type="line" smooth="yes"/>
      <point x="230" y="0"/>
      <point x="244" y="12"/>
      <point x="247" y="27" type="curve" smooth="yes"/>
      <point x="293" y="243" type="line"/>
      <point x="455" y="243" type="line"/>
      <point x="409" y="27" type="line" smooth="yes"/>
      <point x="406" y="12"/>
      <point x="416" y="0"/>
      <point x="431" y="0" type="curve" smooth="yes"/>
      <point x="627" y="0" type="line" smooth="yes"/>
      <point x="642" y="0"/>
      <point x="656" y="12"/>
      <point x="659" y="27" type="curve" smooth="yes"/>
      <point x="797" y="673" type="line" smooth="yes"/>
      <point x="800" y="688"/>
      <point x="790" y="700"/>
      <point x="775" y="700" type="curve" smooth="yes"/>
    </contour>
  </outline>
</glyph>
<glyph name="I" format="1">
  <advance width="367"/>
  <unicode hex="0049"/>
  <outline>
    <contour>
      <point x="223" y="0" type="line" name="hr00" smooth="yes"/>
      <point x="238" y="0"/>
      <point x="252" y="12"/>
      <point x="255" y="27" type="curve" smooth="yes"/>
      <point x="393" y="673" type="line" smooth="yes"/>
      <point x="396" y="688"/>
      <point x="386" y="700"/>
      <point x="371" y="700" type="curve" smooth="yes"/>
      <point x="167" y="700" type="line" smooth="yes"/>
      <point x="152" y="700"/>
      <point x="138" y="688"/>
      <point x="135" y="673" type="curve" smooth="yes"/>
      <point x="-3" y="27" type="line" smooth="yes"/>
      <point x="-6" y="12"/>
      <point x="4" y="0"/>
      <point x="19" y="0" type="curve" smooth="yes"/>
    </contour>
  </outline>
</glyph>
<glyph name="J" format="1">
  <advance width="698"/>
  <unicode hex="004A"/>
  <outline>
    <contour>
      <point x="730" y="673" type="line" name="hr00" smooth="yes"/>
      <point x="733" y="688"/>
      <point x="723" y="700"/>
      <point x="708" y="700" type="curve" smooth="yes"/>
      <point x="179" y="700" type="line" smooth="yes"/>
      <point x="164" y="700"/>
      <point x="150" y="688"/>
      <point x="147" y="673" type="curve" smooth="yes"/>
      <point x="115" y="524" type="line" smooth="yes"/>
      <point x="112" y="509"/>
      <point x="121" y="497"/>
      <point x="136" y="497" type="curve" smooth="yes"/>
      <point x="433" y="497" type="line"/>
      <point x="384" y="266" type="line" smooth="yes"/>
      <point x="371" y="205"/>
      <point x="344" y="185"/>
      <point x="308" y="185" type="curve" smooth="yes"/>
      <point x="275" y="185"/>
      <point x="266" y="198"/>
      <point x="258" y="225" type="curve" smooth="yes"/>
      <point x="253" y="247"/>
      <point x="246" y="257"/>
      <point x="224" y="257" type="curve" smooth="yes"/>
      <point x="20" y="257" type="line" smooth="yes"/>
      <point x="8" y="257"/>
      <point x="-4" y="247"/>
      <point x="-7" y="235" type="curve" smooth="yes"/>
      <point x="-37" y="78"/>
      <point x="143" y="-10"/>
      <point x="288" y="-10" type="curve" smooth="yes"/>
      <point x="490" y="-10"/>
      <point x="602" y="73"/>
      <point x="641" y="258" type="curve" smooth="yes"/>
    </contour>
  </outline>
</glyph>
<glyph name="L" format="1">
  <advance width="623"/>
  <unicode hex="004C"/>
  <outline>
    <contour>
      <point x="289" y="205" type="line" name="hr00"/>
      <point x="389" y="673" type="line" smooth="yes"/>
      <point x="392" y="688"/>
      <point x="382" y="700"/>
      <point x="367" y="700" type="curve" smooth="yes"/>
      <point x="167" y="700" type="line" smooth="yes"/>
      <point x="152" y="700"/>
      <point x="138" y="688"/>
      <point x="135" y="673" type="curve" smooth="yes"/>
      <point x="-3" y="27" type="line" smooth="yes"/>
      <point x="-6" y="12"/>
      <point x="4" y="0"/>
      <point x="19" y="0" type="curve" smooth="yes"/>
      <point x="523" y="0" type="line" smooth="yes"/>
      <point x="538" y="0"/>
      <point x="552" y="12"/>
      <point x="555" y="27" type="curve" smooth="yes"/>
      <point x="587" y="178" type="line" smooth="yes"/>
      <point x="591" y="193"/>
      <point x="581" y="205"/>
      <point x="566" y="205" type="curve" smooth="yes"/>
    </contour>
  </outline>
</glyph>
<glyph name="M" format="1">
  <advance width="855"/>
  <unicode hex="004D"/>
  <outline>
    <contour>
      <point x="457" y="433" type="line" name="hr00"/>
      <point x="653" y="673" type="line" smooth="yes"/>
      <point x="658" y="680"/>
      <point x="674" y="700"/>
      <point x="701" y="700" type="curve" smooth="yes"/>
      <point x="859" y="700" type="line" smooth="yes"/>
      <point x="874" y="700"/>
      <point x="884" y="688"/>
      <point x="881" y="673" type="curve" smooth="yes"/>
      <point x="743" y="27" type="line" smooth="yes"/>
      <point x="740" y="12"/>
      <point x="726" y="0"/>
      <point x="711" y="0" type="curve" smooth="yes"/>
      <point x="530" y="0" type="line" smooth="yes"/>
      <point x="515" y="0"/>
      <point x="505" y="12"/>
      <point x="508" y="27" type="curve" smooth="yes"/>
      <point x="566" y="301" type="line"/>
      <point x="478" y="193" type="line" smooth="yes"/>
      <point x="468" y="182"/>
      <point x="455" y="168"/>
      <point x="435" y="168" type="curve" smooth="yes"/>
      <point x="365" y="168" type="line" smooth="yes"/>
      <point x="345" y="168"/>
      <point x="338" y="182"/>
      <point x="334" y="193" type="curve" smooth="yes"/>
      <point x="290" y="301" type="line"/>
      <point x="232" y="27" type="line" smooth="yes"/>
      <point x="229" y="12"/>
      <point x="215" y="0"/>
      <point x="200" y="0" type="curve" smooth="yes"/>
      <point x="19" y="0" type="line" smooth="yes"/>
      <point x="4" y="0"/>
      <point x="-6" y="12"/>
      <point x="-3" y="27" type="curve" smooth="yes"/>
      <point x="135" y="673" type="line" smooth="yes"/>
      <point x="138" y="688"/>
      <point x="152" y="700"/>
      <point x="167" y="700" type="curve" smooth="yes"/>
      <point x="325" y="700" type="line" smooth="yes"/>
      <point x="352" y="700"/>
      <point x="360" y="680"/>
      <point x="363" y="673" type="curve" smooth="yes"/>
    </contour>
  </outline>
</glyph>
<glyph name="N" format="1">
  <advance width="739"/>
  <unicode hex="004E"/>
  <outline>
    <contour>
      <point x="562" y="700" type="line" name="hr00" smooth="yes"/>
      <point x="547" y="700"/>
      <point x="533" y="688"/>
      <point x="530" y="673" type="curve" smooth="yes"/>
      <point x="472" y="400" type="line"/>
      <point x="361" y="677" type="line" smooth="yes"/>
      <point x="359" y="684"/>
      <point x="352" y="700"/>
      <point x="325" y="700" type="curve" smooth="yes"/>
      <point x="167" y="700" type="line" smooth="yes"/>
      <point x="152" y="700"/>
      <point x="138" y="688"/>
      <point x="135" y="673" type="curve" smooth="yes"/>
      <point x="-3" y="27" type="line" smooth="yes"/>
      <point x="-6" y="12"/>
      <point x="4" y="0"/>
      <point x="19" y="0" type="curve" smooth="yes"/>
      <point x="200" y="0" type="line" smooth="yes"/>
      <point x="215" y="0"/>
      <point x="229" y="12"/>
      <point x="232" y="27" type="curve" smooth="yes"/>
      <point x="286" y="278" type="line"/>
      <point x="400" y="23" type="line" smooth="yes"/>
      <point x="403" y="17"/>
      <point x="410" y="0"/>
      <point x="437" y="0" type="curve" smooth="yes"/>
      <point x="595" y="0" type="line" smooth="yes"/>
      <point x="610" y="0"/>
      <point x="624" y="12"/>
      <point x="627" y="27" type="curve" smooth="yes"/>
      <point x="765" y="673" type="line" smooth="yes"/>
      <point x="768" y="688"/>
      <point x="758" y="700"/>
      <point x="743" y="700" type="curve" smooth="yes"/>
    </contour>
  </outline>
</glyph>
<glyph name="Q" format="1">
  <advance width="742"/>
  <unicode hex="0051"/>
  <outline>
    <contour>
      <point x="735" y="436" type="curve" smooth="yes"/>
      <point x="765" y="611"/>
      <point x="615" y="710"/>
      <point x="439" y="710" type="curve" smooth="yes"/>
      <point x="223" y="710"/>
      <point x="111" y="611"/>
      <point x="67" y="436" type="curve" smooth="yes"/>
      <point x="53" y="379"/>
      <point x="39" y="314"/>
      <point x="30" y="260" type="curve" smooth="yes"/>
      <point x="0" y="81"/>
      <point x="150" y="-10"/>
      <point x="326" y="-10" type="curve" smooth="yes"/>
      <point x="340" y="-10"/>
      <point x="353" y="-9"/>
      <point x="366" y="-9" type="curve" name="hr01"/>
      <point x="386" y="-42" type="line"/>
      <point x="390" y="-50"/>
      <point x="398" y="-65"/>
      <point x="423" y="-65" type="curve" name="hr02"/>
      <point x="619" y="-65" type="line"/>
      <point x="631" y="-65"/>
      <point x="643" y="-55"/>
      <point x="643" y="-43" type="curve"/>
      <point x="644" y="-40"/>
      <point x="643" y="-36"/>
      <point x="642" y="-34" type="curve"/>
      <point x="591" y="70" type="line"/>
      <point x="642" y="115"/>
      <point x="677" y="178"/>
      <point x="698" y="260" type="curve" smooth="yes"/>
      <point x="711" y="314"/>
      <point x="725" y="379"/>
    </contour>
    <contour>
      <point x="291" y="266" type="curve" smooth="yes"/>
      <point x="301" y="323"/>
      <point x="313" y="379"/>
      <point x="327" y="434" type="curve" smooth="yes"/>
      <point x="341" y="490"/>
      <point x="375" y="515"/>
      <point x="418" y="515" type="curve" smooth="yes"/>
      <point x="461" y="515"/>
      <point x="485" y="490"/>
      <point x="475" y="434" type="curve" smooth="yes"/>
      <point x="465" y="379"/>
      <point x="453" y="323"/>
      <point x="439" y="266" type="curve" smooth="yes"/>
      <point x="425" y="210"/>
      <point x="392" y="185"/>
      <point x="348" y="185" type="curve" smooth="yes"/>
      <point x="304" y="185"/>
      <point x="281" y="210"/>
    </contour>
  </outline>
</glyph>
<glyph name="R" format="1">
  <advance width="720"/>
  <unicode hex="0052"/>
  <outline>
    <contour>
      <point x="568" y="261" type="line" name="hr00"/>
      <point x="639" y="301"/>
      <point x="699" y="367"/>
      <point x="718" y="457" type="curve" smooth="yes"/>
      <point x="750" y="608"/>
      <point x="645" y="700"/>
      <point x="453" y="700" type="curve" smooth="yes"/>
      <point x="167" y="700" type="line" smooth="yes"/>
      <point x="152" y="700"/>
      <point x="138" y="688"/>
      <point x="135" y="673" type="curve" smooth="yes"/>
      <point x="-3" y="27" type="line" smooth="yes"/>
      <point x="-6" y="12"/>
      <point x="4" y="0"/>
      <point x="19" y="0" type="curve" smooth="yes"/>
      <point x="215" y="0" type="line" smooth="yes"/>
      <point x="230" y="0"/>
      <point x="244" y="12"/>
      <point x="247" y="27" type="curve" smooth="yes"/>
      <point x="288" y="218" type="line"/>
      <point x="329" y="218" type="line"/>
      <point x="374" y="27" type="line" smooth="yes"/>
      <point x="376" y="18"/>
      <point x="385" y="0"/>
      <point x="412" y="0" type="curve" smooth="yes"/>
      <point x="617" y="0" type="line" smooth="yes"/>
      <point x="629" y="0"/>
      <point x="641" y="10"/>
      <point x="643" y="22" type="curve" smooth="yes"/>
      <point x="644" y="27"/>
      <point x="644" y="29"/>
      <point x="643" y="33" type="curve" smooth="yes"/>
    </contour>
    <contour>
      <point x="351" y="514" type="line"/>
      <point x="424" y="514" type="line" smooth="yes"/>
      <point x="457" y="514"/>
      <point x="464" y="485"/>
      <point x="458" y="459" type="curve" smooth="yes"/>
      <point x="452" y="432"/>
      <point x="432" y="408"/>
      <point x="401" y="408" type="curve" smooth="yes"/>
      <point x="328" y="408" type="line"/>
    </contour>
  </outline>
</glyph>
<glyph name="S" format="1">
  <advance width="698"/>
  <unicode hex="0053"/>
  <outline>
    <contour>
      <point x="407" y="710" type="curve" smooth="yes"/>
      <point x="225" y="710"/>
      <point x="104" y="630"/>
      <point x="76" y="494" type="curve" smooth="yes"/>
      <point x="47" y="361"/>
      <point x="131" y="281"/>
      <point x="285" y="260" type="curve" smooth="yes"/>
      <point x="381" y="247"/>
      <point x="409" y="237"/>
      <point x="404" y="213" type="curve" smooth="yes"/>
      <point x="400" y="195"/>
      <point x="368" y="185"/>
      <point x="323" y="185" type="curve" smooth="yes"/>
      <point x="290" y="185"/>
      <point x="270" y="193"/>
      <point x="254" y="208" type="curve" smooth="yes"/>
      <point x="242" y="219"/>
      <point x="235" y="225"/>
      <point x="214" y="225" type="curve" name="hr01" smooth="yes"/>
      <point x="24" y="225" type="line" smooth="yes"/>
      <point x="12" y="225"/>
      <point x="0" y="215"/>
      <point x="-2" y="203" type="curve" smooth="yes"/>
      <point x="-23" y="92"/>
      <point x="80" y="-10"/>
      <point x="301" y="-10" type="curve" smooth="yes"/>
      <point x="510" y="-10"/>
      <point x="632" y="66"/>
      <point x="663" y="212" type="curve" smooth="yes"/>
      <point x="690" y="342"/>
      <point x="629" y="419"/>
      <point x="434" y="444" type="curve" smooth="yes"/>
      <point x="346" y="455"/>
      <point x="328" y="468"/>
      <point x="332" y="487" type="curve" smooth="yes"/>
      <point x="336" y="504"/>
      <point x="352" y="515"/>
      <point x="386" y="515" type="curve" smooth="yes"/>
      <point x="414" y="515"/>
      <point x="429" y="503"/>
      <point x="435" y="497" type="curve" smooth="yes"/>
      <point x="445" y="486"/>
      <point x="453" y="481"/>
      <point x="472" y="481" type="curve" name="hr02" smooth="yes"/>
      <point x="672" y="481" type="line" smooth="yes"/>
      <point x="683" y="481"/>
      <point x="695" y="491"/>
      <point x="697" y="503" type="curve" smooth="yes"/>
      <point x="713" y="590"/>
      <point x="587" y="710"/>
    </contour>
  </outline>
</glyph>
<glyph name="T" format="1">
  <advance width="673"/>
  <unicode hex="0054"/>
  <outline>
    <contour>
      <point x="129" y="700" type="line" name="hr00" smooth="yes"/>
      <point x="114" y="700"/>
      <point x="100" y="688"/>
      <point x="97" y="673" type="curve" smooth="yes"/>
      <point x="62" y="512" type="line" smooth="yes"/>
      <point x="59" y="497"/>
      <point x="69" y="485"/>
      <point x="84" y="485" type="curve" smooth="yes"/>
      <point x="250" y="485" type="line"/>
      <point x="152" y="27" type="line" smooth="yes"/>
      <point x="149" y="12"/>
      <point x="159" y="0"/>
      <point x="174" y="0" type="curve" smooth="yes"/>
      <point x="374" y="0" type="line" smooth="yes"/>
      <point x="389" y="0"/>
      <point x="403" y="12"/>
      <point x="406" y="27" type="curve" smooth="yes"/>
      <point x="504" y="485" type="line"/>
      <point x="670" y="485" type="line" smooth="yes"/>
      <point x="685" y="485"/>
      <point x="699" y="497"/>
      <point x="702" y="512" type="curve" smooth="yes"/>
      <point x="737" y="673" type="line" smooth="yes"/>
      <point x="740" y="688"/>
      <point x="730" y="700"/>
      <point x="715" y="700" type="curve" smooth="yes"/>
    </contour>
  </outline>
</glyph>
<glyph name="V" format="1">
  <advance width="726"/>
  <unicode hex="0056"/>
  <outline>
    <contour>
      <point x="354" y="295" type="line" name="hr00"/>
      <point x="528" y="667" type="line"/>
      <point x="535" y="682"/>
      <point x="553" y="700"/>
      <point x="580" y="700" type="curve" smooth="yes"/>
      <point x="776" y="700" type="line" smooth="yes"/>
      <point x="792" y="700"/>
      <point x="798" y="685"/>
      <point x="791" y="671" type="curve" smooth="yes"/>
      <point x="468" y="33" type="line" smooth="yes"/>
      <point x="460" y="18"/>
      <point x="443" y="0"/>
      <point x="416" y="0" type="curve" smooth="yes"/>
      <point x="185" y="0" type="line" smooth="yes"/>
      <point x="158" y="0"/>
      <point x="147" y="18"/>
      <point x="147" y="33" type="curve" smooth="yes"/>
      <point x="94" y="671" type="line" smooth="yes"/>
      <point x="93" y="689"/>
      <point x="106" y="700"/>
      <point x="121" y="700" type="curve" smooth="yes"/>
      <point x="300" y="700" type="line" smooth="yes"/>
      <point x="327" y="700"/>
      <point x="337" y="682"/>
      <point x="338" y="667" type="curve" smooth="yes"/>
    </contour>
  </outline>
</glyph>
<glyph name="W" format="1">
  <advance width="855"/>
  <unicode hex="0057"/>
  <outline>
    <contour>
      <point x="404" y="232" type="line" name="hr00"/>
      <point x="293" y="27" type="line" smooth="yes"/>
      <point x="289" y="19"/>
      <point x="274" y="0"/>
      <point x="247" y="0" type="curve" smooth="yes"/>
      <point x="104" y="0" type="line" smooth="yes"/>
      <point x="77" y="0"/>
      <point x="64" y="20"/>
      <point x="66" y="38" type="curve"/>
      <point x="99" y="675" type="line" smooth="yes"/>
      <point x="100" y="688"/>
      <point x="114" y="700"/>
      <point x="127" y="700" type="curve" smooth="yes"/>
      <point x="308" y="700" type="line" smooth="yes"/>
      <point x="331" y="700"/>
      <point x="340" y="693"/>
      <point x="338" y="673" type="curve" smooth="yes"/>
      <point x="312" y="391" type="line"/>
      <point x="379" y="516" type="line" smooth="yes"/>
      <point x="384" y="525"/>
      <point x="395" y="545"/>
      <point x="419" y="545" type="curve" smooth="yes"/>
      <point x="521" y="545" type="line" smooth="yes"/>
      <point x="545" y="545"/>
      <point x="548" y="525"/>
      <point x="549" y="516" type="curve" smooth="yes"/>
      <point x="564" y="392" type="line"/>
      <point x="658" y="673" type="line" smooth="yes"/>
      <point x="664" y="693"/>
      <point x="677" y="700"/>
      <point x="700" y="700" type="curve" smooth="yes"/>
      <point x="891" y="700" type="line" smooth="yes"/>
      <point x="904" y="700"/>
      <point x="911" y="687"/>
      <point x="907" y="675" type="curve" smooth="yes"/>
      <point x="690" y="38" type="line"/>
      <point x="684" y="20"/>
      <point x="663" y="0"/>
      <point x="636" y="0" type="curve" smooth="yes"/>
      <point x="493" y="0" type="line" smooth="yes"/>
      <point x="466" y="0"/>
      <point x="459" y="19"/>
      <point x="457" y="27" type="curve" smooth="yes"/>
    </contour>
  </outline>
</glyph>
<glyph name="Y" format="1">
  <advance width="709"/>
  <unicode hex="0059"/>
  <outline>
    <contour>
      <point x="390" y="0" type="line" name="hr00" smooth="yes"/>
      <point x="405" y="0"/>
      <point x="419" y="12"/>
      <point x="422" y="27" type="curve" smooth="yes"/>
      <point x="464" y="224" type="line"/>
      <point x="784" y="669" type="line" smooth="yes"/>
      <point x="793" y="681"/>
      <point x="788" y="700"/>
      <point x="770" y="700" type="curve" smooth="yes"/>
      <point x="572" y="700" type="line" smooth="yes"/>
      <point x="545" y="700"/>
      <point x="529" y="681"/>
      <point x="525" y="675" type="curve" smooth="yes"/>
      <point x="382" y="474" type="line"/>
      <point x="325" y="675" type="line" smooth="yes"/>
      <point x="323" y="681"/>
      <point x="315" y="700"/>
      <point x="288" y="700" type="curve" smooth="yes"/>
      <point x="110" y="700" type="line" smooth="yes"/>
      <point x="92" y="700"/>
      <point x="79" y="685"/>
      <point x="84" y="669" type="curve" smooth="yes"/>
      <point x="214" y="224" type="line"/>
      <point x="172" y="27" type="line" smooth="yes"/>
      <point x="169" y="12"/>
      <point x="179" y="0"/>
      <point x="194" y="0" type="curve" smooth="yes"/>
    </contour>
  </outline>
</glyph>
<glyph name="Z" format="1">
  <advance width="692"/>
  <unicode hex="005A"/>
  <outline>
    <contour>
      <point x="359" y="205" type="line" name="hr00"/>
      <point x="676" y="498" type="line" smooth="yes"/>
      <point x="685" y="507"/>
      <point x="693" y="517"/>
      <point x="696" y="531" type="curve" smooth="yes"/>
      <point x="727" y="673" type="line" smooth="yes"/>
      <point x="730" y="688"/>
      <point x="720" y="700"/>
      <point x="705" y="700" type="curve" smooth="yes"/>
      <point x="157" y="700" type="line" smooth="yes"/>
      <point x="142" y="700"/>
      <point x="128" y="688"/>
      <point x="125" y="673" type="curve" smooth="yes"/>
      <point x="93" y="524" type="line" smooth="yes"/>
      <point x="90" y="509"/>
      <point x="99" y="497"/>
      <point x="114" y="497" type="curve" smooth="yes"/>
      <point x="362" y="497" type="line"/>
      <point x="30" y="206" type="line" smooth="yes"/>
      <point x="24" y="201"/>
      <point x="12" y="190"/>
      <point x="8" y="171" type="curve" smooth="yes"/>
      <point x="-23" y="27" type="line" smooth="yes"/>
      <point x="-26" y="12"/>
      <point x="-16" y="0"/>
      <point x="-1" y="0" type="curve" smooth="yes"/>
      <point x="570" y="0" type="line" smooth="yes"/>
      <point x="585" y="0"/>
      <point x="599" y="12"/>
      <point x="602" y="27" type="curve" smooth="yes"/>
      <point x="634" y="178" type="line"/>
      <point x="638" y="193"/>
      <point x="628" y="205"/>
      <point x="613" y="205" type="curve" smooth="yes"/>
    </contour>
  </outline>
</glyph>
<glyph name="backslash" format="1">
  <advance width="563"/>
  <unicode hex="005C"/>
  <outline>
    <contour>
      <point x="466" y="-53" type="line" name="hr00" smooth="yes"/>
      <point x="469" y="-68"/>
      <point x="458" y="-84"/>
      <point x="440" y="-84" type="curve" smooth="yes"/>
      <point x="324" y="-84" type="line" smooth="yes"/>
      <point x="297" y="-84"/>
      <point x="288" y="-67"/>
      <point x="286" y="-54" type="curve"/>
      <point x="120" y="755" type="line" smooth="yes"/>
      <point x="117" y="771"/>
      <point x="128" y="786"/>
      <point x="147" y="786" type="curve" smooth="yes"/>
      <point x="266" y="786" type="line" smooth="yes"/>
      <point x="291" y="786"/>
      <point x="300" y="770"/>
      <point x="303" y="756" type="curve" smooth="yes"/>
    </contour>
  </outline>
</glyph>
<glyph name="bracketright" format="1">
  <advance width="431"/>
  <unicode hex="005D"/>
  <outline>
    <contour>
      <point x="152" y="776" type="line" name="hr00" smooth="yes"/>
      <point x="137" y="776"/>
      <point x="123" y="764"/>
      <point x="120" y="749" type="curve" smooth="yes"/>
      <point x="92" y="620" type="line" smooth="yes"/>
      <point x="89" y="605"/>
      <point x="99" y="593"/>
      <point x="114" y="593" type="curve" smooth="yes"/>
      <point x="233" y="593" type="line"/>
      <point x="115" y="42" type="line"/>
      <point x="-4" y="42" type="line" smooth="yes"/>
      <point x="-19" y="42"/>
      <point x="-33" y="30"/>
      <point x="-36" y="15" type="curve" smooth="yes"/>
      <point x="-68" y="-132" type="line" smooth="yes"/>
      <point x="-70" y="-147"/>
      <point x="-61" y="-159"/>
      <point x="-46" y="-159" type="curve" smooth="yes"/>
      <point x="257" y="-159" type="line" smooth="yes"/>
      <point x="272" y="-159"/>
      <point x="286" y="-147"/>
      <point x="289" y="-132" type="curve" smooth="yes"/>
      <point x="477" y="749" type="line" smooth="yes"/>
      <point x="480" y="764"/>
      <point x="470" y="776"/>
      <point x="455" y="776" type="curve" smooth="yes"/>
    </contour>
  </outline>
</glyph>
<glyph name="asciicircum" format="1">
  <advance width="490"/>
  <unicode hex="005E"/>
  <outline>
    <contour>
      <point x="286" y="765" type="line" name="hr00" smooth="yes"/>
      <point x="271" y="765"/>
      <point x="261" y="760"/>
      <point x="245" y="746" type="curve" smooth="yes"/>
      <point x="107" y="624" type="line" smooth="yes"/>
      <point x="103" y="621"/>
      <point x="100" y="616"/>
      <point x="99" y="611" type="curve" smooth="yes"/>
      <point x="97" y="601"/>
      <point x="102" y="595"/>
      <point x="112" y="595" type="curve" smooth="yes"/>
      <point x="186" y="595" type="line" smooth="yes"/>
      <point x="199" y="595"/>
      <point x="212" y="595"/>
      <point x="227" y="602" type="curve" smooth="yes"/>
      <point x="328" y="644" type="line"/>
      <point x="411" y="602" type="line" smooth="yes"/>
      <point x="424" y="595"/>
      <point x="437" y="595"/>
      <point x="450" y="595" type="curve" smooth="yes"/>
      <point x="508" y="595" type="line" smooth="yes"/>
      <point x="518" y="595"/>
      <point x="525" y="601"/>
      <point x="527" y="611" type="curve" smooth="yes"/>
      <point x="528" y="616"/>
      <point x="527" y="621"/>
      <point x="525" y="624" type="curve" smooth="yes"/>
      <point x="439" y="746" type="line" smooth="yes"/>
      <point x="429" y="760"/>
      <point x="421" y="765"/>
      <point x="406" y="765" type="curve" smooth="yes"/>
    </contour>
  </outline>
</glyph>
<glyph name="underscore" format="1">
  <advance width="724"/>
  <unicode hex="005F"/>
  <outline>
    <contour>
      <point x="19" y="98" type="line" name="hr00" smooth="yes"/>
      <point x="4" y="98"/>
      <point x="-10" y="86"/>
      <point x="-13" y="71" type="curve" smooth="yes"/>
      <point x="-44" y="-71" type="line" smooth="yes"/>
      <point x="-47" y="-86"/>
      <point x="-37" y="-98"/>
      <point x="-22" y="-98" type="curve" smooth="yes"/>
      <point x="583" y="-98" type="line" smooth="yes"/>
      <point x="598" y="-98"/>
      <point x="612" y="-86"/>
      <point x="615" y="-71" type="curve" smooth="yes"/>
      <point x="646" y="71" type="line" smooth="yes"/>
      <point x="649" y="86"/>
      <point x="639" y="98"/>
      <point x="624" y="98" type="curve" smooth="yes"/>
    </contour>
  </outline>
</glyph>
<glyph name="grave" format="1">
  <advance width="360"/>
  <unicode hex="0060"/>
  <outline>
    <contour>
      <point x="283" y="746" type="line" name="hr00"/>
      <point x="272" y="763"/>
      <point x="265" y="765"/>
      <point x="250" y="765" type="curve" smooth="yes"/>
      <point x="54" y="765" type="line" smooth="yes"/>
      <point x="42" y="765"/>
      <point x="33" y="757"/>
      <point x="31" y="745" type="curve" smooth="yes"/>
      <point x="30" y="740"/>
      <point x="31" y="736"/>
      <point x="33" y="733" type="curve" smooth="yes"/>
      <point x="155" y="612" type="line" smooth="yes"/>
      <point x="164" y="603"/>
      <point x="172" y="595"/>
      <point x="193" y="595" type="curve" smooth="yes"/>
      <point x="340" y="595" type="line" smooth="yes"/>
      <point x="350" y="595"/>
      <point x="357" y="601"/>
      <point x="359" y="611" type="curve" smooth="yes"/>
      <point x="360" y="616"/>
      <point x="359" y="621"/>
      <point x="357" y="624" type="curve" smooth="yes"/>
    </contour>
  </outline>
</glyph>
<glyph name="a" format="1">
  <advance width="660"/>
  <unicode hex="0061"/>
  <outline>
    <contour>
      <point x="293" y="530" type="curve" smooth="yes"/>
      <point x="167" y="530"/>
      <point x="72" y="457"/>
      <point x="32" y="300" type="curve" smooth="yes"/>
      <point x="25" y="270"/>
      <point x="21" y="251"/>
      <point x="15" y="221" type="curve"/>
      <point x="-13" y="54"/>
      <point x="72" y="-10"/>
      <point x="188" y="-10" type="curve" smooth="yes"/>
      <point x="257" y="-10"/>
      <point x="299" y="14"/>
      <point x="339" y="50" type="curve"/>
      <point x="334" y="27" type="line" smooth="yes"/>
      <point x="331" y="12"/>
      <point x="341" y="0"/>
      <point x="356" y="0" type="curve" name="hr01" smooth="yes"/>
      <point x="526" y="0" type="line" smooth="yes"/>
      <point x="541" y="0"/>
      <point x="555" y="12"/>
      <point x="558" y="27" type="curve" smooth="yes"/>
      <point x="657" y="493" type="line" smooth="yes"/>
      <point x="660" y="508"/>
      <point x="650" y="520"/>
      <point x="635" y="520" type="curve" smooth="yes"/>
      <point x="466" y="520" type="line" smooth="yes"/>
      <point x="451" y="520"/>
      <point x="437" y="508"/>
      <point x="434" y="493" type="curve" smooth="yes"/>
      <point x="431" y="480" type="line"/>
      <point x="405" y="509"/>
      <point x="369" y="530"/>
    </contour>
    <contour>
      <point x="276" y="293" type="curve" smooth="yes"/>
      <point x="287" y="329"/>
      <point x="301" y="351"/>
      <point x="338" y="351" type="curve" smooth="yes"/>
      <point x="372" y="351"/>
      <point x="382" y="333"/>
      <point x="377" y="301" type="curve" smooth="yes"/>
      <point x="373" y="271"/>
      <point x="370" y="257"/>
      <point x="362" y="227" type="curve" smooth="yes"/>
      <point x="352" y="191"/>
      <point x="336" y="169"/>
      <point x="299" y="169" type="curve" smooth="yes"/>
      <point x="262" y="169"/>
      <point x="258" y="191"/>
      <point x="262" y="227" type="curve" smooth="yes"/>
      <point x="264" y="247"/>
      <point x="270" y="273"/>
    </contour>
  </outline>
</glyph>
<glyph name="b" format="1">
  <advance width="660"/>
  <unicode hex="0062"/>
  <outline>
    <contour>
      <point x="457" y="530" type="curve" smooth="yes"/>
      <point x="401" y="530"/>
      <point x="362" y="512"/>
      <point x="324" y="483" type="curve"/>
      <point x="367" y="683" type="line" smooth="yes"/>
      <point x="370" y="698"/>
      <point x="360" y="710"/>
      <point x="345" y="710" type="curve" smooth="yes"/>
      <point x="160" y="710" type="line" smooth="yes"/>
      <point x="145" y="710"/>
      <point x="131" y="698"/>
      <point x="128" y="683" type="curve" smooth="yes"/>
      <point x="-12" y="27" type="line" smooth="yes"/>
      <point x="-15" y="12"/>
      <point x="-5" y="0"/>
      <point x="10" y="0" type="curve" smooth="yes"/>
      <point x="180" y="0" type="line" smooth="yes"/>
      <point x="195" y="0"/>
      <point x="209" y="12"/>
      <point x="212" y="27" type="curve" smooth="yes"/>
      <point x="217" y="50" type="line"/>
      <point x="241" y="14"/>
      <point x="293" y="-10"/>
      <point x="362" y="-10" type="curve" name="hr01" smooth="yes"/>
      <point x="478" y="-10"/>
      <point x="571" y="54"/>
      <point x="613" y="221" type="curve" smooth="yes"/>
      <point x="621" y="251"/>
      <point x="625" y="270"/>
      <point x="630" y="300" type="curve" smooth="yes"/>
      <point x="658" y="457"/>
      <point x="573" y="530"/>
    </contour>
    <contour>
      <point x="384" y="293" type="curve" smooth="yes"/>
      <point x="382" y="273"/>
      <point x="376" y="247"/>
      <point x="370" y="227" type="curve" smooth="yes"/>
      <point x="358" y="191"/>
      <point x="344" y="169"/>
      <point x="307" y="169" type="curve" name="hr02" smooth="yes"/>
      <point x="270" y="169"/>
      <point x="264" y="191"/>
      <point x="270" y="227" type="curve" smooth="yes"/>
      <point x="274" y="257"/>
      <point x="277" y="271"/>
      <point x="285" y="301" type="curve" smooth="yes"/>
      <point x="294" y="333"/>
      <point x="312" y="351"/>
      <point x="346" y="351" type="curve" smooth="yes"/>
      <point x="383" y="351"/>
      <point x="387" y="329"/>
    </contour>
  </outline>
</glyph>
<glyph name="c" format="1">
  <advance width="621"/>
  <unicode hex="0063"/>
  <outline>
    <contour>
      <point x="273" y="295" type="curve" smooth="yes"/>
      <point x="283" y="335"/>
      <point x="296" y="359"/>
      <point x="327" y="359" type="curve" smooth="yes"/>
      <point x="347" y="359"/>
      <point x="352" y="348"/>
      <point x="357" y="329" type="curve" smooth="yes"/>
      <point x="361" y="317"/>
      <point x="367" y="309"/>
      <point x="382" y="309" type="curve" name="hr01" smooth="yes"/>
      <point x="577" y="309" type="line" smooth="yes"/>
      <point x="592" y="309"/>
      <point x="608" y="321"/>
      <point x="610" y="336" type="curve" smooth="yes"/>
      <point x="618" y="389"/>
      <point x="549" y="530"/>
      <point x="348" y="530" type="curve" smooth="yes"/>
      <point x="185" y="530"/>
      <point x="68" y="448"/>
      <point x="29" y="300" type="curve" smooth="yes"/>
      <point x="23" y="277"/>
      <point x="16" y="240"/>
      <point x="12" y="219" type="curve" smooth="yes"/>
      <point x="-11" y="71"/>
      <point x="110" y="-10"/>
      <point x="253" y="-10" type="curve" smooth="yes"/>
      <point x="484" y="-10"/>
      <point x="565" y="141"/>
      <point x="578" y="184" type="curve" smooth="yes"/>
      <point x="582" y="199"/>
      <point x="571" y="211"/>
      <point x="556" y="211" type="curve" smooth="yes"/>
      <point x="361" y="211" type="line" smooth="yes"/>
      <point x="346" y="211"/>
      <point x="336" y="203"/>
      <point x="328" y="191" type="curve" smooth="yes"/>
      <point x="316" y="172"/>
      <point x="309" y="161"/>
      <point x="285" y="161" type="curve" name="hr02" smooth="yes"/>
      <point x="254" y="161"/>
      <point x="251" y="181"/>
      <point x="258" y="224" type="curve" smooth="yes"/>
      <point x="261" y="243"/>
      <point x="266" y="266"/>
    </contour>
  </outline>
</glyph>
<glyph name="e" format="1">
  <advance width="621"/>
  <unicode hex="0065"/>
  <outline>
    <contour>
      <point x="549" y="201" type="line" smooth="yes"/>
      <point x="564" y="201"/>
      <point x="579" y="213"/>
      <point x="582" y="228" type="curve" smooth="yes"/>
      <point x="588" y="258" type="line" smooth="yes"/>
      <point x="618" y="406"/>
      <point x="537" y="530"/>
      <point x="351" y="530" type="curve" smooth="yes"/>
      <point x="168" y="530"/>
      <point x="56" y="435"/>
      <point x="19" y="259" type="curve" smooth="yes"/>
      <point x="-21" y="72"/>
      <point x="92" y="-10"/>
      <point x="257" y="-10" type="curve" smooth="yes"/>
      <point x="452" y="-10"/>
      <point x="537" y="94"/>
      <point x="551" y="145" type="curve" smooth="yes"/>
      <point x="555" y="158"/>
      <point x="547" y="167"/>
      <point x="534" y="167" type="curve" smooth="yes"/>
      <point x="345" y="167" type="line" smooth="yes"/>
      <point x="329" y="167"/>
      <point x="324" y="165"/>
      <point x="309" y="153" type="curve" smooth="yes"/>
      <point x="296" y="142"/>
      <point x="288" y="135"/>
      <point x="276" y="135" type="curve" name="hr01" smooth="yes"/>
      <point x="247" y="135"/>
      <point x="242" y="156"/>
      <point x="250" y="196" type="curve" smooth="yes"/>
      <point x="251" y="201" type="line"/>
    </contour>
    <contour>
      <point x="331" y="390" type="curve" smooth="yes"/>
      <point x="357" y="390"/>
      <point x="367" y="371"/>
      <point x="358" y="326" type="curve"/>
      <point x="278" y="326" type="line"/>
      <point x="287" y="371"/>
      <point x="305" y="390"/>
    </contour>
  </outline>
</glyph>
<glyph name="i" format="1">
  <advance width="323"/>
  <unicode hex="0069"/>
  <outline>
    <contour>
      <point x="189" y="0" type="line" name="hr00" smooth="yes"/>
      <point x="204" y="0"/>
      <point x="218" y="12"/>
      <point x="221" y="27" type="curve" smooth="yes"/>
      <point x="320" y="493" type="line" smooth="yes"/>
      <point x="323" y="508"/>
      <point x="314" y="520"/>
      <point x="299" y="520" type="curve" smooth="yes"/>
      <point x="120" y="520" type="line" smooth="yes"/>
      <point x="105" y="520"/>
      <point x="90" y="508"/>
      <point x="87" y="493" type="curve" smooth="yes"/>
      <point x="-12" y="27" type="line" smooth="yes"/>
      <point x="-15" y="12"/>
      <point x="-5" y="0"/>
      <point x="10" y="0" type="curve" smooth="yes"/>
    </contour>
    <contour>
      <point x="364" y="723" type="line" smooth="yes"/>
      <point x="367" y="738"/>
      <point x="358" y="750"/>
      <point x="343" y="750" type="curve" smooth="yes"/>
      <point x="174" y="750" type="line" smooth="yes"/>
      <point x="159" y="750"/>
      <point x="144" y="738"/>
      <point x="141" y="723" type="curve" smooth="yes"/>
      <point x="115" y="602" type="line" smooth="yes"/>
      <point x="112" y="587"/>
      <point x="122" y="575"/>
      <point x="137" y="575" type="curve" smooth="yes"/>
      <point x="306" y="575" type="line" smooth="yes"/>
      <point x="321" y="575"/>
      <point x="335" y="587"/>
      <point x="338" y="602" type="curve" smooth="yes"/>
    </contour>
  </outline>
</glyph>
<glyph name="o" format="1">
  <advance width="641"/>
  <unicode hex="006F"/>
  <outline>
    <contour>
      <point x="360" y="530" type="curve" name="hr00" smooth="yes"/>
      <point x="177" y="530"/>
      <point x="74" y="454"/>
      <point x="33" y="307" type="curve" smooth="yes"/>
      <point x="24" y="277"/>
      <point x="17" y="243"/>
      <point x="13" y="213" type="curve" smooth="yes"/>
      <point x="-8" y="66"/>
      <point x="91" y="-10"/>
      <point x="265" y="-10" type="curve" smooth="yes"/>
      <point x="459" y="-10"/>
      <point x="552" y="66"/>
      <point x="593" y="213" type="curve" smooth="yes"/>
      <point x="601" y="243"/>
      <point x="608" y="277"/>
      <point x="613" y="307" type="curve" smooth="yes"/>
      <point x="634" y="454"/>
      <point x="523" y="530"/>
    </contour>
    <contour>
      <point x="367" y="302" type="curve" smooth="yes"/>
      <point x="364" y="282"/>
      <point x="354" y="238"/>
      <point x="349" y="218" type="curve" smooth="yes"/>
      <point x="336" y="171"/>
      <point x="327" y="150"/>
      <point x="289" y="150" type="curve" smooth="yes"/>
      <point x="251" y="150"/>
      <point x="252" y="171"/>
      <point x="259" y="218" type="curve" smooth="yes"/>
      <point x="262" y="238"/>
      <point x="271" y="282"/>
      <point x="277" y="302" type="curve" smooth="yes"/>
      <point x="289" y="346"/>
      <point x="298" y="370"/>
      <point x="336" y="370" type="curve" smooth="yes"/>
      <point x="374" y="370"/>
      <point x="374" y="346"/>
    </contour>
  </outline>
</glyph>
<glyph name="q" format="1">
  <advance width="661"/>
  <unicode hex="0071"/>
  <outline>
    <contour>
      <point x="189" y="-10" type="curve" smooth="yes"/>
      <point x="245" y="-10"/>
      <point x="286" y="7"/>
      <point x="325" y="50" type="curve"/>
      <point x="280" y="-163" type="line" smooth="yes"/>
      <point x="277" y="-178"/>
      <point x="286" y="-190"/>
      <point x="301" y="-190" type="curve" smooth="yes"/>
      <point x="486" y="-190" type="line" smooth="yes"/>
      <point x="501" y="-190"/>
      <point x="516" y="-178"/>
      <point x="519" y="-163" type="curve" smooth="yes"/>
      <point x="658" y="493" type="line" smooth="yes"/>
      <point x="661" y="508"/>
      <point x="652" y="520"/>
      <point x="637" y="520" type="curve" smooth="yes"/>
      <point x="467" y="520" type="line" smooth="yes"/>
      <point x="452" y="520"/>
      <point x="437" y="508"/>
      <point x="434" y="493" type="curve" smooth="yes"/>
      <point x="428" y="463" type="line"/>
      <point x="406" y="502"/>
      <point x="353" y="530"/>
      <point x="284" y="530" type="curve" name="hr01" smooth="yes"/>
      <point x="168" y="530"/>
      <point x="76" y="466"/>
      <point x="33" y="299" type="curve" smooth="yes"/>
      <point x="26" y="269"/>
      <point x="22" y="250"/>
      <point x="16" y="220" type="curve"/>
      <point x="-11" y="63"/>
      <point x="73" y="-10"/>
    </contour>
    <contour>
      <point x="263" y="227" type="curve" smooth="yes"/>
      <point x="265" y="247"/>
      <point x="271" y="273"/>
      <point x="277" y="293" type="curve" smooth="yes"/>
      <point x="288" y="329"/>
      <point x="302" y="351"/>
      <point x="339" y="351" type="curve" name="hr02" smooth="yes"/>
      <point x="376" y="351"/>
      <point x="382" y="329"/>
      <point x="377" y="293" type="curve" smooth="yes"/>
      <point x="372" y="263"/>
      <point x="369" y="249"/>
      <point x="361" y="219" type="curve" smooth="yes"/>
      <point x="352" y="187"/>
      <point x="334" y="169"/>
      <point x="300" y="169" type="curve" smooth="yes"/>
      <point x="263" y="169"/>
      <point x="259" y="191"/>
    </contour>
  </outline>
</glyph>
<glyph name="r" format="1">
  <advance width="519"/>
  <unicode hex="0072"/>
  <outline>
    <contour>
      <point x="316" y="493" type="line" name="hr00" smooth="yes"/>
      <point x="319" y="508"/>
      <point x="310" y="520"/>
      <point x="295" y="520" type="curve" smooth="yes"/>
      <point x="120" y="520" type="line" smooth="yes"/>
      <point x="105" y="520"/>
      <point x="90" y="508"/>
      <point x="87" y="493" type="curve" smooth="yes"/>
      <point x="-12" y="27" type="line" smooth="yes"/>
      <point x="-15" y="12"/>
      <point x="-5" y="0"/>
      <point x="10" y="0" type="curve" smooth="yes"/>
      <point x="200" y="0" type="line" smooth="yes"/>
      <point x="215" y="0"/>
      <point x="229" y="12"/>
      <point x="232" y="27" type="curve" smooth="yes"/>
      <point x="280" y="250" type="line" smooth="yes"/>
      <point x="288" y="290"/>
      <point x="312" y="310"/>
      <point x="352" y="310" type="curve" smooth="yes"/>
      <point x="481" y="310" type="line" smooth="yes"/>
      <point x="496" y="310"/>
      <point x="511" y="322"/>
      <point x="514" y="337" type="curve" smooth="yes"/>
      <point x="547" y="493" type="line" smooth="yes"/>
      <point x="550" y="508"/>
      <point x="541" y="520"/>
      <point x="526" y="520" type="curve" smooth="yes"/>
      <point x="458" y="520" type="line" smooth="yes"/>
      <point x="383" y="520"/>
      <point x="342" y="494"/>
      <point x="309" y="458" type="curve"/>
    </contour>
  </outline>
</glyph>
<glyph name="s" format="1">
  <advance width="592"/>
  <unicode hex="0073"/>
  <outline>
    <contour>
      <point x="287" y="145" type="curve" smooth="yes"/>
      <point x="285" y="135"/>
      <point x="272" y="130"/>
      <point x="261" y="130" type="curve" smooth="yes"/>
      <point x="228" y="130"/>
      <point x="221" y="160"/>
      <point x="192" y="160" type="curve" name="hr01" smooth="yes"/>
      <point x="18" y="160" type="line" smooth="yes"/>
      <point x="4" y="160"/>
      <point x="-10" y="148"/>
      <point x="-12" y="133" type="curve" smooth="yes"/>
      <point x="-20" y="80"/>
      <point x="42" y="-10"/>
      <point x="234" y="-10" type="curve" smooth="yes"/>
      <point x="424" y="-10"/>
      <point x="518" y="45"/>
      <point x="541" y="152" type="curve" smooth="yes"/>
      <point x="555" y="220"/>
      <point x="521" y="309"/>
      <point x="382" y="330" type="curve" smooth="yes"/>
      <point x="281" y="345"/>
      <point x="277" y="357"/>
      <point x="281" y="374" type="curve" smooth="yes"/>
      <point x="283" y="383"/>
      <point x="294" y="390"/>
      <point x="304" y="390" type="curve" smooth="yes"/>
      <point x="333" y="390"/>
      <point x="342" y="360"/>
      <point x="371" y="360" type="curve" name="hr02" smooth="yes"/>
      <point x="539" y="360" type="line" smooth="yes"/>
      <point x="551" y="360"/>
      <point x="565" y="372"/>
      <point x="567" y="387" type="curve" smooth="yes"/>
      <point x="576" y="444"/>
      <point x="490" y="530"/>
      <point x="325" y="530" type="curve" smooth="yes"/>
      <point x="150" y="530"/>
      <point x="65" y="453"/>
      <point x="47" y="367" type="curve" smooth="yes"/>
      <point x="24" y="262"/>
      <point x="104" y="209"/>
      <point x="193" y="192" type="curve" smooth="yes"/>
      <point x="288" y="174"/>
      <point x="291" y="162"/>
    </contour>
  </outline>
</glyph>
<glyph name="t" format="1">
  <advance width="529"/>
  <unicode hex="0074"/>
  <outline>
    <contour>
      <point x="330" y="235" type="line" name="hr00" smooth="yes"/>
      <point x="324" y="204"/>
      <point x="333" y="185"/>
      <point x="363" y="185" type="curve" smooth="yes"/>
      <point x="454" y="185" type="line" smooth="yes"/>
      <point x="469" y="185"/>
      <point x="478" y="173"/>
      <point x="475" y="158" type="curve" smooth="yes"/>
      <point x="447" y="27" type="line" smooth="yes"/>
      <point x="444" y="12"/>
      <point x="430" y="0"/>
      <point x="415" y="0" type="curve" smooth="yes"/>
      <point x="312" y="0" type="line" smooth="yes"/>
      <point x="167" y="0"/>
      <point x="62" y="51"/>
      <point x="97" y="215" type="curve" smooth="yes"/>
      <point x="125" y="345" type="line"/>
      <point x="46" y="345" type="line" smooth="yes"/>
      <point x="31" y="345"/>
      <point x="21" y="357"/>
      <point x="25" y="372" type="curve" smooth="yes"/>
      <point x="50" y="493" type="line" smooth="yes"/>
      <point x="53" y="508"/>
      <point x="68" y="520"/>
      <point x="83" y="520" type="curve" smooth="yes"/>
      <point x="162" y="520" type="line"/>
      <point x="197" y="683" type="line" smooth="yes"/>
      <point x="200" y="698"/>
      <point x="214" y="710"/>
      <point x="229" y="710" type="curve" smooth="yes"/>
      <point x="404" y="710" type="line" smooth="yes"/>
      <point x="419" y="710"/>
      <point x="429" y="698"/>
      <point x="426" y="683" type="curve" smooth="yes"/>
      <point x="391" y="520" type="line"/>
      <point x="517" y="520" type="line" smooth="yes"/>
      <point x="532" y="520"/>
      <point x="541" y="508"/>
      <point x="538" y="493" type="curve" smooth="yes"/>
      <point x="513" y="372" type="line" smooth="yes"/>
      <point x="509" y="357"/>
      <point x="495" y="345"/>
      <point x="480" y="345" type="curve" smooth="yes"/>
      <point x="354" y="345" type="line"/>
    </contour>
  </outline>
</glyph>
<glyph name="u" format="1">
  <advance width="673"/>
  <unicode hex="0075"/>
  <outline>
    <contour>
      <point x="23" y="217" type="line"/>
      <point x="-11" y="59"/>
      <point x="77" y="-10"/>
      <point x="178" y="-10" type="curve" smooth="yes"/>
      <point x="259" y="-10"/>
      <point x="306" y="11"/>
      <point x="349" y="60" type="curve"/>
      <point x="342" y="27" type="line" smooth="yes"/>
      <point x="339" y="12"/>
      <point x="349" y="0"/>
      <point x="364" y="0" type="curve" name="hr01" smooth="yes"/>
      <point x="539" y="0" type="line" smooth="yes"/>
      <point x="554" y="0"/>
      <point x="568" y="12"/>
      <point x="571" y="27" type="curve" smooth="yes"/>
      <point x="670" y="493" type="line" smooth="yes"/>
      <point x="673" y="508"/>
      <point x="664" y="520"/>
      <point x="649" y="520" type="curve" smooth="yes"/>
      <point x="459" y="520" type="line" smooth="yes"/>
      <point x="444" y="520"/>
      <point x="429" y="508"/>
      <point x="426" y="493" type="curve" smooth="yes"/>
      <point x="369" y="224" type="line" smooth="yes"/>
      <point x="361" y="188"/>
      <point x="339" y="169"/>
      <point x="307" y="169" type="curve" name="hr02" smooth="yes"/>
      <point x="275" y="169"/>
      <point x="261" y="188"/>
      <point x="269" y="224" type="curve" smooth="yes"/>
      <point x="326" y="493" type="line" smooth="yes"/>
      <point x="329" y="508"/>
      <point x="320" y="520"/>
      <point x="305" y="520" type="curve" smooth="yes"/>
      <point x="114" y="520" type="line" smooth="yes"/>
      <point x="99" y="520"/>
      <point x="84" y="508"/>
      <point x="81" y="493" type="curve" smooth="yes"/>
    </contour>
  </outline>
</glyph>
<glyph name="v" format="1">
  <advance width="632"/>
  <unicode hex="0076"/>
  <outline>
    <contour>
      <point x="174" y="0" type="line" name="hr00" smooth="yes"/>
      <point x="154" y="0"/>
      <point x="149" y="13"/>
      <point x="146" y="25" type="curve"/>
      <point x="52" y="489" type="line" smooth="yes"/>
      <point x="49" y="505"/>
      <point x="58" y="520"/>
      <point x="82" y="520" type="curve" smooth="yes"/>
      <point x="241" y="520" type="line" smooth="yes"/>
      <point x="261" y="520"/>
      <point x="267" y="507"/>
      <point x="269" y="496" type="curve" smooth="yes"/>
      <point x="299" y="263" type="line"/>
      <point x="429" y="496" type="line" smooth="yes"/>
      <point x="435" y="507"/>
      <point x="447" y="520"/>
      <point x="467" y="520" type="curve" smooth="yes"/>
      <point x="646" y="520" type="line" smooth="yes"/>
      <point x="666" y="520"/>
      <point x="671" y="503"/>
      <point x="662" y="489" type="curve" smooth="yes"/>
      <point x="372" y="25" type="line"/>
      <point x="363" y="13"/>
      <point x="354" y="0"/>
      <point x="334" y="0" type="curve" smooth="yes"/>
    </contour>
  </outline>
</glyph>
<glyph name="x" format="1">
  <advance width="631"/>
  <unicode hex="0078"/>
  <outline>
    <contour>
      <point x="302" y="501" type="line" name="hr00"/>
      <point x="299" y="507"/>
      <point x="294" y="520"/>
      <point x="274" y="520" type="curve"/>
      <point x="97" y="520" type="line"/>
      <point x="79" y="520"/>
      <point x="63" y="500"/>
      <point x="69" y="483" type="curve"/>
      <point x="165" y="275" type="line"/>
      <point x="-50" y="37" type="line"/>
      <point x="-61" y="23"/>
      <point x="-58" y="0"/>
      <point x="-37" y="0" type="curve"/>
      <point x="160" y="0" type="line"/>
      <point x="178" y="0"/>
      <point x="188" y="11"/>
      <point x="193" y="17" type="curve"/>
      <point x="280" y="113" type="line"/>
      <point x="324" y="17" type="line"/>
      <point x="328" y="10"/>
      <point x="333" y="0"/>
      <point x="351" y="0" type="curve"/>
      <point x="533" y="0" type="line"/>
      <point x="557" y="0"/>
      <point x="568" y="20"/>
      <point x="560" y="37" type="curve"/>
      <point x="457" y="262" type="line"/>
      <point x="654" y="483" type="line"/>
      <point x="666" y="495"/>
      <point x="664" y="520"/>
      <point x="642" y="520" type="curve"/>
      <point x="450" y="520" type="line"/>
      <point x="430" y="520"/>
      <point x="419" y="507"/>
      <point x="414" y="501" type="curve"/>
      <point x="340" y="419" type="line"/>
    </contour>
  </outline>
</glyph>
<glyph name="z" format="1">
  <advance width="591"/>
  <unicode hex="007A"/>
  <outline>
    <contour>
      <point x="319" y="172" type="line" name="hr00"/>
      <point x="534" y="338" type="line"/>
      <point x="545" y="346"/>
      <point x="552" y="355"/>
      <point x="555" y="367" type="curve" smooth="yes"/>
      <point x="581" y="493" type="line" smooth="yes"/>
      <point x="584" y="508"/>
      <point x="575" y="520"/>
      <point x="560" y="520" type="curve" smooth="yes"/>
      <point x="118" y="520" type="line" smooth="yes"/>
      <point x="103" y="520"/>
      <point x="88" y="508"/>
      <point x="85" y="493" type="curve" smooth="yes"/>
      <point x="60" y="375" type="line" smooth="yes"/>
      <point x="57" y="360"/>
      <point x="66" y="348"/>
      <point x="81" y="348" type="curve" smooth="yes"/>
      <point x="252" y="348" type="line"/>
      <point x="27" y="177" type="line" smooth="yes"/>
      <point x="16" y="169"/>
      <point x="7" y="158"/>
      <point x="4" y="142" type="curve" smooth="yes"/>
      <point x="-21" y="27" type="line" smooth="yes"/>
      <point x="-24" y="12"/>
      <point x="-14" y="0"/>
      <point x="1" y="0" type="curve" smooth="yes"/>
      <point x="471" y="0" type="line" smooth="yes"/>
      <point x="486" y="0"/>
      <point x="500" y="12"/>
      <point x="503" y="27" type="curve" smooth="yes"/>
      <point x="528" y="145" type="line" smooth="yes"/>
      <point x="532" y="160"/>
      <point x="522" y="172"/>
      <point x="507" y="172" type="curve" smooth="yes"/>
    </contour>
  </outline>
</glyph>
<glyph name="braceleft" format="1">
  <advance width="472"/>
  <unicode hex="007B"/>
  <outline>
    <contour>
      <point x="-10" y="283" type="line" name="hr00" smooth="yes"/>
      <point x="-15" y="262"/>
      <point x="-8" y="250"/>
      <point x="10" y="241" type="curve" smooth="yes"/>
      <point x="25" y="234" type="line" smooth="yes"/>
      <point x="61" y="218"/>
      <point x="66" y="174"/>
      <point x="57" y="131" type="curve" smooth="yes"/>
      <point x="14" y="-72"/>
      <point x="214" y="-158"/>
      <point x="331" y="-158" type="curve" smooth="yes"/>
      <point x="343" y="-158"/>
      <point x="355" y="-148"/>
      <point x="358" y="-136" type="curve" smooth="yes"/>
      <point x="387" y="1" type="line" smooth="yes"/>
      <point x="389" y="13"/>
      <point x="381" y="22"/>
      <point x="372" y="23" type="curve" smooth="yes"/>
      <point x="301" y="32"/>
      <point x="252" y="61"/>
      <point x="270" y="142" type="curve" smooth="yes"/>
      <point x="287" y="222"/>
      <point x="266" y="296"/>
      <point x="232" y="309" type="curve"/>
      <point x="272" y="322"/>
      <point x="322" y="388"/>
      <point x="341" y="476" type="curve" smooth="yes"/>
      <point x="358" y="557"/>
      <point x="419" y="586"/>
      <point x="494" y="595" type="curve" smooth="yes"/>
      <point x="503" y="596"/>
      <point x="515" y="605"/>
      <point x="518" y="617" type="curve" smooth="yes"/>
      <point x="547" y="754" type="line" smooth="yes"/>
      <point x="549" y="766"/>
      <point x="541" y="776"/>
      <point x="529" y="776" type="curve" smooth="yes"/>
      <point x="332" y="776"/>
      <point x="176" y="690"/>
      <point x="133" y="487" type="curve" smooth="yes"/>
      <point x="124" y="444"/>
      <point x="100" y="400"/>
      <point x="57" y="384" type="curve" smooth="yes"/>
      <point x="39" y="377" type="line" smooth="yes"/>
      <point x="17" y="368"/>
      <point x="5" y="356"/>
      <point x="1" y="335" type="curve" smooth="yes"/>
    </contour>
  </outline>
</glyph>
<glyph name="braceright" format="1">
  <advance width="471"/>
  <unicode hex="007D"/>
  <outline>
    <contour>
      <point x="487" y="335" type="line" name="hr00" smooth="yes"/>
      <point x="491" y="356"/>
      <point x="485" y="368"/>
      <point x="467" y="377" type="curve" smooth="yes"/>
      <point x="451" y="384" type="line" smooth="yes"/>
      <point x="416" y="400"/>
      <point x="410" y="444"/>
      <point x="419" y="487" type="curve" smooth="yes"/>
      <point x="462" y="690"/>
      <point x="252" y="776"/>
      <point x="145" y="776" type="curve" smooth="yes"/>
      <point x="133" y="776"/>
      <point x="121" y="766"/>
      <point x="119" y="754" type="curve" smooth="yes"/>
      <point x="90" y="617" type="line" smooth="yes"/>
      <point x="87" y="605"/>
      <point x="95" y="596"/>
      <point x="104" y="595" type="curve" smooth="yes"/>
      <point x="175" y="586"/>
      <point x="224" y="557"/>
      <point x="207" y="476" type="curve" smooth="yes"/>
      <point x="188" y="388"/>
      <point x="210" y="322"/>
      <point x="244" y="309" type="curve"/>
      <point x="204" y="296"/>
      <point x="153" y="222"/>
      <point x="136" y="142" type="curve" smooth="yes"/>
      <point x="118" y="61"/>
      <point x="57" y="32"/>
      <point x="-18" y="23" type="curve" smooth="yes"/>
      <point x="-27" y="22"/>
      <point x="-39" y="13"/>
      <point x="-41" y="1" type="curve" smooth="yes"/>
      <point x="-70" y="-136" type="line" smooth="yes"/>
      <point x="-72" y="-148"/>
      <point x="-65" y="-158"/>
      <point x="-53" y="-158" type="curve" smooth="yes"/>
      <point x="154" y="-158"/>
      <point x="300" y="-72"/>
      <point x="343" y="131" type="curve" smooth="yes"/>
      <point x="352" y="174"/>
      <point x="377" y="218"/>
      <point x="419" y="234" type="curve" smooth="yes"/>
      <point x="438" y="241" type="line" smooth="yes"/>
      <point x="460" y="250"/>
      <point x="471" y="262"/>
      <point x="476" y="283" type="curve" smooth="yes"/>
    </contour>
  </outline>
</glyph>
<glyph name="asciitilde" format="1">
  <advance width="549"/>
  <unicode hex="007E"/>
  <outline>
    <contour>
      <point x="175" y="416" type="curve" smooth="yes"/>
      <point x="107" y="416"/>
      <point x="67" y="380"/>
      <point x="58" y="336" type="curve" smooth="yes"/>
      <point x="35" y="228" type="line" smooth="yes"/>
      <point x="30" y="203"/>
      <point x="30" y="191"/>
      <point x="49" y="191" type="curve"/>
      <point x="58" y="192"/>
      <point x="65" y="196"/>
      <point x="71" y="200" type="curve" smooth="yes"/>
      <point x="83" y="209"/>
      <point x="113" y="226"/>
      <point x="154" y="226" type="curve" smooth="yes"/>
      <point x="237" y="226"/>
      <point x="287" y="184"/>
      <point x="376" y="184" type="curve" name="hr01" smooth="yes"/>
      <point x="444" y="184"/>
      <point x="483" y="220"/>
      <point x="493" y="264" type="curve" smooth="yes"/>
      <point x="516" y="372" type="line" smooth="yes"/>
      <point x="521" y="397"/>
      <point x="520" y="409"/>
      <point x="501" y="409" type="curve"/>
      <point x="492" y="408"/>
      <point x="485" y="404"/>
      <point x="480" y="400" type="curve" smooth="yes"/>
      <point x="468" y="391"/>
      <point x="438" y="374"/>
      <point x="397" y="374" type="curve" smooth="yes"/>
      <point x="314" y="374"/>
      <point x="264" y="416"/>
    </contour>
  </outline>
</glyph>
<glyph name="exclamdown" format="1">
  <advance width="322"/>
  <unicode hex="00A1"/>
  <outline>
    <contour>
      <point x="74" y="292" type="line" name="hr00"/>
      <point x="59" y="292"/>
      <point x="49" y="304"/>
      <point x="52" y="319" type="curve" smooth="yes"/>
      <point x="89" y="493" type="line" smooth="yes"/>
      <point x="92" y="508"/>
      <point x="107" y="520"/>
      <point x="122" y="520" type="curve" smooth="yes"/>
      <point x="296" y="520" type="line" smooth="yes"/>
      <point x="311" y="520"/>
      <point x="320" y="508"/>
      <point x="317" y="493" type="curve" smooth="yes"/>
      <point x="280" y="319" type="line" smooth="yes"/>
      <point x="277" y="304"/>
      <point x="263" y="292"/>
      <point x="248" y="292" type="curve" smooth="yes"/>
    </contour>
    <contour>
      <point x="-27" y="-180" type="line"/>
      <point x="-42" y="-180"/>
      <point x="-51" y="-168"/>
      <point x="-48" y="-153" type="curve" smooth="yes"/>
      <point x="32" y="225" type="line" smooth="yes"/>
      <point x="36" y="240"/>
      <point x="50" y="252"/>
      <point x="65" y="252" type="curve" smooth="yes"/>
      <point x="239" y="252" type="line" smooth="yes"/>
      <point x="254" y="252"/>
      <point x="264" y="240"/>
      <point x="260" y="225" type="curve" smooth="yes"/>
      <point x="180" y="-153" type="line" smooth="yes"/>
      <point x="177" y="-168"/>
      <point x="162" y="-180"/>
      <point x="147" y="-180" type="curve" smooth="yes"/>
    </contour>
  </outline>
</glyph>
<glyph name="cent" format="1">
  <advance width="633"/>
  <unicode hex="00A2"/>
  <outline>
    <contour>
      <point x="153" y="-100" type="curve" name="hr00"/>
      <point x="302" y="-100" type="line"/>
      <point x="317" y="-100"/>
      <point x="332" y="-88"/>
      <point x="335" y="-73" type="curve"/>
      <point x="348" y="-1" type="line"/>
      <point x="510" y="31"/>
      <point x="571" y="147"/>
      <point x="582" y="184" type="curve" smooth="yes"/>
      <point x="586" y="199"/>
      <point x="575" y="211"/>
      <point x="560" y="211" type="curve"/>
      <point x="365" y="211" type="line"/>
      <point x="350" y="211"/>
      <point x="340" y="203"/>
      <point x="332" y="191" type="curve" smooth="yes"/>
      <point x="320" y="172"/>
      <point x="313" y="161"/>
      <point x="289" y="161" type="curve" smooth="yes"/>
      <point x="258" y="161"/>
      <point x="255" y="181"/>
      <point x="262" y="224" type="curve" smooth="yes"/>
      <point x="265" y="243"/>
      <point x="270" y="266"/>
      <point x="277" y="295" type="curve" smooth="yes"/>
      <point x="287" y="335"/>
      <point x="300" y="359"/>
      <point x="331" y="359" type="curve" smooth="yes"/>
      <point x="351" y="359"/>
      <point x="356" y="348"/>
      <point x="361" y="329" type="curve" smooth="yes"/>
      <point x="365" y="317"/>
      <point x="371" y="309"/>
      <point x="386" y="309" type="curve"/>
      <point x="581" y="309" type="line"/>
      <point x="596" y="309"/>
      <point x="612" y="321"/>
      <point x="614" y="336" type="curve" smooth="yes"/>
      <point x="620" y="378"/>
      <point x="578" y="475"/>
      <point x="460" y="514" type="curve"/>
      <point x="474" y="583" type="line"/>
      <point x="478" y="598"/>
      <point x="468" y="610"/>
      <point x="453" y="610" type="curve"/>
      <point x="304" y="610" type="line"/>
      <point x="289" y="610"/>
      <point x="275" y="598"/>
      <point x="271" y="583" type="curve"/>
      <point x="258" y="520" type="line"/>
      <point x="144" y="494"/>
      <point x="64" y="418"/>
      <point x="33" y="300" type="curve" smooth="yes"/>
      <point x="27" y="277"/>
      <point x="20" y="240"/>
      <point x="16" y="219" type="curve"/>
      <point x="-1" y="111"/>
      <point x="58" y="39"/>
      <point x="147" y="8" type="curve"/>
      <point x="132" y="-73" type="line"/>
      <point x="129" y="-88"/>
      <point x="138" y="-100"/>
    </contour>
  </outline>
</glyph>
<glyph name="sterling" format="1">
  <advance width="764"/>
  <unicode hex="00A3"/>
  <outline>
    <contour>
      <point x="468" y="-10" type="curve" smooth="yes"/>
      <point x="573" y="-10"/>
      <point x="684" y="69"/>
      <point x="717" y="209" type="curve" smooth="yes"/>
      <point x="719" y="219"/>
      <point x="714" y="228"/>
      <point x="702" y="228" type="curve" name="hr01" smooth="yes"/>
      <point x="551" y="228" type="line" smooth="yes"/>
      <point x="541" y="228"/>
      <point x="536" y="224"/>
      <point x="531" y="219" type="curve" smooth="yes"/>
      <point x="508" y="196"/>
      <point x="490" y="182"/>
      <point x="447" y="182" type="curve" name="hr02" smooth="yes"/>
      <point x="405" y="182"/>
      <point x="389" y="189"/>
      <point x="344" y="199" type="curve"/>
      <point x="350" y="217"/>
      <point x="353" y="234"/>
      <point x="357" y="250" type="curve"/>
      <point x="465" y="250" type="line" smooth="yes"/>
      <point x="480" y="250"/>
      <point x="494" y="262"/>
      <point x="497" y="277" type="curve" smooth="yes"/>
      <point x="521" y="389" type="line" smooth="yes"/>
      <point x="524" y="404"/>
      <point x="515" y="416"/>
      <point x="500" y="416" type="curve" smooth="yes"/>
      <point x="384" y="416" type="line"/>
      <point x="394" y="468"/>
      <point x="408" y="516"/>
      <point x="451" y="516" type="curve" smooth="yes"/>
      <point x="475" y="516"/>
      <point x="487" y="504"/>
      <point x="493" y="472" type="curve" smooth="yes"/>
      <point x="497" y="450"/>
      <point x="506" y="443"/>
      <point x="528" y="443" type="curve" smooth="yes"/>
      <point x="732" y="443" type="line" smooth="yes"/>
      <point x="744" y="443"/>
      <point x="756" y="453"/>
      <point x="758" y="465" type="curve" smooth="yes"/>
      <point x="790" y="627"/>
      <point x="643" y="711"/>
      <point x="473" y="711" type="curve" smooth="yes"/>
      <point x="259" y="711"/>
      <point x="152" y="618"/>
      <point x="132" y="416" type="curve"/>
      <point x="92" y="416" type="line" smooth="yes"/>
      <point x="77" y="416"/>
      <point x="62" y="404"/>
      <point x="59" y="389" type="curve" smooth="yes"/>
      <point x="35" y="277" type="line" smooth="yes"/>
      <point x="32" y="262"/>
      <point x="42" y="250"/>
      <point x="57" y="250" type="curve" smooth="yes"/>
      <point x="132" y="250" type="line"/>
      <point x="130" y="235"/>
      <point x="129" y="219"/>
      <point x="125" y="202" type="curve"/>
      <point x="51" y="166"/>
      <point x="-1" y="96"/>
      <point x="-21" y="18" type="curve" smooth="yes"/>
      <point x="-23" y="8"/>
      <point x="-15" y="0"/>
      <point x="-5" y="0" type="curve" smooth="yes"/>
      <point x="149" y="0" type="line" smooth="yes"/>
      <point x="156" y="0"/>
      <point x="161" y="4"/>
      <point x="165" y="9" type="curve" smooth="yes"/>
      <point x="181" y="28"/>
      <point x="202" y="35"/>
      <point x="236" y="35" type="curve" name="hr03" smooth="yes"/>
      <point x="304" y="35"/>
      <point x="376" y="-10"/>
    </contour>
  </outline>
</glyph>
<glyph name="currency" format="1">
  <advance width="634"/>
  <unicode hex="00A4"/>
  <outline>
    <contour>
      <point x="17" y="153" type="line" name="hr00"/>
      <point x="4" y="143"/>
      <point x="0" y="125"/>
      <point x="8" y="115" type="curve"/>
      <point x="73" y="33" type="line"/>
      <point x="81" y="22"/>
      <point x="99" y="23"/>
      <point x="111" y="33" type="curve"/>
      <point x="162" y="74" type="line"/>
      <point x="192" y="59"/>
      <point x="226" y="50"/>
      <point x="265" y="50" type="curve" smooth="yes"/>
      <point x="307" y="50"/>
      <point x="348" y="60"/>
      <point x="387" y="78" type="curve"/>
      <point x="388" y="75"/>
      <point x="389" y="72"/>
      <point x="392" y="70" type="curve"/>
      <point x="429" y="24" type="line"/>
      <point x="436" y="14"/>
      <point x="454" y="13"/>
      <point x="467" y="24" type="curve"/>
      <point x="549" y="92" type="line"/>
      <point x="562" y="102"/>
      <point x="565" y="120"/>
      <point x="557" y="130" type="curve"/>
      <point x="521" y="176" type="line"/>
      <point x="519" y="179"/>
      <point x="516" y="181"/>
      <point x="514" y="182" type="curve"/>
      <point x="540" y="217"/>
      <point x="559" y="257"/>
      <point x="568" y="300" type="curve" smooth="yes"/>
      <point x="576" y="338"/>
      <point x="575" y="374"/>
      <point x="567" y="407" type="curve"/>
      <point x="615" y="447" type="line"/>
      <point x="627" y="457"/>
      <point x="632" y="475"/>
      <point x="623" y="485" type="curve"/>
      <point x="559" y="567" type="line"/>
      <point x="551" y="578"/>
      <point x="533" y="577"/>
      <point x="521" y="567" type="curve"/>
      <point x="471" y="527" type="line"/>
      <point x="442" y="542"/>
      <point x="408" y="550"/>
      <point x="371" y="550" type="curve" smooth="yes"/>
      <point x="329" y="550"/>
      <point x="288" y="539"/>
      <point x="250" y="521" type="curve"/>
      <point x="249" y="524"/>
      <point x="247" y="526"/>
      <point x="245" y="529" type="curve"/>
      <point x="209" y="575" type="line"/>
      <point x="201" y="585"/>
      <point x="183" y="586"/>
      <point x="171" y="575" type="curve"/>
      <point x="89" y="507" type="line"/>
      <point x="75" y="497"/>
      <point x="73" y="479"/>
      <point x="80" y="469" type="curve"/>
      <point x="117" y="423" type="line"/>
      <point x="118" y="420"/>
      <point x="120" y="418"/>
      <point x="122" y="417" type="curve"/>
      <point x="96" y="382"/>
      <point x="77" y="342"/>
      <point x="68" y="300" type="curve" smooth="yes"/>
      <point x="60" y="263"/>
      <point x="60" y="227"/>
      <point x="68" y="196" type="curve"/>
    </contour>
    <contour>
      <point x="228" y="300" type="curve" smooth="yes"/>
      <point x="239" y="350"/>
      <point x="287" y="390"/>
      <point x="337" y="390" type="curve" smooth="yes"/>
      <point x="387" y="390"/>
      <point x="419" y="350"/>
      <point x="408" y="300" type="curve" smooth="yes"/>
      <point x="398" y="250"/>
      <point x="349" y="210"/>
      <point x="299" y="210" type="curve" smooth="yes"/>
      <point x="249" y="210"/>
      <point x="218" y="250"/>
    </contour>
  </outline>
</glyph>
<glyph name="yen" format="1">
  <advance width="753"/>
  <unicode hex="00A5"/>
  <outline>
    <contour>
      <point x="135" y="303" type="line" name="hr00" smooth="yes"/>
      <point x="120" y="303"/>
      <point x="105" y="291"/>
      <point x="102" y="276" type="curve" smooth="yes"/>
      <point x="78" y="160" type="line"/>
      <point x="74" y="145"/>
      <point x="84" y="133"/>
      <point x="99" y="133" type="curve" smooth="yes"/>
      <point x="216" y="133" type="line"/>
      <point x="193" y="27" type="line" smooth="yes"/>
      <point x="190" y="12"/>
      <point x="200" y="0"/>
      <point x="215" y="0" type="curve" smooth="yes"/>
      <point x="411" y="0" type="line" smooth="yes"/>
      <point x="426" y="0"/>
      <point x="440" y="12"/>
      <point x="443" y="27" type="curve" smooth="yes"/>
      <point x="466" y="133" type="line"/>
      <point x="584" y="133" type="line" smooth="yes"/>
      <point x="599" y="133"/>
      <point x="613" y="145"/>
      <point x="617" y="160" type="curve"/>
      <point x="641" y="276" type="line" smooth="yes"/>
      <point x="644" y="291"/>
      <point x="635" y="303"/>
      <point x="620" y="303" type="curve" smooth="yes"/>
      <point x="543" y="303" type="line"/>
      <point x="805" y="669" type="line"/>
      <point x="814" y="681"/>
      <point x="809" y="700"/>
      <point x="791" y="700" type="curve" smooth="yes"/>
      <point x="593" y="700" type="line" smooth="yes"/>
      <point x="566" y="700"/>
      <point x="550" y="681"/>
      <point x="546" y="675" type="curve" smooth="yes"/>
      <point x="403" y="474" type="line"/>
      <point x="346" y="675" type="line"/>
      <point x="344" y="681"/>
      <point x="336" y="700"/>
      <point x="309" y="700" type="curve" smooth="yes"/>
      <point x="131" y="700" type="line" smooth="yes"/>
      <point x="115" y="700"/>
      <point x="100" y="685"/>
      <point x="105" y="669" type="curve" smooth="yes"/>
      <point x="210" y="303" type="line"/>
    </contour>
  </outline>
</glyph>
<glyph name="brokenbar" format="1">
  <advance width="294"/>
  <unicode hex="00A6"/>
  <outline>
    <contour>
      <point x="93" y="354" type="line" name="hr00"/>
      <point x="78" y="354"/>
      <point x="63" y="342"/>
      <point x="60" y="327" type="curve" smooth="yes"/>
      <point x="-4" y="27" type="line" smooth="yes"/>
      <point x="-7" y="12"/>
      <point x="3" y="0"/>
      <point x="18" y="0" type="curve" smooth="yes"/>
      <point x="152" y="0" type="line" smooth="yes"/>
      <point x="167" y="0"/>
      <point x="181" y="12"/>
      <point x="184" y="27" type="curve" smooth="yes"/>
      <point x="248" y="327" type="line" smooth="yes"/>
      <point x="251" y="342"/>
      <point x="242" y="354"/>
      <point x="227" y="354" type="curve" smooth="yes"/>
    </contour>
    <contour>
      <point x="194" y="829" type="line"/>
      <point x="179" y="829"/>
      <point x="164" y="817"/>
      <point x="161" y="802" type="curve" smooth="yes"/>
      <point x="97" y="502" type="line" smooth="yes"/>
      <point x="94" y="487"/>
      <point x="103" y="475"/>
      <point x="118" y="475" type="curve" smooth="yes"/>
      <point x="252" y="475" type="line" smooth="yes"/>
      <point x="267" y="475"/>
      <point x="282" y="487"/>
      <point x="285" y="502" type="curve" smooth="yes"/>
      <point x="349" y="802" type="line" smooth="yes"/>
      <point x="352" y="817"/>
      <point x="343" y="829"/>
      <point x="328" y="829" type="curve" smooth="yes"/>
    </contour>
  </outline>
</glyph>
<glyph name="dieresis" format="1">
  <advance width="467"/>
  <unicode hex="00A8"/>
  <outline>
    <contour>
      <point x="85" y="765" type="line" name="hr00" smooth="yes"/>
      <point x="72" y="765"/>
      <point x="60" y="755"/>
      <point x="57" y="742" type="curve" smooth="yes"/>
      <point x="31" y="618" type="line" smooth="yes"/>
      <point x="28" y="605"/>
      <point x="36" y="595"/>
      <point x="49" y="595" type="curve" smooth="yes"/>
      <point x="173" y="595" type="line" smooth="yes"/>
      <point x="186" y="595"/>
      <point x="198" y="605"/>
      <point x="201" y="618" type="curve" smooth="yes"/>
      <point x="227" y="742" type="line" smooth="yes"/>
      <point x="230" y="755"/>
      <point x="222" y="765"/>
      <point x="209" y="765" type="curve" smooth="yes"/>
    </contour>
    <contour>
      <point x="324" y="765" type="line" smooth="yes"/>
      <point x="311" y="765"/>
      <point x="299" y="755"/>
      <point x="296" y="742" type="curve" smooth="yes"/>
      <point x="270" y="618" type="line" smooth="yes"/>
      <point x="267" y="605"/>
      <point x="275" y="595"/>
      <point x="288" y="595" type="curve" smooth="yes"/>
      <point x="412" y="595" type="line" smooth="yes"/>
      <point x="425" y="595"/>
      <point x="437" y="605"/>
      <point x="440" y="618" type="curve" smooth="yes"/>
      <point x="466" y="742" type="line" smooth="yes"/>
      <point x="469" y="755"/>
      <point x="461" y="765"/>
      <point x="448" y="765" type="curve" smooth="yes"/>
    </contour>
  </outline>
</glyph>
<glyph name="copyright" format="1">
  <advance width="795"/>
  <unicode hex="00A9"/>
  <outline>
    <contour>
      <point x="377" y="385" type="curve" smooth="yes"/>
      <point x="385" y="413"/>
      <point x="395" y="439"/>
      <point x="426" y="439" type="curve" smooth="yes"/>
      <point x="445" y="439"/>
      <point x="453" y="434"/>
      <point x="458" y="414" type="curve"/>
      <point x="461" y="406"/>
      <point x="464" y="393"/>
      <point x="480" y="393" type="curve" name="hr01" smooth="yes"/>
      <point x="576" y="393" type="line" smooth="yes"/>
      <point x="589" y="393"/>
      <point x="601" y="402"/>
      <point x="603" y="415" type="curve" smooth="yes"/>
      <point x="612" y="472"/>
      <point x="553" y="544"/>
      <point x="438" y="544" type="curve" smooth="yes"/>
      <point x="322" y="544"/>
      <point x="265" y="484"/>
      <point x="240" y="390" type="curve" smooth="yes"/>
      <point x="237" y="380"/>
      <point x="225" y="322"/>
      <point x="224" y="312" type="curve" smooth="yes"/>
      <point x="209" y="218"/>
      <point x="280" y="158"/>
      <point x="376" y="158" type="curve" smooth="yes"/>
      <point x="511" y="158"/>
      <point x="560" y="230"/>
      <point x="576" y="287" type="curve" smooth="yes"/>
      <point x="579" y="300"/>
      <point x="571" y="309"/>
      <point x="558" y="309" type="curve" smooth="yes"/>
      <point x="462" y="309" type="line" smooth="yes"/>
      <point x="446" y="309"/>
      <point x="437" y="296"/>
      <point x="432" y="288" type="curve" smooth="yes"/>
      <point x="417" y="268"/>
      <point x="407" y="263"/>
      <point x="388" y="263" type="curve" name="hr02" smooth="yes"/>
      <point x="357" y="263"/>
      <point x="359" y="289"/>
      <point x="363" y="317" type="curve" smooth="yes"/>
      <point x="364" y="327"/>
      <point x="374" y="375"/>
    </contour>
    <contour>
      <point x="49" y="360" type="curve" smooth="yes"/>
      <point x="7" y="161"/>
      <point x="153" y="-10"/>
      <point x="342" y="-10" type="curve" smooth="yes"/>
      <point x="551" y="-10"/>
      <point x="727" y="141"/>
      <point x="769" y="340" type="curve" smooth="yes"/>
      <point x="811" y="539"/>
      <point x="664" y="710"/>
      <point x="475" y="710" type="curve" smooth="yes"/>
      <point x="266" y="710"/>
      <point x="91" y="559"/>
    </contour>
    <contour>
      <point x="149" y="350" type="curve" smooth="yes"/>
      <point x="180" y="496"/>
      <point x="319" y="615"/>
      <point x="465" y="615" type="curve" smooth="yes"/>
      <point x="611" y="615"/>
      <point x="700" y="496"/>
      <point x="669" y="350" type="curve" smooth="yes"/>
      <point x="638" y="204"/>
      <point x="499" y="85"/>
      <point x="353" y="85" type="curve" smooth="yes"/>
      <point x="207" y="85"/>
      <point x="118" y="204"/>
    </contour>
  </outline>
</glyph>
<glyph name="ordfeminine" format="1">
  <advance width="349"/>
  <unicode hex="00AA"/>
  <outline>
    <contour>
      <point x="66" y="510" type="curve" smooth="yes"/>
      <point x="56" y="464"/>
      <point x="90" y="429"/>
      <point x="149" y="429" type="curve" smooth="yes"/>
      <point x="180" y="429"/>
      <point x="209" y="441"/>
      <point x="228" y="462" type="curve"/>
      <point x="225" y="448" type="line" smooth="yes"/>
      <point x="223" y="441"/>
      <point x="229" y="434"/>
      <point x="237" y="434" type="curve" smooth="yes"/>
      <point x="326" y="434" type="line" smooth="yes"/>
      <point x="334" y="434"/>
      <point x="341" y="441"/>
      <point x="343" y="448" type="curve" smooth="yes"/>
      <point x="374" y="594" type="line" smooth="yes"/>
      <point x="390" y="670"/>
      <point x="333" y="705"/>
      <point x="250" y="705" type="curve" smooth="yes"/>
      <point x="144" y="705"/>
      <point x="118" y="655"/>
      <point x="110" y="629" type="curve" smooth="yes"/>
      <point x="108" y="622"/>
      <point x="112" y="617"/>
      <point x="118" y="617" type="curve" smooth="yes"/>
      <point x="205" y="617" type="line" smooth="yes"/>
      <point x="222" y="617"/>
      <point x="226" y="633"/>
      <point x="243" y="633" type="curve" name="hr01" smooth="yes"/>
      <point x="258" y="633"/>
      <point x="258" y="626"/>
      <point x="254" y="607" type="curve"/>
      <point x="198" y="598" type="line" smooth="yes"/>
      <point x="126" y="586"/>
      <point x="77" y="560"/>
    </contour>
    <contour>
      <point x="200" y="505" type="curve" smooth="yes"/>
      <point x="188" y="505"/>
      <point x="181" y="510"/>
      <point x="183" y="518" type="curve" smooth="yes"/>
      <point x="184" y="525"/>
      <point x="192" y="532"/>
      <point x="211" y="537" type="curve" smooth="yes"/>
      <point x="240" y="544" type="line"/>
      <point x="234" y="516"/>
      <point x="220" y="505"/>
    </contour>
  </outline>
</glyph>
<glyph name="guillemotleft" format="1">
  <advance width="633"/>
  <unicode hex="00AB"/>
  <outline>
    <contour>
      <point x="205" y="312" type="line" name="hr00"/>
      <point x="289" y="381" type="line" smooth="yes"/>
      <point x="305" y="394"/>
      <point x="312" y="403"/>
      <point x="317" y="426" type="curve" smooth="yes"/>
      <point x="350" y="584" type="line" smooth="yes"/>
      <point x="352" y="596"/>
      <point x="344" y="606"/>
      <point x="332" y="606" type="curve" smooth="yes"/>
      <point x="331" y="606"/>
      <point x="324" y="606"/>
      <point x="317" y="601" type="curve" smooth="yes"/>
      <point x="55" y="390" type="line" smooth="yes"/>
      <point x="46" y="383"/>
      <point x="38" y="374"/>
      <point x="35" y="362" type="curve" smooth="yes"/>
      <point x="21" y="296" type="line" smooth="yes"/>
      <point x="19" y="284"/>
      <point x="23" y="275"/>
      <point x="29" y="268" type="curve" smooth="yes"/>
      <point x="202" y="57" type="line" smooth="yes"/>
      <point x="207" y="52"/>
      <point x="214" y="52"/>
      <point x="215" y="52" type="curve" smooth="yes"/>
      <point x="227" y="52"/>
      <point x="239" y="62"/>
      <point x="241" y="74" type="curve" smooth="yes"/>
      <point x="268" y="198" type="line" smooth="yes"/>
      <point x="273" y="221"/>
      <point x="270" y="230"/>
      <point x="260" y="243" type="curve" smooth="yes"/>
    </contour>
    <contour>
      <point x="495" y="312" type="line"/>
      <point x="579" y="381" type="line" smooth="yes"/>
      <point x="595" y="394"/>
      <point x="602" y="403"/>
      <point x="607" y="426" type="curve" smooth="yes"/>
      <point x="640" y="584" type="line" smooth="yes"/>
      <point x="642" y="596"/>
      <point x="634" y="606"/>
      <point x="622" y="606" type="curve" smooth="yes"/>
      <point x="621" y="606"/>
      <point x="614" y="606"/>
      <point x="607" y="601" type="curve" smooth="yes"/>
      <point x="345" y="390" type="line" smooth="yes"/>
      <point x="336" y="383"/>
      <point x="328" y="374"/>
      <point x="325" y="362" type="curve" smooth="yes"/>
      <point x="311" y="296" type="line" smooth="yes"/>
      <point x="309" y="284"/>
      <point x="313" y="275"/>
      <point x="319" y="268" type="curve" smooth="yes"/>
      <point x="492" y="57" type="line" smooth="yes"/>
      <point x="497" y="52"/>
      <point x="504" y="52"/>
      <point x="505" y="52" type="curve" smooth="yes"/>
      <point x="517" y="52"/>
      <point x="529" y="62"/>
      <point x="531" y="74" type="curve" smooth="yes"/>
      <point x="558" y="198" type="line" smooth="yes"/>
      <point x="563" y="221"/>
      <point x="560" y="230"/>
      <point x="550" y="243" type="curve" smooth="yes"/>
    </contour>
  </outline>
</glyph>
<glyph name="logicalnot" format="1">
  <advance width="563"/>
  <unicode hex="00AC"/>
  <outline>
    <contour>
      <point x="295" y="80" type="line" name="hr00" smooth="yes"/>
      <point x="291" y="65"/>
      <point x="301" y="53"/>
      <point x="316" y="53" type="curve" smooth="yes"/>
      <point x="432" y="53" type="line" smooth="yes"/>
      <point x="447" y="53"/>
      <point x="461" y="65"/>
      <point x="465" y="80" type="curve" smooth="yes"/>
      <point x="516" y="323" type="line" smooth="yes"/>
      <point x="519" y="338"/>
      <point x="510" y="350"/>
      <point x="495" y="350" type="curve" smooth="yes"/>
      <point x="80" y="350" type="line" smooth="yes"/>
      <point x="65" y="350"/>
      <point x="50" y="338"/>
      <point x="47" y="323" type="curve" smooth="yes"/>
      <point x="22" y="207" type="line" smooth="yes"/>
      <point x="19" y="192"/>
      <point x="29" y="180"/>
      <point x="44" y="180" type="curve" smooth="yes"/>
      <point x="316" y="180" type="line"/>
    </contour>
  </outline>
</glyph>
<glyph name="registered" format="1">
  <advance width="795"/>
  <unicode hex="00AE"/>
  <outline>
    <contour>
      <point x="239" y="168" type="curve" name="hr00"/>
      <point x="326" y="168" type="line" smooth="yes"/>
      <point x="339" y="168"/>
      <point x="350" y="177"/>
      <point x="353" y="190" type="curve" smooth="yes"/>
      <point x="372" y="282" type="line"/>
      <point x="393" y="282" type="line"/>
      <point x="406" y="187" type="line" smooth="yes"/>
      <point x="408" y="174"/>
      <point x="417" y="168"/>
      <point x="431" y="168" type="curve" smooth="yes"/>
      <point x="516" y="168" type="line" smooth="yes"/>
      <point x="531" y="168"/>
      <point x="541" y="179"/>
      <point x="543" y="190" type="curve" smooth="yes"/>
      <point x="544" y="196"/>
      <point x="543" y="200"/>
      <point x="542" y="204" type="curve" smooth="yes"/>
      <point x="519" y="307" type="line"/>
      <point x="552" y="323"/>
      <point x="585" y="356"/>
      <point x="596" y="409" type="curve" smooth="yes"/>
      <point x="616" y="501"/>
      <point x="529" y="534"/>
      <point x="453" y="534" type="curve" smooth="yes"/>
      <point x="317" y="534" type="line" smooth="yes"/>
      <point x="304" y="534"/>
      <point x="293" y="525"/>
      <point x="290" y="512" type="curve" smooth="yes"/>
      <point x="222" y="190" type="line" smooth="yes"/>
      <point x="219" y="177"/>
      <point x="226" y="168"/>
    </contour>
    <contour>
      <point x="405" y="437" type="line"/>
      <point x="442" y="437" type="line" smooth="yes"/>
      <point x="458" y="437"/>
      <point x="465" y="425"/>
      <point x="461" y="409" type="curve" smooth="yes"/>
      <point x="458" y="393"/>
      <point x="446" y="381"/>
      <point x="430" y="381" type="curve" smooth="yes"/>
      <point x="393" y="381" type="line"/>
    </contour>
    <contour>
      <point x="49" y="360" type="curve" smooth="yes"/>
      <point x="7" y="161"/>
      <point x="153" y="-10"/>
      <point x="342" y="-10" type="curve" smooth="yes"/>
      <point x="551" y="-10"/>
      <point x="727" y="141"/>
      <point x="769" y="340" type="curve" smooth="yes"/>
      <point x="811" y="539"/>
      <point x="664" y="710"/>
      <point x="475" y="710" type="curve" smooth="yes"/>
      <point x="266" y="710"/>
      <point x="91" y="559"/>
    </contour>
    <contour>
      <point x="149" y="350" type="curve" smooth="yes"/>
      <point x="180" y="496"/>
      <point x="319" y="615"/>
      <point x="465" y="615" type="curve" smooth="yes"/>
      <point x="611" y="615"/>
      <point x="700" y="496"/>
      <point x="669" y="350" type="curve" smooth="yes"/>
      <point x="638" y="204"/>
      <point x="499" y="85"/>
      <point x="353" y="85" type="curve" smooth="yes"/>
      <point x="207" y="85"/>
      <point x="118" y="204"/>
    </contour>
  </outline>
</glyph>
<glyph name="degree" format="1">
  <advance width="429"/>
  <unicode hex="00B0"/>
  <outline>
    <contour>
      <point x="185" y="519" type="curve" name="hr00" smooth="yes"/>
      <point x="194" y="564"/>
      <point x="232" y="595"/>
      <point x="277" y="595" type="curve" smooth="yes"/>
      <point x="322" y="595"/>
      <point x="346" y="564"/>
      <point x="337" y="519" type="curve" smooth="yes"/>
      <point x="327" y="474"/>
      <point x="290" y="443"/>
      <point x="245" y="443" type="curve" smooth="yes"/>
      <point x="200" y="443"/>
      <point x="175" y="474"/>
    </contour>
    <contour>
      <point x="65" y="519" type="curve" smooth="yes"/>
      <point x="42" y="411"/>
      <point x="112" y="328"/>
      <point x="220" y="328" type="curve" smooth="yes"/>
      <point x="328" y="328"/>
      <point x="434" y="411"/>
      <point x="457" y="519" type="curve" smooth="yes"/>
      <point x="480" y="627"/>
      <point x="409" y="710"/>
      <point x="301" y="710" type="curve" smooth="yes"/>
      <point x="193" y="710"/>
      <point x="88" y="627"/>
    </contour>
  </outline>
</glyph>
<glyph name="paragraph" format="1">
  <advance width="712"/>
  <unicode hex="00B6"/>
  <outline>
    <contour>
      <point x="68" y="503" type="curve" name="hr00" smooth="yes"/>
      <point x="45" y="394"/>
      <point x="115" y="306"/>
      <point x="224" y="306" type="curve"/>
      <point x="143" y="-73" type="line" smooth="yes"/>
      <point x="140" y="-88"/>
      <point x="149" y="-100"/>
      <point x="164" y="-100" type="curve" smooth="yes"/>
      <point x="285" y="-100" type="line" smooth="yes"/>
      <point x="300" y="-100"/>
      <point x="315" y="-88"/>
      <point x="318" y="-73" type="curve" smooth="yes"/>
      <point x="450" y="550" type="line"/>
      <point x="529" y="550" type="line"/>
      <point x="397" y="-73" type="line" smooth="yes"/>
      <point x="394" y="-88"/>
      <point x="403" y="-100"/>
      <point x="418" y="-100" type="curve" smooth="yes"/>
      <point x="539" y="-100" type="line" smooth="yes"/>
      <point x="554" y="-100"/>
      <point x="569" y="-88"/>
      <point x="572" y="-73" type="curve" smooth="yes"/>
      <point x="731" y="673" type="line" smooth="yes"/>
      <point x="734" y="688"/>
      <point x="724" y="700"/>
      <point x="709" y="700" type="curve" smooth="yes"/>
      <point x="307" y="700" type="line" smooth="yes"/>
      <point x="198" y="700"/>
      <point x="92" y="612"/>
    </contour>
  </outline>
</glyph>
<glyph name="periodcentered" format="1">
  <advance width="328"/>
  <unicode hex="00B7"/>
  <outline>
    <contour>
      <point x="35" y="350" type="curve" name="hr00" smooth="yes"/>
      <point x="19" y="273"/>
      <point x="68" y="210"/>
      <point x="145" y="210" type="curve" smooth="yes"/>
      <point x="222" y="210"/>
      <point x="299" y="273"/>
      <point x="315" y="350" type="curve" smooth="yes"/>
      <point x="331" y="427"/>
      <point x="282" y="490"/>
      <point x="205" y="490" type="curve" smooth="yes"/>
      <point x="128" y="490"/>
      <point x="51" y="427"/>
    </contour>
  </outline>
</glyph>
<glyph name="ordmasculine" format="1">
  <advance width="348"/>
  <unicode hex="00BA"/>
  <outline>
    <contour>
      <point x="385" y="594" type="curve" name="hr00" smooth="yes"/>
      <point x="396" y="664"/>
      <point x="332" y="705"/>
      <point x="249" y="705" type="curve" smooth="yes"/>
      <point x="146" y="705"/>
      <point x="106" y="664"/>
      <point x="87" y="594" type="curve" smooth="yes"/>
      <point x="84" y="584"/>
      <point x="76" y="550"/>
      <point x="75" y="540" type="curve" smooth="yes"/>
      <point x="64" y="470"/>
      <point x="122" y="429"/>
      <point x="211" y="429" type="curve" smooth="yes"/>
      <point x="320" y="429"/>
      <point x="354" y="470"/>
      <point x="373" y="540" type="curve" smooth="yes"/>
      <point x="376" y="550"/>
      <point x="384" y="584"/>
    </contour>
    <contour>
      <point x="218" y="511" type="curve" smooth="yes"/>
      <point x="201" y="511"/>
      <point x="199" y="517"/>
      <point x="202" y="545" type="curve" smooth="yes"/>
      <point x="203" y="555"/>
      <point x="209" y="579"/>
      <point x="212" y="589" type="curve" smooth="yes"/>
      <point x="219" y="614"/>
      <point x="225" y="623"/>
      <point x="242" y="623" type="curve" smooth="yes"/>
      <point x="259" y="623"/>
      <point x="261" y="614"/>
      <point x="258" y="589" type="curve"/>
      <point x="257" y="579"/>
      <point x="251" y="555"/>
      <point x="248" y="545" type="curve" smooth="yes"/>
      <point x="240" y="517"/>
      <point x="235" y="511"/>
    </contour>
  </outline>
</glyph>
<glyph name="guillemotright" format="1">
  <advance width="633"/>
  <unicode hex="00BB"/>
  <outline>
    <contour>
      <point x="442" y="346" type="line" name="hr00"/>
      <point x="358" y="277" type="line" smooth="yes"/>
      <point x="342" y="264"/>
      <point x="335" y="255"/>
      <point x="330" y="232" type="curve" smooth="yes"/>
      <point x="297" y="74" type="line" smooth="yes"/>
      <point x="295" y="62"/>
      <point x="303" y="52"/>
      <point x="315" y="52" type="curve" smooth="yes"/>
      <point x="316" y="52"/>
      <point x="323" y="52"/>
      <point x="330" y="57" type="curve" smooth="yes"/>
      <point x="592" y="268" type="line" smooth="yes"/>
      <point x="601" y="275"/>
      <point x="609" y="284"/>
      <point x="612" y="296" type="curve" smooth="yes"/>
      <point x="626" y="362" type="line" smooth="yes"/>
      <point x="628" y="374"/>
      <point x="624" y="383"/>
      <point x="618" y="390" type="curve" smooth="yes"/>
      <point x="445" y="601" type="line" smooth="yes"/>
      <point x="440" y="606"/>
      <point x="433" y="606"/>
      <point x="432" y="606" type="curve" smooth="yes"/>
      <point x="420" y="606"/>
      <point x="408" y="596"/>
      <point x="406" y="584" type="curve" smooth="yes"/>
      <point x="379" y="460" type="line" smooth="yes"/>
      <point x="374" y="437"/>
      <point x="377" y="428"/>
      <point x="387" y="415" type="curve" smooth="yes"/>
    </contour>
    <contour>
      <point x="152" y="346" type="line"/>
      <point x="68" y="277" type="line" smooth="yes"/>
      <point x="52" y="264"/>
      <point x="45" y="255"/>
      <point x="40" y="232" type="curve" smooth="yes"/>
      <point x="7" y="74" type="line" smooth="yes"/>
      <point x="5" y="62"/>
      <point x="13" y="52"/>
      <point x="25" y="52" type="curve" smooth="yes"/>
      <point x="26" y="52"/>
      <point x="33" y="52"/>
      <point x="40" y="57" type="curve" smooth="yes"/>
      <point x="302" y="268" type="line" smooth="yes"/>
      <point x="311" y="275"/>
      <point x="319" y="284"/>
      <point x="322" y="296" type="curve" smooth="yes"/>
      <point x="336" y="362" type="line" smooth="yes"/>
      <point x="338" y="374"/>
      <point x="334" y="383"/>
      <point x="328" y="390" type="curve" smooth="yes"/>
      <point x="155" y="601" type="line" smooth="yes"/>
      <point x="150" y="606"/>
      <point x="143" y="606"/>
      <point x="142" y="606" type="curve" smooth="yes"/>
      <point x="130" y="606"/>
      <point x="118" y="596"/>
      <point x="116" y="584" type="curve" smooth="yes"/>
      <point x="89" y="460" type="line" smooth="yes"/>
      <point x="84" y="437"/>
      <point x="87" y="428"/>
      <point x="97" y="415" type="curve" smooth="yes"/>
    </contour>
  </outline>
</glyph>
<glyph name="questiondown" format="1">
  <advance width="649"/>
  <unicode hex="00BF"/>
  <outline>
    <contour>
      <point x="202" y="-190" type="curve" name="hr00" smooth="yes"/>
      <point x="424" y="-190"/>
      <point x="552" y="-65"/>
      <point x="573" y="36" type="curve"/>
      <point x="573" y="37" type="line"/>
      <point x="577" y="52"/>
      <point x="571" y="67"/>
      <point x="555" y="67" type="curve" smooth="yes"/>
      <point x="369" y="67" type="line" smooth="yes"/>
      <point x="318" y="67"/>
      <point x="333" y="5"/>
      <point x="262" y="5" type="curve" smooth="yes"/>
      <point x="242" y="5"/>
      <point x="230" y="17"/>
      <point x="234" y="37" type="curve" smooth="yes"/>
      <point x="245" y="85"/>
      <point x="384" y="148"/>
      <point x="433" y="241" type="curve" smooth="yes"/>
      <point x="434" y="244"/>
      <point x="435" y="246"/>
      <point x="435" y="249" type="curve" smooth="yes"/>
      <point x="437" y="258"/>
      <point x="430" y="267"/>
      <point x="420" y="267" type="curve" smooth="yes"/>
      <point x="206" y="267" type="line" smooth="yes"/>
      <point x="189" y="267"/>
      <point x="182" y="258"/>
      <point x="164" y="238" type="curve" smooth="yes"/>
      <point x="103" y="172"/>
      <point x="-15" y="112"/>
      <point x="-39" y="-3" type="curve" smooth="yes"/>
      <point x="-53" y="-67"/>
      <point x="-29" y="-190"/>
    </contour>
    <contour>
      <point x="419" y="307" type="line"/>
      <point x="434" y="307"/>
      <point x="448" y="319"/>
      <point x="451" y="334" type="curve" smooth="yes"/>
      <point x="485" y="493" type="line" smooth="yes"/>
      <point x="488" y="508"/>
      <point x="479" y="520"/>
      <point x="464" y="520" type="curve" smooth="yes"/>
      <point x="281" y="520" type="line" smooth="yes"/>
      <point x="266" y="520"/>
      <point x="251" y="508"/>
      <point x="248" y="493" type="curve" smooth="yes"/>
      <point x="214" y="334" type="line" smooth="yes"/>
      <point x="211" y="319"/>
      <point x="221" y="307"/>
      <point x="236" y="307" type="curve" smooth="yes"/>
    </contour>
  </outline>
</glyph>
<glyph name="AE" format="1">
  <advance width="1016"/>
  <unicode hex="00C6"/>
  <outline>
    <contour>
      <point x="360" y="700" type="line" smooth="yes"/>
      <point x="333" y="700"/>
      <point x="315" y="682"/>
      <point x="308" y="667" type="curve"/>
      <point x="-50" y="29" type="line" smooth="yes"/>
      <point x="-59" y="16"/>
      <point x="-50" y="0"/>
      <point x="-35" y="0" type="curve" smooth="yes"/>
      <point x="160" y="0" type="line" smooth="yes"/>
      <point x="186" y="0"/>
      <point x="197" y="14"/>
      <point x="204" y="25" type="curve" smooth="yes"/>
      <point x="242" y="91" type="line" name="hr01"/>
      <point x="391" y="91" type="line"/>
      <point x="377" y="27" type="line" smooth="yes"/>
      <point x="374" y="12"/>
      <point x="384" y="0"/>
      <point x="399" y="0" type="curve" name="hr02" smooth="yes"/>
      <point x="890" y="0" type="line" smooth="yes"/>
      <point x="905" y="0"/>
      <point x="919" y="12"/>
      <point x="922" y="27" type="curve" smooth="yes"/>
      <point x="952" y="168" type="line" smooth="yes"/>
      <point x="955" y="183"/>
      <point x="946" y="195"/>
      <point x="931" y="195" type="curve" smooth="yes"/>
      <point x="653" y="195" type="line"/>
      <point x="666" y="258" type="line"/>
      <point x="914" y="258" type="line" smooth="yes"/>
      <point x="929" y="258"/>
      <point x="944" y="270"/>
      <point x="947" y="285" type="curve" smooth="yes"/>
      <point x="975" y="415" type="line" smooth="yes"/>
      <point x="978" y="430"/>
      <point x="968" y="442"/>
      <point x="953" y="442" type="curve" smooth="yes"/>
      <point x="705" y="442" type="line"/>
      <point x="719" y="505" type="line"/>
      <point x="989" y="505" type="line" smooth="yes"/>
      <point x="1004" y="505"/>
      <point x="1018" y="517"/>
      <point x="1022" y="532" type="curve"/>
      <point x="1052" y="673" type="line" smooth="yes"/>
      <point x="1055" y="688"/>
      <point x="1045" y="700"/>
      <point x="1030" y="700" type="curve" smooth="yes"/>
    </contour>
    <contour>
      <point x="334" y="286" type="line" name="hr03"/>
      <point x="447" y="505" type="line"/>
      <point x="479" y="505" type="line"/>
      <point x="432" y="286" type="line"/>
    </contour>
  </outline>
</glyph>
<glyph name="Ccedilla" format="1">
  <advance width="731"/>
  <unicode hex="00C7"/>
  <outline>
    <contour>
      <point x="327" y="434" type="curve" name="hr00" smooth="yes"/>
      <point x="342" y="495"/>
      <point x="374" y="515"/>
      <point x="418" y="515" type="curve" smooth="yes"/>
      <point x="452" y="515"/>
      <point x="476" y="504"/>
      <point x="481" y="461" type="curve"/>
      <point x="485" y="439"/>
      <point x="490" y="432"/>
      <point x="512" y="432" type="curve"/>
      <point x="716" y="432" type="line"/>
      <point x="728" y="432"/>
      <point x="740" y="442"/>
      <point x="743" y="454" type="curve" smooth="yes"/>
      <point x="779" y="636"/>
      <point x="600" y="710"/>
      <point x="440" y="710" type="curve" smooth="yes"/>
      <point x="243" y="710"/>
      <point x="115" y="625"/>
      <point x="68" y="439" type="curve" smooth="yes"/>
      <point x="54" y="382"/>
      <point x="39" y="315"/>
      <point x="30" y="261" type="curve" smooth="yes"/>
      <point x="2" y="101"/>
      <point x="102" y="19"/>
      <point x="242" y="-3" type="curve"/>
      <point x="217" y="-42" type="line"/>
      <point x="204" y="-61"/>
      <point x="204" y="-69"/>
      <point x="211" y="-78" type="curve"/>
      <point x="232" y="-106" type="line"/>
      <point x="242" y="-119"/>
      <point x="268" y="-106"/>
      <point x="286" y="-106" type="curve" smooth="yes"/>
      <point x="306" y="-106"/>
      <point x="311" y="-118"/>
      <point x="309" y="-130" type="curve" smooth="yes"/>
      <point x="306" y="-142"/>
      <point x="295" y="-154"/>
      <point x="276" y="-154" type="curve" smooth="yes"/>
      <point x="242" y="-154"/>
      <point x="241" y="-136"/>
      <point x="220" y="-151" type="curve"/>
      <point x="196" y="-169" type="line"/>
      <point x="168" y="-189"/>
      <point x="219" y="-220"/>
      <point x="272" y="-220" type="curve" smooth="yes"/>
      <point x="332" y="-220"/>
      <point x="368" y="-188"/>
      <point x="379" y="-135" type="curve" smooth="yes"/>
      <point x="390" y="-82"/>
      <point x="369" y="-40"/>
      <point x="318" y="-40" type="curve" smooth="yes"/>
      <point x="314" y="-40"/>
      <point x="296" y="-42"/>
      <point x="287" y="-45" type="curve"/>
      <point x="312" y="-10" type="line"/>
      <point x="327" y="-10" type="line"/>
      <point x="507" y="-10"/>
      <point x="657" y="64"/>
      <point x="699" y="246" type="curve"/>
      <point x="701" y="258"/>
      <point x="693" y="268"/>
      <point x="681" y="268" type="curve"/>
      <point x="477" y="268" type="line"/>
      <point x="455" y="268"/>
      <point x="446" y="262"/>
      <point x="434" y="239" type="curve" smooth="yes"/>
      <point x="413" y="199"/>
      <point x="382" y="185"/>
      <point x="348" y="185" type="curve" smooth="yes"/>
      <point x="304" y="185"/>
      <point x="280" y="205"/>
      <point x="291" y="266" type="curve" smooth="yes"/>
      <point x="301" y="323"/>
      <point x="313" y="379"/>
    </contour>
  </outline>
</glyph>
<glyph name="multiply" format="1">
  <advance width="634"/>
  <unicode hex="00D7"/>
  <outline>
    <contour>
      <point x="257" y="606" type="line"/>
      <point x="248" y="616"/>
      <point x="231" y="616"/>
      <point x="219" y="606" type="curve"/>
      <point x="85" y="497" type="line"/>
      <point x="73" y="486"/>
      <point x="69" y="470"/>
      <point x="77" y="459" type="curve"/>
      <point x="168" y="342" type="line"/>
      <point x="29" y="228" type="line"/>
      <point x="16" y="217"/>
      <point x="13" y="201"/>
      <point x="20" y="190" type="curve"/>
      <point x="122" y="61" type="line"/>
      <point x="130" y="51"/>
      <point x="147" y="51"/>
      <point x="160" y="61" type="curve"/>
      <point x="300" y="175" type="line"/>
      <point x="391" y="60" type="line"/>
      <point x="400" y="50"/>
      <point x="416" y="50"/>
      <point x="429" y="60" type="curve"/>
      <point x="563" y="169" type="line"/>
      <point x="575" y="179"/>
      <point x="578" y="196"/>
      <point x="571" y="207" type="curve"/>
      <point x="480" y="323" type="line"/>
      <point x="623" y="440" type="line"/>
      <point x="635" y="451"/>
      <point x="639" y="468"/>
      <point x="631" y="478" type="curve"/>
      <point x="529" y="607" type="line"/>
      <point x="520" y="617"/>
      <point x="504" y="617"/>
      <point x="491" y="607" type="curve"/>
      <point x="348" y="490" type="line"/>
    </contour>
  </outline>
</glyph>
<glyph name="Oslash" format="1">
  <advance width="778"/>
  <unicode hex="00D8"/>
  <outline>
    <contour>
      <point x="33" y="300" type="line" name="hr00"/>
      <point x="16" y="294"/>
      <point x="8" y="285"/>
      <point x="4" y="267" type="curve"/>
      <point x="-19" y="159" type="line"/>
      <point x="-21" y="147"/>
      <point x="-14" y="138"/>
      <point x="-2" y="138" type="curve" smooth="yes"/>
      <point x="0" y="138"/>
      <point x="4" y="139"/>
      <point x="9" y="141" type="curve"/>
      <point x="54" y="157" type="line"/>
      <point x="85" y="46"/>
      <point x="207" y="-10"/>
      <point x="346" y="-10" type="curve" smooth="yes"/>
      <point x="562" y="-10"/>
      <point x="672" y="81"/>
      <point x="718" y="260" type="curve" smooth="yes"/>
      <point x="729" y="305"/>
      <point x="740" y="359"/>
      <point x="750" y="409" type="curve"/>
      <point x="772" y="417" type="line"/>
      <point x="789" y="423"/>
      <point x="797" y="432"/>
      <point x="801" y="450" type="curve"/>
      <point x="824" y="558" type="line"/>
      <point x="827" y="570"/>
      <point x="820" y="579"/>
      <point x="808" y="579" type="curve" smooth="yes"/>
      <point x="806" y="579"/>
      <point x="801" y="578"/>
      <point x="796" y="576" type="curve"/>
      <point x="744" y="557" type="line"/>
      <point x="704" y="655"/>
      <point x="589" y="710"/>
      <point x="459" y="710" type="curve" smooth="yes"/>
      <point x="243" y="710"/>
      <point x="131" y="611"/>
      <point x="87" y="436" type="curve" smooth="yes"/>
      <point x="77" y="395"/>
      <point x="67" y="351"/>
      <point x="59" y="309" type="curve"/>
    </contour>
    <contour>
      <point x="459" y="266" type="line"/>
      <point x="445" y="210"/>
      <point x="412" y="185"/>
      <point x="368" y="185" type="curve" smooth="yes"/>
      <point x="328" y="185"/>
      <point x="306" y="205"/>
      <point x="309" y="249" type="curve"/>
      <point x="468" y="307" type="line"/>
    </contour>
    <contour>
      <point x="342" y="412" type="line"/>
      <point x="355" y="482"/>
      <point x="390" y="515"/>
      <point x="438" y="515" type="curve" smooth="yes"/>
      <point x="471" y="515"/>
      <point x="493" y="500"/>
      <point x="497" y="467" type="curve"/>
    </contour>
  </outline>
</glyph>
<glyph name="Thorn" format="1">
  <advance width="704"/>
  <unicode hex="00DE"/>
  <outline>
    <contour>
      <point x="277" y="119" type="line" name="hr00"/>
      <point x="367" y="119" type="line"/>
      <point x="558" y="119"/>
      <point x="663" y="190"/>
      <point x="698" y="356" type="curve" smooth="yes"/>
      <point x="733" y="522"/>
      <point x="600" y="601"/>
      <point x="429" y="601" type="curve"/>
      <point x="379" y="601" type="line"/>
      <point x="395" y="673" type="line"/>
      <point x="398" y="688"/>
      <point x="388" y="700"/>
      <point x="373" y="700" type="curve"/>
      <point x="167" y="700" type="line"/>
      <point x="152" y="700"/>
      <point x="138" y="688"/>
      <point x="135" y="673" type="curve"/>
      <point x="-3" y="27" type="line"/>
      <point x="-6" y="12"/>
      <point x="4" y="0"/>
      <point x="19" y="0" type="curve"/>
      <point x="225" y="0" type="line"/>
      <point x="240" y="0"/>
      <point x="254" y="12"/>
      <point x="257" y="27" type="curve"/>
      <point x="276" y="118" type="line"/>
    </contour>
    <contour>
      <point x="335" y="415" type="line"/>
      <point x="405" y="415" type="line"/>
      <point x="441" y="415"/>
      <point x="444" y="383"/>
      <point x="439" y="358" type="curve" smooth="yes"/>
      <point x="430" y="319"/>
      <point x="402" y="304"/>
      <point x="381" y="304" type="curve"/>
      <point x="311" y="304" type="line"/>
    </contour>
  </outline>
</glyph>
<glyph name="germandbls" format="1">
  <advance width="681"/>
  <unicode hex="00DF"/>
  <outline>
    <contour>
      <point x="219" y="27" type="curve" name="hr00"/>
      <point x="311" y="459" type="line" smooth="yes"/>
      <point x="324" y="518"/>
      <point x="352" y="541"/>
      <point x="391" y="541" type="curve"/>
      <point x="430" y="541"/>
      <point x="450" y="518"/>
      <point x="443" y="489" type="curve" smooth="yes"/>
      <point x="437" y="459"/>
      <point x="415" y="438"/>
      <point x="366" y="438" type="curve" smooth="yes"/>
      <point x="341" y="438"/>
      <point x="334" y="426"/>
      <point x="331" y="411" type="curve" smooth="yes"/>
      <point x="310" y="313" type="line" smooth="yes"/>
      <point x="307" y="298"/>
      <point x="312" y="286"/>
      <point x="333" y="286" type="curve" smooth="yes"/>
      <point x="381" y="287"/>
      <point x="401" y="263"/>
      <point x="394" y="227" type="curve" smooth="yes"/>
      <point x="386" y="190"/>
      <point x="361" y="167"/>
      <point x="312" y="168" type="curve" smooth="yes"/>
      <point x="291" y="168"/>
      <point x="277" y="156"/>
      <point x="273" y="141" type="curve" smooth="yes"/>
      <point x="249" y="27" type="line" smooth="yes"/>
      <point x="246" y="12"/>
      <point x="256" y="0"/>
      <point x="277" y="0" type="curve" smooth="yes"/>
      <point x="320" y="0"/>
      <point x="324" y="0"/>
      <point x="332" y="0" type="curve" smooth="yes"/>
      <point x="526" y="0"/>
      <point x="614" y="106"/>
      <point x="635" y="209" type="curve" smooth="yes"/>
      <point x="654" y="296"/>
      <point x="628" y="341"/>
      <point x="580" y="368" type="curve"/>
      <point x="628" y="400"/>
      <point x="655" y="440"/>
      <point x="666" y="495" type="curve" smooth="yes"/>
      <point x="689" y="601"/>
      <point x="613" y="709"/>
      <point x="407" y="710" type="curve"/>
      <point x="201" y="709"/>
      <point x="109" y="598"/>
      <point x="78" y="452" type="curve" smooth="yes"/>
      <point x="-13" y="27" type="line" smooth="yes"/>
      <point x="-16" y="12"/>
      <point x="-6" y="0"/>
      <point x="9" y="0" type="curve" smooth="yes"/>
      <point x="187" y="0" type="line" smooth="yes"/>
      <point x="202" y="0"/>
      <point x="216" y="12"/>
    </contour>
  </outline>
</glyph>
<glyph name="ccedilla" format="1">
  <advance width="621"/>
  <unicode hex="00E7"/>
  <outline>
    <contour>
      <point x="273" y="295" type="curve" smooth="yes"/>
      <point x="283" y="335"/>
      <point x="296" y="359"/>
      <point x="327" y="359" type="curve" smooth="yes"/>
      <point x="347" y="359"/>
      <point x="352" y="348"/>
      <point x="357" y="329" type="curve" smooth="yes"/>
      <point x="361" y="317"/>
      <point x="367" y="309"/>
      <point x="382" y="309" type="curve" name="hr01"/>
      <point x="577" y="309" type="line"/>
      <point x="592" y="309"/>
      <point x="608" y="321"/>
      <point x="610" y="336" type="curve" smooth="yes"/>
      <point x="618" y="389"/>
      <point x="549" y="530"/>
      <point x="348" y="530" type="curve" smooth="yes"/>
      <point x="185" y="530"/>
      <point x="68" y="448"/>
      <point x="29" y="300" type="curve" smooth="yes"/>
      <point x="23" y="277"/>
      <point x="16" y="240"/>
      <point x="12" y="219" type="curve" smooth="yes"/>
      <point x="-8" y="94"/>
      <point x="75" y="18"/>
      <point x="186" y="-3" type="curve"/>
      <point x="161" y="-42" type="line"/>
      <point x="148" y="-61"/>
      <point x="148" y="-69"/>
      <point x="155" y="-78" type="curve"/>
      <point x="176" y="-106" type="line"/>
      <point x="186" y="-119"/>
      <point x="212" y="-106"/>
      <point x="230" y="-106" type="curve" smooth="yes"/>
      <point x="250" y="-106"/>
      <point x="255" y="-118"/>
      <point x="253" y="-130" type="curve" smooth="yes"/>
      <point x="250" y="-142"/>
      <point x="239" y="-154"/>
      <point x="220" y="-154" type="curve" smooth="yes"/>
      <point x="186" y="-154"/>
      <point x="185" y="-136"/>
      <point x="164" y="-151" type="curve"/>
      <point x="140" y="-169" type="line"/>
      <point x="112" y="-189"/>
      <point x="163" y="-220"/>
      <point x="216" y="-220" type="curve" smooth="yes"/>
      <point x="276" y="-220"/>
      <point x="312" y="-188"/>
      <point x="323" y="-135" type="curve" smooth="yes"/>
      <point x="334" y="-82"/>
      <point x="313" y="-40"/>
      <point x="262" y="-40" type="curve" smooth="yes"/>
      <point x="258" y="-40"/>
      <point x="240" y="-42"/>
      <point x="231" y="-45" type="curve"/>
      <point x="256" y="-10" type="line"/>
      <point x="485" y="-8"/>
      <point x="565" y="141"/>
      <point x="578" y="184" type="curve" smooth="yes"/>
      <point x="582" y="199"/>
      <point x="571" y="211"/>
      <point x="556" y="211" type="curve"/>
      <point x="361" y="211" type="line"/>
      <point x="346" y="211"/>
      <point x="336" y="203"/>
      <point x="328" y="191" type="curve" smooth="yes"/>
      <point x="316" y="172"/>
      <point x="309" y="161"/>
      <point x="285" y="161" type="curve" name="hr02" smooth="yes"/>
      <point x="254" y="161"/>
      <point x="251" y="181"/>
      <point x="258" y="224" type="curve" smooth="yes"/>
      <point x="261" y="243"/>
      <point x="266" y="266"/>
    </contour>
  </outline>
</glyph>
<glyph name="eth" format="1">
  <advance width="634"/>
  <unicode hex="00F0"/>
  <outline>
    <contour>
      <point x="585" y="217" type="curve" smooth="yes"/>
      <point x="591" y="237"/>
      <point x="595" y="260"/>
      <point x="599" y="280" type="curve"/>
      <point x="621" y="417"/>
      <point x="603" y="521"/>
      <point x="557" y="600" type="curve"/>
      <point x="603" y="617" type="line"/>
      <point x="620" y="623"/>
      <point x="628" y="632"/>
      <point x="632" y="650" type="curve"/>
      <point x="638" y="678" type="line"/>
      <point x="640" y="690"/>
      <point x="633" y="699"/>
      <point x="621" y="699" type="curve" smooth="yes"/>
      <point x="619" y="699"/>
      <point x="615" y="698"/>
      <point x="609" y="696" type="curve"/>
      <point x="512" y="661" type="line"/>
      <point x="504" y="670"/>
      <point x="494" y="679"/>
      <point x="485" y="687" type="curve" smooth="yes"/>
      <point x="476" y="694"/>
      <point x="461" y="700"/>
      <point x="434" y="700" type="curve" name="hr01"/>
      <point x="246" y="700" type="line"/>
      <point x="234" y="700"/>
      <point x="222" y="690"/>
      <point x="220" y="678" type="curve" smooth="yes"/>
      <point x="219" y="673"/>
      <point x="221" y="665"/>
      <point x="229" y="659" type="curve" smooth="yes"/>
      <point x="256" y="637"/>
      <point x="282" y="613"/>
      <point x="303" y="586" type="curve"/>
      <point x="223" y="557" type="line"/>
      <point x="206" y="551"/>
      <point x="198" y="542"/>
      <point x="194" y="524" type="curve"/>
      <point x="188" y="496" type="line"/>
      <point x="185" y="484"/>
      <point x="192" y="475"/>
      <point x="204" y="475" type="curve" smooth="yes"/>
      <point x="206" y="475"/>
      <point x="211" y="476"/>
      <point x="216" y="478" type="curve"/>
      <point x="344" y="524" type="line"/>
      <point x="352" y="506"/>
      <point x="358" y="488"/>
      <point x="362" y="470" type="curve"/>
      <point x="348" y="470" type="line"/>
      <point x="185" y="470"/>
      <point x="48" y="404"/>
      <point x="13" y="242" type="curve" smooth="yes"/>
      <point x="-21" y="80"/>
      <point x="102" y="-10"/>
      <point x="266" y="-10" type="curve" smooth="yes"/>
      <point x="449" y="-10"/>
      <point x="543" y="60"/>
    </contour>
    <contour>
      <point x="247" y="204" type="curve" smooth="yes"/>
      <point x="250" y="224"/>
      <point x="253" y="236"/>
      <point x="258" y="256" type="curve" smooth="yes"/>
      <point x="267" y="288"/>
      <point x="277" y="310"/>
      <point x="314" y="310" type="curve" smooth="yes"/>
      <point x="351" y="310"/>
      <point x="353" y="288"/>
      <point x="348" y="256" type="curve" smooth="yes"/>
      <point x="345" y="236"/>
      <point x="342" y="223"/>
      <point x="337" y="203" type="curve" smooth="yes"/>
      <point x="329" y="171"/>
      <point x="314" y="150"/>
      <point x="280" y="150" type="curve" smooth="yes"/>
      <point x="243" y="150"/>
      <point x="241" y="171"/>
    </contour>
  </outline>
</glyph>
<glyph name="divide" format="1">
  <advance width="514"/>
  <unicode hex="00F7"/>
  <outline>
    <contour>
      <point x="254" y="576" type="line" name="hr00" smooth="yes"/>
      <point x="239" y="576"/>
      <point x="224" y="564"/>
      <point x="221" y="549" type="curve" smooth="yes"/>
      <point x="197" y="435" type="line" smooth="yes"/>
      <point x="194" y="420"/>
      <point x="203" y="408"/>
      <point x="218" y="408" type="curve" smooth="yes"/>
      <point x="342" y="408" type="line" smooth="yes"/>
      <point x="357" y="408"/>
      <point x="372" y="420"/>
      <point x="375" y="435" type="curve" smooth="yes"/>
      <point x="399" y="549" type="line" smooth="yes"/>
      <point x="402" y="564"/>
      <point x="393" y="576"/>
      <point x="378" y="576" type="curve" smooth="yes"/>
    </contour>
    <contour>
      <point x="172" y="192" type="line" smooth="yes"/>
      <point x="157" y="192"/>
      <point x="143" y="180"/>
      <point x="140" y="165" type="curve" smooth="yes"/>
      <point x="115" y="51" type="line" smooth="yes"/>
      <point x="112" y="36"/>
      <point x="122" y="24"/>
      <point x="137" y="24" type="curve" smooth="yes"/>
      <point x="261" y="24" type="line" smooth="yes"/>
      <point x="276" y="24"/>
      <point x="290" y="36"/>
      <point x="293" y="51" type="curve" smooth="yes"/>
      <point x="318" y="165" type="line" smooth="yes"/>
      <point x="321" y="180"/>
      <point x="311" y="192"/>
      <point x="296" y="192" type="curve" smooth="yes"/>
    </contour>
    <contour>
      <point x="73" y="385" type="line" smooth="yes"/>
      <point x="58" y="385"/>
      <point x="44" y="373"/>
      <point x="41" y="358" type="curve" smooth="yes"/>
      <point x="16" y="242" type="line" smooth="yes"/>
      <point x="13" y="227"/>
      <point x="22" y="215"/>
      <point x="37" y="215" type="curve" smooth="yes"/>
      <point x="442" y="215" type="line" smooth="yes"/>
      <point x="457" y="215"/>
      <point x="472" y="227"/>
      <point x="475" y="242" type="curve" smooth="yes"/>
      <point x="500" y="358" type="line" smooth="yes"/>
      <point x="503" y="373"/>
      <point x="493" y="385"/>
      <point x="478" y="385" type="curve" smooth="yes"/>
    </contour>
  </outline>
</glyph>
<glyph name="thorn" format="1">
  <advance width="661"/>
  <unicode hex="00FE"/>
  <outline>
    <contour>
      <point x="362" y="-10" type="curve" name="hr00" smooth="yes"/>
      <point x="478" y="-10"/>
      <point x="574" y="63"/>
      <point x="613" y="220" type="curve" smooth="yes"/>
      <point x="621" y="250"/>
      <point x="625" y="269"/>
      <point x="630" y="299" type="curve" smooth="yes"/>
      <point x="659" y="466"/>
      <point x="573" y="530"/>
      <point x="457" y="530" type="curve" smooth="yes"/>
      <point x="388" y="530"/>
      <point x="351" y="504"/>
      <point x="322" y="473" type="curve"/>
      <point x="367" y="683" type="line" smooth="yes"/>
      <point x="370" y="698"/>
      <point x="360" y="710"/>
      <point x="345" y="710" type="curve" smooth="yes"/>
      <point x="160" y="710" type="line" smooth="yes"/>
      <point x="145" y="710"/>
      <point x="131" y="698"/>
      <point x="128" y="683" type="curve" smooth="yes"/>
      <point x="-52" y="-163" type="line" smooth="yes"/>
      <point x="-55" y="-178"/>
      <point x="-46" y="-190"/>
      <point x="-31" y="-190" type="curve" smooth="yes"/>
      <point x="154" y="-190" type="line" smooth="yes"/>
      <point x="169" y="-190"/>
      <point x="184" y="-178"/>
      <point x="187" y="-163" type="curve" smooth="yes"/>
      <point x="232" y="50" type="line"/>
      <point x="253" y="10"/>
      <point x="306" y="-10"/>
    </contour>
    <contour>
      <point x="370" y="227" type="curve" smooth="yes"/>
      <point x="358" y="191"/>
      <point x="344" y="169"/>
      <point x="307" y="169" type="curve" smooth="yes"/>
      <point x="273" y="169"/>
      <point x="263" y="187"/>
      <point x="268" y="219" type="curve" smooth="yes"/>
      <point x="272" y="249"/>
      <point x="275" y="263"/>
      <point x="284" y="293" type="curve" smooth="yes"/>
      <point x="293" y="329"/>
      <point x="309" y="351"/>
      <point x="346" y="351" type="curve" smooth="yes"/>
      <point x="383" y="351"/>
      <point x="387" y="329"/>
      <point x="384" y="293" type="curve" smooth="yes"/>
      <point x="382" y="273"/>
      <point x="376" y="247"/>
    </contour>
  </outline>
</glyph>
<glyph name="Aogonek" format="1">
  <advance width="761"/>
  <unicode hex="0104"/>
  <outline>
    <contour>
      <point x="355" y="700" type="line" name="hr00"/>
      <point x="328" y="700"/>
      <point x="311" y="681"/>
      <point x="303" y="667" type="curve"/>
      <point x="-55" y="29" type="line"/>
      <point x="-63" y="15"/>
      <point x="-55" y="0"/>
      <point x="-40" y="0" type="curve"/>
      <point x="155" y="0" type="line"/>
      <point x="181" y="0"/>
      <point x="192" y="14"/>
      <point x="199" y="25" type="curve"/>
      <point x="237" y="91" type="line"/>
      <point x="452" y="91" type="line"/>
      <point x="462" y="25" type="line"/>
      <point x="463" y="14"/>
      <point x="470" y="0"/>
      <point x="496" y="0" type="curve"/>
      <point x="500" y="0" type="line"/>
      <point x="495" y="-12"/>
      <point x="492" y="-25"/>
      <point x="489" y="-39" type="curve" smooth="yes"/>
      <point x="469" y="-134"/>
      <point x="514" y="-220"/>
      <point x="635" y="-220" type="curve"/>
      <point x="639" y="-220" type="line"/>
      <point x="654" y="-220"/>
      <point x="668" y="-208"/>
      <point x="671" y="-193" type="curve"/>
      <point x="686" y="-125" type="line"/>
      <point x="689" y="-110"/>
      <point x="680" y="-98"/>
      <point x="665" y="-98" type="curve"/>
      <point x="655" y="-98" type="line"/>
      <point x="616" y="-98"/>
      <point x="611" y="-70"/>
      <point x="615" y="-49" type="curve" smooth="yes"/>
      <point x="619" y="-29"/>
      <point x="635" y="-2"/>
      <point x="670" y="0" type="curve"/>
      <point x="676" y="0" type="line"/>
      <point x="691" y="0"/>
      <point x="705" y="11"/>
      <point x="703" y="29" type="curve"/>
      <point x="615" y="667" type="line"/>
      <point x="613" y="682"/>
      <point x="604" y="700"/>
      <point x="577" y="700" type="curve"/>
    </contour>
    <contour>
      <point x="329" y="286" type="line"/>
      <point x="425" y="472" type="line"/>
      <point x="442" y="286" type="line"/>
    </contour>
  </outline>
</glyph>
<glyph name="aogonek" format="1">
  <advance width="660"/>
  <unicode hex="0105"/>
  <outline>
    <contour>
      <point x="293" y="530" type="curve" smooth="yes"/>
      <point x="167" y="530"/>
      <point x="72" y="457"/>
      <point x="32" y="300" type="curve" smooth="yes"/>
      <point x="25" y="270"/>
      <point x="21" y="251"/>
      <point x="15" y="221" type="curve"/>
      <point x="-13" y="54"/>
      <point x="72" y="-10"/>
      <point x="188" y="-10" type="curve" smooth="yes"/>
      <point x="257" y="-10"/>
      <point x="299" y="14"/>
      <point x="339" y="50" type="curve"/>
      <point x="334" y="27" type="line"/>
      <point x="332" y="17"/>
      <point x="335" y="9"/>
      <point x="341" y="4" type="curve"/>
      <point x="336" y="-9"/>
      <point x="332" y="-24"/>
      <point x="329" y="-39" type="curve" smooth="yes"/>
      <point x="309" y="-134"/>
      <point x="354" y="-220"/>
      <point x="475" y="-220" type="curve"/>
      <point x="479" y="-220" type="line"/>
      <point x="494" y="-220"/>
      <point x="508" y="-208"/>
      <point x="511" y="-193" type="curve"/>
      <point x="526" y="-125" type="line"/>
      <point x="529" y="-110"/>
      <point x="520" y="-98"/>
      <point x="505" y="-98" type="curve"/>
      <point x="495" y="-98" type="line"/>
      <point x="456" y="-98"/>
      <point x="451" y="-70"/>
      <point x="455" y="-49" type="curve" smooth="yes"/>
      <point x="460" y="-28"/>
      <point x="477" y="0"/>
      <point x="516" y="0" type="curve" name="hr01"/>
      <point x="526" y="0" type="line"/>
      <point x="541" y="0"/>
      <point x="555" y="12"/>
      <point x="558" y="27" type="curve"/>
      <point x="657" y="493" type="line"/>
      <point x="660" y="508"/>
      <point x="650" y="520"/>
      <point x="635" y="520" type="curve"/>
      <point x="466" y="520" type="line"/>
      <point x="451" y="520"/>
      <point x="437" y="508"/>
      <point x="434" y="493" type="curve"/>
      <point x="431" y="480" type="line"/>
      <point x="405" y="509"/>
      <point x="369" y="530"/>
    </contour>
    <contour>
      <point x="276" y="293" type="curve" smooth="yes"/>
      <point x="287" y="329"/>
      <point x="301" y="351"/>
      <point x="338" y="351" type="curve" smooth="yes"/>
      <point x="372" y="351"/>
      <point x="382" y="333"/>
      <point x="377" y="301" type="curve" smooth="yes"/>
      <point x="373" y="271"/>
      <point x="370" y="257"/>
      <point x="362" y="227" type="curve" smooth="yes"/>
      <point x="352" y="191"/>
      <point x="336" y="169"/>
      <point x="299" y="169" type="curve" smooth="yes"/>
      <point x="262" y="169"/>
      <point x="258" y="191"/>
      <point x="262" y="227" type="curve" smooth="yes"/>
      <point x="264" y="247"/>
      <point x="270" y="273"/>
    </contour>
  </outline>
</glyph>
<glyph name="Dcroat" format="1">
  <advance width="761"/>
  <unicode hex="0110"/>
  <outline>
    <contour>
      <point x="34" y="275" type="curve" name="hr00"/>
      <point x="72" y="275" type="line"/>
      <point x="19" y="27" type="line"/>
      <point x="16" y="12"/>
      <point x="26" y="0"/>
      <point x="41" y="0" type="curve"/>
      <point x="354" y="0" type="line"/>
      <point x="565" y="0"/>
      <point x="673" y="87"/>
      <point x="721" y="276" type="curve" smooth="yes"/>
      <point x="735" y="330"/>
      <point x="743" y="368"/>
      <point x="753" y="425" type="curve" smooth="yes"/>
      <point x="784" y="604"/>
      <point x="624" y="700"/>
      <point x="457" y="700" type="curve"/>
      <point x="189" y="700" type="line"/>
      <point x="174" y="700"/>
      <point x="160" y="688"/>
      <point x="157" y="673" type="curve"/>
      <point x="105" y="430" type="line"/>
      <point x="67" y="430" type="line"/>
      <point x="52" y="430"/>
      <point x="37" y="418"/>
      <point x="34" y="403" type="curve"/>
      <point x="13" y="302" type="line"/>
      <point x="10" y="287"/>
      <point x="19" y="275"/>
    </contour>
    <contour>
      <point x="499" y="425" type="curve" smooth="yes"/>
      <point x="490" y="370"/>
      <point x="482" y="333"/>
      <point x="467" y="276" type="curve" smooth="yes"/>
      <point x="452" y="220"/>
      <point x="414" y="195"/>
      <point x="370" y="195" type="curve"/>
      <point x="305" y="195" type="line"/>
      <point x="322" y="275" type="line"/>
      <point x="378" y="275" type="line"/>
      <point x="393" y="275"/>
      <point x="408" y="287"/>
      <point x="411" y="302" type="curve"/>
      <point x="432" y="403" type="line"/>
      <point x="435" y="418"/>
      <point x="426" y="430"/>
      <point x="411" y="430" type="curve"/>
      <point x="355" y="430" type="line"/>
      <point x="371" y="505" type="line"/>
      <point x="431" y="505" type="line"/>
      <point x="476" y="505"/>
      <point x="508" y="481"/>
    </contour>
  </outline>
</glyph>
<glyph name="dcroat" format="1">
  <advance width="661"/>
  <unicode hex="0111"/>
  <outline>
    <contour>
      <point x="292" y="530" type="curve" smooth="yes"/>
      <point x="176" y="530"/>
      <point x="71" y="457"/>
      <point x="31" y="300" type="curve" smooth="yes"/>
      <point x="24" y="270"/>
      <point x="20" y="251"/>
      <point x="14" y="221" type="curve" smooth="yes"/>
      <point x="-14" y="54"/>
      <point x="61" y="-10"/>
      <point x="177" y="-10" type="curve" smooth="yes"/>
      <point x="246" y="-10"/>
      <point x="301" y="18"/>
      <point x="340" y="57" type="curve"/>
      <point x="333" y="27" type="line" smooth="yes"/>
      <point x="330" y="12"/>
      <point x="340" y="0"/>
      <point x="355" y="0" type="curve" name="hr01" smooth="yes"/>
      <point x="525" y="0" type="line" smooth="yes"/>
      <point x="540" y="0"/>
      <point x="554" y="12"/>
      <point x="557" y="27" type="curve" smooth="yes"/>
      <point x="668" y="548" type="line"/>
      <point x="698" y="548" type="line" smooth="yes"/>
      <point x="713" y="548"/>
      <point x="728" y="560"/>
      <point x="731" y="575" type="curve" smooth="yes"/>
      <point x="742" y="626" type="line" smooth="yes"/>
      <point x="745" y="641"/>
      <point x="735" y="653"/>
      <point x="720" y="653" type="curve" smooth="yes"/>
      <point x="690" y="653" type="line"/>
      <point x="697" y="683" type="line" smooth="yes"/>
      <point x="700" y="698"/>
      <point x="690" y="710"/>
      <point x="675" y="710" type="curve" name="hr02" smooth="yes"/>
      <point x="490" y="710" type="line" smooth="yes"/>
      <point x="475" y="710"/>
      <point x="461" y="698"/>
      <point x="458" y="683" type="curve" smooth="yes"/>
      <point x="451" y="653" type="line" name="hr03"/>
      <point x="421" y="653" type="line" smooth="yes"/>
      <point x="406" y="653"/>
      <point x="392" y="641"/>
      <point x="389" y="626" type="curve" smooth="yes"/>
      <point x="378" y="575" type="line" smooth="yes"/>
      <point x="375" y="560"/>
      <point x="384" y="548"/>
      <point x="399" y="548" type="curve" smooth="yes"/>
      <point x="429" y="548" type="line"/>
      <point x="415" y="483" type="line"/>
      <point x="389" y="512"/>
      <point x="348" y="530"/>
    </contour>
    <contour>
      <point x="275" y="293" type="curve" smooth="yes"/>
      <point x="286" y="329"/>
      <point x="300" y="351"/>
      <point x="337" y="351" type="curve" smooth="yes"/>
      <point x="371" y="351"/>
      <point x="381" y="333"/>
      <point x="376" y="301" type="curve" smooth="yes"/>
      <point x="372" y="271"/>
      <point x="369" y="257"/>
      <point x="361" y="227" type="curve" smooth="yes"/>
      <point x="351" y="191"/>
      <point x="335" y="169"/>
      <point x="298" y="169" type="curve" smooth="yes"/>
      <point x="261" y="169"/>
      <point x="257" y="191"/>
      <point x="261" y="227" type="curve" smooth="yes"/>
      <point x="263" y="247"/>
      <point x="269" y="273"/>
    </contour>
  </outline>
</glyph>
<glyph name="Eogonek" format="1">
  <advance width="666"/>
  <unicode hex="0118"/>
  <outline>
    <contour>
      <point x="509" y="-98" type="line" name="hr00"/>
      <point x="470" y="-98"/>
      <point x="465" y="-70"/>
      <point x="469" y="-49" type="curve" smooth="yes"/>
      <point x="473" y="-29"/>
      <point x="489" y="-2"/>
      <point x="524" y="0" type="curve"/>
      <point x="540" y="0" type="line"/>
      <point x="555" y="0"/>
      <point x="569" y="12"/>
      <point x="572" y="27" type="curve"/>
      <point x="602" y="168" type="line"/>
      <point x="605" y="183"/>
      <point x="596" y="195"/>
      <point x="581" y="195" type="curve"/>
      <point x="273" y="195" type="line"/>
      <point x="286" y="258" type="line"/>
      <point x="564" y="258" type="line"/>
      <point x="579" y="258"/>
      <point x="594" y="270"/>
      <point x="597" y="285" type="curve"/>
      <point x="625" y="415" type="line"/>
      <point x="628" y="430"/>
      <point x="618" y="442"/>
      <point x="603" y="442" type="curve"/>
      <point x="325" y="442" type="line"/>
      <point x="339" y="505" type="line"/>
      <point x="639" y="505" type="line"/>
      <point x="654" y="505"/>
      <point x="668" y="517"/>
      <point x="672" y="532" type="curve"/>
      <point x="702" y="673" type="line"/>
      <point x="705" y="688"/>
      <point x="695" y="700"/>
      <point x="680" y="700" type="curve"/>
      <point x="167" y="700" type="line"/>
      <point x="152" y="700"/>
      <point x="138" y="688"/>
      <point x="135" y="673" type="curve"/>
      <point x="-3" y="27" type="line"/>
      <point x="-6" y="12"/>
      <point x="4" y="0"/>
      <point x="19" y="0" type="curve"/>
      <point x="354" y="0" type="line"/>
      <point x="349" y="-12"/>
      <point x="346" y="-25"/>
      <point x="343" y="-39" type="curve" smooth="yes"/>
      <point x="323" y="-134"/>
      <point x="368" y="-220"/>
      <point x="489" y="-220" type="curve"/>
      <point x="493" y="-220" type="line"/>
      <point x="508" y="-220"/>
      <point x="522" y="-208"/>
      <point x="525" y="-193" type="curve"/>
      <point x="540" y="-125" type="line"/>
      <point x="543" y="-110"/>
      <point x="534" y="-98"/>
      <point x="519" y="-98" type="curve"/>
    </contour>
  </outline>
</glyph>
<glyph name="eogonek" format="1">
  <advance width="621"/>
  <unicode hex="0119"/>
  <outline>
    <contour>
      <point x="549" y="201" type="line" name="hr00"/>
      <point x="564" y="201"/>
      <point x="579" y="213"/>
      <point x="582" y="228" type="curve"/>
      <point x="588" y="258" type="line"/>
      <point x="620" y="405"/>
      <point x="537" y="530"/>
      <point x="351" y="530" type="curve" smooth="yes"/>
      <point x="168" y="530"/>
      <point x="56" y="435"/>
      <point x="19" y="259" type="curve" smooth="yes"/>
      <point x="-10" y="123"/>
      <point x="42" y="43"/>
      <point x="135" y="9" type="curve"/>
      <point x="130" y="-6"/>
      <point x="125" y="-22"/>
      <point x="122" y="-39" type="curve" smooth="yes"/>
      <point x="102" y="-134"/>
      <point x="147" y="-220"/>
      <point x="268" y="-220" type="curve"/>
      <point x="272" y="-220" type="line"/>
      <point x="287" y="-220"/>
      <point x="301" y="-208"/>
      <point x="304" y="-193" type="curve"/>
      <point x="319" y="-125" type="line"/>
      <point x="322" y="-110"/>
      <point x="313" y="-98"/>
      <point x="298" y="-98" type="curve"/>
      <point x="288" y="-98" type="line"/>
      <point x="249" y="-98"/>
      <point x="244" y="-70"/>
      <point x="248" y="-49" type="curve" smooth="yes"/>
      <point x="253" y="-28"/>
      <point x="270" y="-13"/>
      <point x="309" y="-8" type="curve" smooth="yes"/>
      <point x="467" y="12"/>
      <point x="538" y="99"/>
      <point x="551" y="145" type="curve" smooth="yes"/>
      <point x="555" y="158"/>
      <point x="547" y="167"/>
      <point x="534" y="167" type="curve"/>
      <point x="345" y="167" type="line"/>
      <point x="329" y="167"/>
      <point x="324" y="165"/>
      <point x="309" y="153" type="curve" smooth="yes"/>
      <point x="296" y="142"/>
      <point x="288" y="135"/>
      <point x="276" y="135" type="curve" smooth="yes"/>
      <point x="247" y="135"/>
      <point x="242" y="156"/>
      <point x="250" y="196" type="curve"/>
      <point x="251" y="201" type="line"/>
    </contour>
    <contour>
      <point x="331" y="390" type="curve" smooth="yes"/>
      <point x="357" y="390"/>
      <point x="367" y="371"/>
      <point x="358" y="326" type="curve"/>
      <point x="278" y="326" type="line"/>
      <point x="287" y="371"/>
      <point x="305" y="390"/>
    </contour>
  </outline>
</glyph>
<glyph name="hbar" format="1">
  <advance width="685"/>
  <unicode hex="0127"/>
  <outline>
    <contour>
      <point x="294" y="296" type="line" smooth="yes"/>
      <point x="302" y="332"/>
      <point x="325" y="351"/>
      <point x="357" y="351" type="curve" smooth="yes"/>
      <point x="389" y="351"/>
      <point x="403" y="332"/>
      <point x="395" y="296" type="curve" smooth="yes"/>
      <point x="338" y="28" type="line" smooth="yes"/>
      <point x="335" y="13"/>
      <point x="345" y="1"/>
      <point x="360" y="1" type="curve" smooth="yes"/>
      <point x="556" y="1" type="line" smooth="yes"/>
      <point x="571" y="1"/>
      <point x="585" y="13"/>
      <point x="588" y="28" type="curve" smooth="yes"/>
      <point x="647" y="303" type="line" smooth="yes"/>
      <point x="680" y="461"/>
      <point x="597" y="530"/>
      <point x="496" y="530" type="curve" smooth="yes"/>
      <point x="434" y="530"/>
      <point x="374" y="506"/>
      <point x="331" y="468" type="curve"/>
      <point x="346" y="538" type="line"/>
      <point x="370" y="538" type="line" smooth="yes"/>
      <point x="385" y="538"/>
      <point x="399" y="550"/>
      <point x="403" y="565" type="curve" smooth="yes"/>
      <point x="413" y="616" type="line" smooth="yes"/>
      <point x="417" y="631"/>
      <point x="407" y="643"/>
      <point x="392" y="643" type="curve" smooth="yes"/>
      <point x="368" y="643" type="line"/>
      <point x="377" y="683" type="line" smooth="yes"/>
      <point x="380" y="698"/>
      <point x="370" y="710"/>
      <point x="355" y="710" type="curve" name="hr01" smooth="yes"/>
      <point x="160" y="710" type="line" smooth="yes"/>
      <point x="145" y="710"/>
      <point x="131" y="698"/>
      <point x="128" y="683" type="curve" smooth="yes"/>
      <point x="119" y="643" type="line" name="hr02"/>
      <point x="93" y="643" type="line" smooth="yes"/>
      <point x="78" y="643"/>
      <point x="64" y="631"/>
      <point x="60" y="616" type="curve" smooth="yes"/>
      <point x="50" y="565" type="line" smooth="yes"/>
      <point x="46" y="550"/>
      <point x="56" y="538"/>
      <point x="71" y="538" type="curve" smooth="yes"/>
      <point x="97" y="538" type="line"/>
      <point x="-12" y="27" type="line" smooth="yes"/>
      <point x="-15" y="12"/>
      <point x="-5" y="0"/>
      <point x="10" y="0" type="curve" smooth="yes"/>
      <point x="205" y="0" type="line" smooth="yes"/>
      <point x="220" y="0"/>
      <point x="234" y="12"/>
      <point x="237" y="27" type="curve" smooth="yes"/>
    </contour>
  </outline>
</glyph>
<glyph name="Iogonek" format="1">
  <advance width="367"/>
  <unicode hex="012E"/>
  <outline>
    <contour>
      <point x="223" y="0" type="line" name="hr00"/>
      <point x="238" y="0"/>
      <point x="252" y="12"/>
      <point x="255" y="27" type="curve"/>
      <point x="393" y="673" type="line"/>
      <point x="396" y="688"/>
      <point x="386" y="700"/>
      <point x="371" y="700" type="curve"/>
      <point x="167" y="700" type="line"/>
      <point x="152" y="700"/>
      <point x="138" y="688"/>
      <point x="135" y="673" type="curve"/>
      <point x="-3" y="27" type="line"/>
      <point x="-6" y="12"/>
      <point x="4" y="0"/>
      <point x="19" y="0" type="curve"/>
      <point x="37" y="0" type="line"/>
      <point x="32" y="-12"/>
      <point x="29" y="-25"/>
      <point x="26" y="-39" type="curve" smooth="yes"/>
      <point x="6" y="-134"/>
      <point x="51" y="-220"/>
      <point x="172" y="-220" type="curve"/>
      <point x="176" y="-220" type="line"/>
      <point x="191" y="-220"/>
      <point x="205" y="-208"/>
      <point x="208" y="-193" type="curve"/>
      <point x="223" y="-125" type="line"/>
      <point x="226" y="-110"/>
      <point x="217" y="-98"/>
      <point x="202" y="-98" type="curve"/>
      <point x="192" y="-98" type="line"/>
      <point x="153" y="-98"/>
      <point x="148" y="-70"/>
      <point x="152" y="-49" type="curve" smooth="yes"/>
      <point x="156" y="-29"/>
      <point x="172" y="-2"/>
      <point x="207" y="0" type="curve"/>
    </contour>
  </outline>
</glyph>
<glyph name="iogonek" format="1">
  <advance width="323"/>
  <unicode hex="012F"/>
  <outline>
    <contour>
      <point x="171" y="-80" type="curve" name="hr00"/>
      <point x="161" y="-80" type="line" smooth="yes"/>
      <point x="122" y="-80"/>
      <point x="116" y="-61"/>
      <point x="120" y="-40" type="curve" smooth="yes"/>
      <point x="124" y="-19"/>
      <point x="140" y="0"/>
      <point x="179" y="0" type="curve" smooth="yes"/>
      <point x="189" y="0" type="line" smooth="yes"/>
      <point x="204" y="0"/>
      <point x="218" y="12"/>
      <point x="221" y="27" type="curve" smooth="yes"/>
      <point x="320" y="493" type="line" smooth="yes"/>
      <point x="323" y="508"/>
      <point x="314" y="520"/>
      <point x="299" y="520" type="curve" smooth="yes"/>
      <point x="120" y="520" type="line" smooth="yes"/>
      <point x="105" y="520"/>
      <point x="90" y="508"/>
      <point x="87" y="493" type="curve" smooth="yes"/>
      <point x="-12" y="27" type="line" smooth="yes"/>
      <point x="-15" y="12"/>
      <point x="-5" y="0"/>
      <point x="10" y="0" type="curve" smooth="yes"/>
      <point x="17" y="0" type="line"/>
      <point x="11" y="-12"/>
      <point x="7" y="-26"/>
      <point x="4" y="-40" type="curve" smooth="yes"/>
      <point x="-14" y="-125"/>
      <point x="23" y="-192"/>
      <point x="134" y="-192" type="curve" smooth="yes"/>
      <point x="148" y="-192" type="line" smooth="yes"/>
      <point x="163" y="-192"/>
      <point x="177" y="-180"/>
      <point x="180" y="-165" type="curve" smooth="yes"/>
      <point x="193" y="-107" type="line" smooth="yes"/>
      <point x="196" y="-92"/>
      <point x="186" y="-80"/>
    </contour>
    <contour>
      <point x="364" y="723" type="line" smooth="yes"/>
      <point x="367" y="738"/>
      <point x="358" y="750"/>
      <point x="343" y="750" type="curve" smooth="yes"/>
      <point x="174" y="750" type="line" smooth="yes"/>
      <point x="159" y="750"/>
      <point x="144" y="738"/>
      <point x="141" y="723" type="curve" smooth="yes"/>
      <point x="115" y="602" type="line" smooth="yes"/>
      <point x="112" y="587"/>
      <point x="122" y="575"/>
      <point x="137" y="575" type="curve" smooth="yes"/>
      <point x="306" y="575" type="line" smooth="yes"/>
      <point x="321" y="575"/>
      <point x="335" y="587"/>
      <point x="338" y="602" type="curve" smooth="yes"/>
    </contour>
  </outline>
</glyph>
<glyph name="dotlessi" format="1">
  <advance width="323"/>
  <unicode hex="0131"/>
  <outline>
    <contour>
      <point x="189" y="0" type="line" name="hr00"/>
      <point x="204" y="0"/>
      <point x="218" y="12"/>
      <point x="221" y="27" type="curve" smooth="yes"/>
      <point x="320" y="493" type="line" smooth="yes"/>
      <point x="323" y="508"/>
      <point x="314" y="520"/>
      <point x="299" y="520" type="curve" smooth="yes"/>
      <point x="120" y="520" type="line" smooth="yes"/>
      <point x="105" y="520"/>
      <point x="90" y="508"/>
      <point x="87" y="493" type="curve" smooth="yes"/>
      <point x="-12" y="27" type="line" smooth="yes"/>
      <point x="-15" y="12"/>
      <point x="-5" y="0"/>
      <point x="10" y="0" type="curve" smooth="yes"/>
    </contour>
  </outline>
</glyph>
<glyph name="IJ" format="1">
  <advance width="807"/>
  <unicode hex="0132"/>
  <outline>
    <contour>
      <point x="579" y="673" type="curve"/>
      <point x="499" y="298" type="line" smooth="yes"/>
      <point x="484" y="227"/>
      <point x="456" y="205"/>
      <point x="400" y="205" type="curve" smooth="yes"/>
      <point x="385" y="205"/>
      <point x="371" y="193"/>
      <point x="367" y="178" type="curve" smooth="yes"/>
      <point x="333" y="17" type="line" smooth="yes"/>
      <point x="330" y="2"/>
      <point x="339" y="-10"/>
      <point x="354" y="-10" type="curve" smooth="yes"/>
      <point x="592" y="-10"/>
      <point x="704" y="45"/>
      <point x="749" y="258" type="curve" smooth="yes"/>
      <point x="838" y="673" type="line" smooth="yes"/>
      <point x="841" y="688"/>
      <point x="831" y="700"/>
      <point x="816" y="700" type="curve" smooth="yes"/>
      <point x="611" y="700" type="line" smooth="yes"/>
      <point x="596" y="700"/>
      <point x="582" y="688"/>
    </contour>
    <contour>
      <point x="223" y="0" type="line" name="hr01" smooth="yes"/>
      <point x="238" y="0"/>
      <point x="252" y="12"/>
      <point x="255" y="27" type="curve" smooth="yes"/>
      <point x="393" y="673" type="line" smooth="yes"/>
      <point x="396" y="688"/>
      <point x="386" y="700"/>
      <point x="371" y="700" type="curve" smooth="yes"/>
      <point x="167" y="700" type="line" smooth="yes"/>
      <point x="152" y="700"/>
      <point x="138" y="688"/>
      <point x="135" y="673" type="curve" smooth="yes"/>
      <point x="-3" y="27" type="line" smooth="yes"/>
      <point x="-6" y="12"/>
      <point x="4" y="0"/>
      <point x="19" y="0" type="curve" smooth="yes"/>
    </contour>
  </outline>
</glyph>
<glyph name="Ldot" format="1">
  <advance width="623"/>
  <unicode hex="013F"/>
  <outline>
    <contour>
      <point x="429" y="491" type="line" name="hr00" smooth="yes"/>
      <point x="416" y="491"/>
      <point x="404" y="481"/>
      <point x="401" y="468" type="curve" smooth="yes"/>
      <point x="372" y="332" type="line" smooth="yes"/>
      <point x="369" y="319"/>
      <point x="377" y="309"/>
      <point x="390" y="309" type="curve" smooth="yes"/>
      <point x="526" y="309" type="line" smooth="yes"/>
      <point x="539" y="309"/>
      <point x="551" y="319"/>
      <point x="554" y="332" type="curve" smooth="yes"/>
      <point x="583" y="468" type="line" smooth="yes"/>
      <point x="586" y="481"/>
      <point x="578" y="491"/>
      <point x="565" y="491" type="curve" smooth="yes"/>
    </contour>
    <component base="L"/>
  </outline>
</glyph>
